SplineFontDB: 3.2
FontName: Kunchithapatham
FullName: Kunchithapatham
FamilyName: Kunchithapatham
Weight: Book
Copyright: Copy right.*  S.Kunchithapatha Kurukkal    K.Harihara  Sarma  &  K.I.Skandadasan., 38, Sri Ramanathan street, Colombo-13, SRILANKA.                                                   
Version: 1.0 Sun May 31 14:09:51 1998
ItalicAngle: 0
UnderlinePosition: -337
UnderlineWidth: 75
Ascent: 800
Descent: 200
InvalidEm: 0
sfntRevision: 0x00010000
LayerCount: 2
Layer: 0 1 "Back" 1
Layer: 1 1 "Fore" 0
XUID: [1021 468 1989134132 12499908]
StyleMap: 0x0040
FSType: 0
OS2Version: 0
OS2_WeightWidthSlopeOnly: 0
OS2_UseTypoMetrics: 1
CreationTime: 896603991
ModificationTime: 1617414806
PfmFamily: 81
TTFWeight: 400
TTFWidth: 5
LineGap: 0
VLineGap: 0
Panose: 0 0 0 0 0 0 0 0 0 0
OS2TypoAscent: 1200
OS2TypoAOffset: 0
OS2TypoDescent: -1264
OS2TypoDOffset: 0
OS2TypoLinegap: 0
OS2WinAscent: 1336
OS2WinAOffset: 0
OS2WinDescent: 1264
OS2WinDOffset: 0
HheadAscent: 1200
HheadAOffset: 0
HheadDescent: -1264
HheadDOffset: 0
OS2SubXSize: 700
OS2SubYSize: 650
OS2SubXOff: 0
OS2SubYOff: 143
OS2SupXSize: 700
OS2SupYSize: 650
OS2SupXOff: 0
OS2SupYOff: 453
OS2StrikeYSize: 50
OS2StrikeYPos: 259
OS2Vendor: '    '
Lookup: 4 0 0 "'akhn' Akhand lookup 1" { "'akhn' Akhand lookup 1-1"  } ['akhn' ('DFLT' <'dflt' > 'deva' <'dflt' > 'gran' <'dflt' > 'taml' <'dflt' > ) ]
Lookup: 4 0 0 "'blwf' Below Base Forms lookup 0" { "'blwf' Below Base Forms lookup 0-1"  } ['blwf' ('DFLT' <'dflt' > 'deva' <'dflt' > 'gran' <'dflt' > 'taml' <'dflt' > ) ]
Lookup: 1 0 0 "Second stack to third stack" { "Second stack to third stack-1"  } []
Lookup: 6 0 0 "'blwf' Below Base Forms lookup 4" { "'blwf' Below Base Forms lookup 4-1"  } ['blwf' ('DFLT' <'dflt' > 'deva' <'dflt' > 'gran' <'dflt' > 'taml' <'dflt' > ) ]
Lookup: 1 0 0 "Alternate i/I markers" { "Alternate i/I markers-1"  } []

StartChar: .notdef
Encoding: 1114112 -1 0
Width: 700
Flags: MW
LayerCount: 2
Fore
SplineSet
43 0 m 1,0,-1
 43 700 l 1,1,-1
 657 700 l 1,2,-1
 657 0 l 1,3,-1
 43 0 l 1,0,-1
614 43 m 1,4,-1
 614 657 l 1,5,-1
 86 657 l 1,6,-1
 86 43 l 1,7,-1
 614 43 l 1,4,-1
EndSplineSet
EndChar

StartChar: u11301
Encoding: 70401 70401 2
Width: 9
Flags: MW
LayerCount: 2
Fore
SplineSet
-390 1237 m 0,0,1
 -390 1198 -390 1198 -419 1170 c 0,2,3
 -448 1144 -448 1144 -486 1144 c 0,4,5
 -523 1144 -523 1144 -546.5 1173.5 c 128,-1,6
 -570 1203 -570 1203 -570 1243 c 0,7,8
 -570 1277 -570 1277 -542 1305 c 0,9,10
 -514 1330 -514 1330 -477 1330 c 0,11,12
 -444 1330 -444 1330 -415 1303 c 0,13,14
 -390 1275 -390 1275 -390 1237 c 0,0,1
-107 1293 m 1,15,16
 -107 1259 -107 1259 -116 1227 c 0,17,18
 -121 1210 -121 1210 -127.5 1195 c 128,-1,19
 -134 1180 -134 1180 -145 1159 c 0,20,21
 -178 1090 -178 1090 -235 1045 c 0,22,23
 -261 1024 -261 1024 -293.5 1007.5 c 128,-1,24
 -326 991 -326 991 -370 977 c 0,25,26
 -438 957 -438 957 -486 957 c 0,27,28
 -543 957 -543 957 -616 980 c 128,-1,29
 -689 1003 -689 1003 -742 1045.5 c 128,-1,30
 -795 1088 -795 1088 -829 1155 c 0,31,32
 -859 1218 -859 1218 -873 1300 c 1,33,-1
 -769 1293 l 1,34,35
 -761 1229 -761 1229 -746 1197 c 0,36,37
 -728 1152 -728 1152 -691.5 1122 c 128,-1,38
 -655 1092 -655 1092 -585 1066 c 1,39,40
 -522 1047 -522 1047 -489 1047 c 0,41,42
 -448 1047 -448 1047 -400 1059 c 0,43,44
 -339 1074 -339 1074 -294 1110 c 0,45,46
 -257 1139 -257 1139 -234 1193 c 0,47,48
 -218 1230 -218 1230 -206 1293 c 1,49,-1
 -107 1293 l 1,15,16
-429 1234 m 0,50,51
 -429 1258 -429 1258 -444 1276 c 128,-1,52
 -459 1294 -459 1294 -484 1294 c 0,53,54
 -502 1294 -502 1294 -518 1278 c 128,-1,55
 -534 1262 -534 1262 -534 1240 c 0,56,57
 -534 1216 -534 1216 -520 1196.5 c 128,-1,58
 -506 1177 -506 1177 -483 1177 c 0,59,60
 -462 1177 -462 1177 -445 1194 c 0,61,62
 -429 1213 -429 1213 -429 1234 c 0,50,51
EndSplineSet
EndChar

StartChar: uni1CF4
Encoding: 7412 7412 3
Width: 9
Flags: MW
LayerCount: 2
Fore
SplineSet
-107 1293 m 1,0,1
 -107 1259 -107 1259 -116 1227 c 0,2,3
 -121 1210 -121 1210 -127.5 1195 c 128,-1,4
 -134 1180 -134 1180 -145 1159 c 0,5,6
 -178 1090 -178 1090 -235 1045 c 0,7,8
 -261 1024 -261 1024 -293.5 1007.5 c 128,-1,9
 -326 991 -326 991 -370 977 c 0,10,11
 -438 957 -438 957 -486 957 c 0,12,13
 -543 957 -543 957 -616 980 c 128,-1,14
 -689 1003 -689 1003 -742 1045.5 c 128,-1,15
 -795 1088 -795 1088 -829 1155 c 0,16,17
 -859 1218 -859 1218 -873 1300 c 1,18,-1
 -769 1293 l 1,19,20
 -761 1229 -761 1229 -746 1197 c 0,21,22
 -728 1152 -728 1152 -691.5 1122 c 128,-1,23
 -655 1092 -655 1092 -585 1066 c 1,24,25
 -522 1047 -522 1047 -489 1047 c 0,26,27
 -448 1047 -448 1047 -400 1059 c 0,28,29
 -339 1074 -339 1074 -294 1110 c 0,30,31
 -257 1139 -257 1139 -234 1193 c 0,32,33
 -218 1230 -218 1230 -206 1293 c 1,34,-1
 -107 1293 l 1,0,1
EndSplineSet
EndChar

StartChar: uniE10D
Encoding: 57613 57613 4
Width: 595
Flags: MW
LayerCount: 2
Fore
SplineSet
558 -111 m 1,0,-1
 397 -111 l 1,1,-1
 397 -249 l 1,2,-1
 327 -249 l 1,3,-1
 327 -114 l 1,4,-1
 269 -111 l 2,5,6
 253 -111 253 -111 220 -101 c 0,7,8
 193 -95 193 -95 174 -76 c 0,9,10
 158 -57 158 -57 158 -35 c 0,11,12
 158 -17 158 -17 179 3 c 0,13,14
 193 14 193 14 210 21 c 2,15,-1
 258 33 l 1,16,-1
 288 36 l 1,17,-1
 306 41 l 1,18,-1
 335 51 l 1,19,-1
 348 54 l 2,20,21
 379 62 379 62 412 82 c 0,22,23
 425 89 425 89 425 106 c 2,24,-1
 424 121 l 1,25,-1
 423 141 l 1,26,-1
 423 164 l 1,27,-1
 422 206 l 1,28,-1
 421 216 l 1,29,-1
 414 236 l 1,30,-1
 402 256 l 1,31,-1
 382 275 l 2,32,33
 375 280 375 280 355 283 c 1,34,-1
 337 282 l 1,35,-1
 327 280 l 1,36,-1
 307 274 l 1,37,-1
 289 265 l 2,38,39
 282 258 282 258 282 240 c 2,40,-1
 282 159 l 1,41,-1
 219 159 l 1,42,-1
 219 459 l 1,43,-1
 139 459 l 1,44,-1
 139 21 l 1,45,-1
 72 21 l 1,46,-1
 73 519 l 1,47,-1
 432 519 l 1,48,-1
 432 459 l 1,49,-1
 285 457 l 1,50,-1
 285 336 l 1,51,-1
 291 340 l 1,52,-1
 321 349 l 1,53,-1
 347 353 l 1,54,55
 377 353 377 353 403 343 c 0,56,57
 431 334 431 334 448 315 c 0,58,59
 466 298 466 298 481.5 264 c 128,-1,60
 497 230 497 230 497 183 c 2,61,-1
 497 155 l 1,62,-1
 498 127 l 2,63,64
 498 97 498 97 495 79 c 0,65,66
 495 62 495 62 485 49.5 c 128,-1,67
 475 37 475 37 446 21 c 0,68,69
 431 15 431 15 426 7 c 1,70,-1
 398 -4 l 1,71,-1
 360 -15 l 1,72,-1
 331 -19 l 2,73,74
 311 -19 311 -19 297 -24 c 1,75,-1
 268 -24 l 2,76,77
 235 -24 235 -24 235 -39 c 0,78,79
 235 -55 235 -55 260 -55 c 2,80,-1
 315 -57 l 1,81,-1
 558 -57 l 1,82,-1
 558 -111 l 1,0,-1
EndSplineSet
Ligature2: "'akhn' Akhand lookup 1-1" u11328 u1134D u11326
EndChar

StartChar: uniE112
Encoding: 57618 57618 5
Width: 725
Flags: MW
LayerCount: 2
Fore
SplineSet
595 20 m 1,0,-1
 252 20 l 1,1,-1
 156 20 l 1,2,-1
 156 71 l 1,3,-1
 210 71 l 1,4,-1
 270 71 l 2,5,6
 302 71 302 71 320 74 c 0,7,8
 350 80 350 80 365.5 101.5 c 128,-1,9
 381 123 381 123 388 141 c 128,-1,10
 395 159 395 159 395 180 c 2,11,-1
 395 206 l 1,12,-1
 392 244 l 2,13,14
 389 267 389 267 384 274 c 0,15,16
 378 290 378 290 363 302 c 128,-1,17
 348 314 348 314 338 314 c 2,18,-1
 312 308 l 1,19,20
 293 298 293 298 279 282 c 0,21,22
 261 261 261 261 261 233 c 2,23,-1
 261 113 l 1,24,-1
 192 113 l 1,25,-1
 192 494 l 1,26,-1
 93 494 l 1,27,-1
 93 20 l 1,28,-1
 27 20 l 1,29,-1
 27 554 l 1,30,-1
 357 554 l 1,31,-1
 357 497 l 1,32,-1
 260 500 l 1,33,-1
 258 347 l 1,34,-1
 294 368 l 1,35,-1
 324 377 l 1,36,-1
 351 383 l 1,37,38
 371 383 371 383 384 376 c 0,39,40
 394 373 394 373 420 344 c 0,41,42
 456 306 456 306 456 212 c 2,43,-1
 457 186 l 1,44,-1
 458 163 l 2,45,46
 458 145 458 145 456 139 c 0,47,48
 456 133 456 133 447 114.5 c 128,-1,49
 438 96 438 96 429 85 c 2,50,-1
 408 62 l 1,51,-1
 531 62 l 1,52,-1
 528 536 l 1,53,-1
 594 534 l 1,54,-1
 595 20 l 1,0,-1
EndSplineSet
Ligature2: "'akhn' Akhand lookup 1-1" u11328 u1134D u11335
EndChar

StartChar: uniE115
Encoding: 57621 57621 6
Width: 990
Flags: MW
LayerCount: 2
Fore
SplineSet
986 -190 m 1,0,-1
 799 -192 l 1,1,-1
 799 -330 l 1,2,-1
 740 -331 l 1,3,-1
 740 -190 l 1,4,-1
 461 -190 l 1,5,-1
 629 50 l 1,6,-1
 262 50 l 1,7,-1
 262 98 l 1,8,-1
 277 94 l 2,9,10
 280 95 280 95 282 95.5 c 128,-1,11
 284 96 284 96 291 101 c 2,12,-1
 310 113 l 1,13,-1
 317 130 l 1,14,-1
 337 170 l 1,15,16
 346 202 346 202 349 231 c 2,17,-1
 352 296 l 1,18,-1
 349 337 l 2,19,20
 348 348 348 348 345.5 359.5 c 128,-1,21
 343 371 343 371 338 384 c 2,22,-1
 316 449 l 2,23,24
 304 485 304 485 278 501.5 c 128,-1,25
 252 518 252 518 211 518 c 0,26,27
 182 518 182 518 166 513 c 128,-1,28
 150 508 150 508 130 488 c 0,29,30
 115 471 115 471 109 457 c 2,31,-1
 97 428 l 1,32,-1
 82 377 l 2,33,34
 82 367 82 367 78 356 c 2,35,-1
 76 338 l 1,36,-1
 76 305 l 1,37,-1
 94 320 l 2,38,39
 106 329 106 329 117 333 c 2,40,-1
 142 337 l 2,41,42
 156 337 156 337 160 335 c 2,43,-1
 179 330 l 2,44,45
 189 330 189 330 200 315 c 2,46,-1
 217 290 l 2,47,48
 229 274 229 274 238.5 246.5 c 128,-1,49
 248 219 248 219 248 177 c 0,50,51
 248 107 248 107 220 78.5 c 128,-1,52
 192 50 192 50 135 50 c 0,53,54
 64 50 64 50 42 112 c 2,55,-1
 32 145 l 1,56,-1
 22 196 l 2,57,58
 16 241 16 241 16 281 c 0,59,60
 16 362 16 362 24.5 410 c 128,-1,61
 33 458 33 458 49 485 c 0,62,63
 70 524 70 524 113 552 c 0,64,65
 163 584 163 584 223 584 c 0,66,67
 259 584 259 584 299 559 c 0,68,69
 332 538 332 538 361 503 c 0,70,71
 386 474 386 474 403.5 423.5 c 128,-1,72
 421 373 421 373 421 317 c 2,73,-1
 421 292 l 1,74,-1
 421 279 l 1,75,-1
 421 268 l 1,76,-1
 418 207 l 1,77,-1
 415 179 l 1,78,-1
 406 152 l 1,79,-1
 387 120 l 1,80,-1
 367 95 l 1,81,-1
 598 95 l 1,82,83
 594 107 594 107 578 128 c 2,84,-1
 567 145 l 1,85,-1
 554 174 l 1,86,-1
 535 215 l 1,87,-1
 524 254 l 1,88,-1
 521 283 l 1,89,-1
 522 303 l 1,90,-1
 523 329 l 2,91,92
 523 428 523 428 550 488 c 0,93,94
 564 524 564 524 607 550 c 0,95,96
 627 560 627 560 647.5 566 c 128,-1,97
 668 572 668 572 689 572 c 0,98,99
 720 572 720 572 750 553 c 128,-1,100
 780 534 780 534 800 506 c 0,101,102
 818 478 818 478 830 435.5 c 128,-1,103
 842 393 842 393 842 332 c 0,104,105
 842 293 842 293 828 252 c 0,106,107
 816 211 816 211 788 164 c 0,108,109
 773 137 773 137 755 119 c 2,110,-1
 727 98 l 1,111,-1
 898 98 l 1,112,-1
 899 44 l 1,113,-1
 704 44 l 1,114,-1
 565 -138 l 1,115,-1
 877 -138 l 1,116,-1
 985 -138 l 1,117,-1
 986 -190 l 1,0,-1
775 323 m 1,118,-1
 772 389 l 1,119,-1
 770 404 l 2,120,121
 770 409 770 409 769 413.5 c 128,-1,122
 768 418 768 418 762 429 c 2,123,-1
 754 452 l 2,124,125
 748 480 748 480 728 494.5 c 128,-1,126
 708 509 708 509 685 509 c 0,127,128
 664 509 664 509 647 493 c 0,129,130
 636 481 636 481 624 452 c 2,131,-1
 611 410 l 1,132,-1
 604 380 l 1,133,-1
 601 344 l 1,134,-1
 599 317 l 1,135,-1
 598 277 l 1,136,-1
 600 260 l 1,137,-1
 602 248 l 1,138,-1
 608 233 l 1,139,-1
 637 158 l 1,140,-1
 648 139 l 1,141,-1
 664 107 l 1,142,-1
 692 132 l 2,143,144
 712 152 712 152 725 182 c 2,145,-1
 744 222 l 1,146,-1
 759 256 l 1,147,-1
 768 288 l 1,148,-1
 775 323 l 1,118,-1
193 197 m 2,149,150
 193 216 193 216 186.5 233.5 c 128,-1,151
 180 251 180 251 173.5 261.5 c 128,-1,152
 167 272 167 272 145 272 c 2,153,-1
 127 272 l 2,154,155
 119 272 119 272 105 263 c 1,156,-1
 88 242 l 1,157,-1
 83 218 l 1,158,-1
 82 188 l 2,159,160
 82 163 82 163 84 158 c 2,161,-1
 93 135 l 2,162,163
 98 126 98 126 111 113 c 0,164,165
 123 104 123 104 139 101 c 0,166,167
 178 101 178 101 190 131 c 1,168,-1
 192 150 l 1,169,-1
 193 177 l 1,170,-1
 193 197 l 2,149,150
EndSplineSet
Ligature2: "'akhn' Akhand lookup 1-1" u11337 u1134D u1131F
EndChar

StartChar: uniE117
Encoding: 57623 57623 7
Width: 1260
Flags: MW
LayerCount: 2
Fore
SplineSet
63 -86 m 1,0,-1
 63 -35 l 1,1,-1
 801 -36 l 1,2,-1
 857 9 l 1,3,-1
 866 34 l 1,4,-1
 873 66 l 1,5,-1
 874 98 l 1,6,-1
 873 125 l 1,7,-1
 873 154 l 1,8,-1
 873 185 l 1,9,-1
 873 200 l 2,10,11
 873 212 873 212 871 218 c 0,12,13
 871 232 871 232 863 248 c 2,14,-1
 857 264 l 2,15,16
 851 279 851 279 843 284.5 c 128,-1,17
 835 290 835 290 826 290 c 0,18,19
 818 290 818 290 809 286 c 2,20,-1
 792 277 l 1,21,-1
 759 257 l 2,22,23
 747 246 747 246 747 223 c 2,24,-1
 744 148 l 1,25,-1
 744 16 l 1,26,-1
 681 16 l 1,27,-1
 681 493 l 1,28,-1
 585 495 l 1,29,-1
 585 10 l 1,30,-1
 519 12 l 1,31,-1
 519 261 l 1,32,-1
 513 320 l 2,33,34
 511 340 511 340 506 353.5 c 128,-1,35
 501 367 501 367 489 378 c 2,36,-1
 465 413 l 2,37,38
 447 441 447 441 429 454 c 2,39,-1
 392 473 l 1,40,-1
 358 485 l 1,41,-1
 331 494 l 2,42,43
 313 500 313 500 299 500 c 2,44,-1
 288 499 l 1,45,-1
 254 493 l 1,46,-1
 213 472 l 2,47,48
 192 463 192 463 176 444 c 2,49,-1
 144 406 l 1,50,-1
 125 368 l 1,51,-1
 114 331 l 2,52,53
 98 277 98 277 98 248 c 0,54,55
 98 218 98 218 105 187 c 0,56,57
 117 124 117 124 177 79 c 0,58,59
 220 48 220 48 246 48 c 0,60,61
 264 48 264 48 288.5 61.5 c 128,-1,62
 313 75 313 75 327.5 91 c 128,-1,63
 342 107 342 107 342 129 c 0,64,65
 342 158 342 158 330.5 178.5 c 128,-1,66
 319 199 319 199 290 199 c 0,67,68
 276 199 276 199 265 181 c 0,69,70
 255 161 255 161 255 141 c 0,71,72
 255 107 255 107 280 97 c 1,73,-1
 260 98 l 2,74,75
 249 98 249 98 238 103 c 0,76,77
 217 112 217 112 213 126 c 2,78,-1
 209 147 l 1,79,-1
 208 167 l 2,80,81
 208 194 208 194 220 211 c 128,-1,82
 232 228 232 228 263 239.5 c 128,-1,83
 294 251 294 251 323 251 c 0,84,85
 357 251 357 251 371.5 238.5 c 128,-1,86
 386 226 386 226 393 201 c 2,87,-1
 399 176 l 1,88,-1
 401 145 l 2,89,90
 401 120 401 120 395 97 c 0,91,92
 391 76 391 76 379.5 60 c 128,-1,93
 368 44 368 44 348 32 c 2,94,-1
 311 13 l 2,95,96
 294 7 294 7 265 7 c 0,97,98
 230 7 230 7 204 16 c 2,99,-1
 140 40 l 2,100,101
 101 56 101 56 72 112 c 0,102,103
 41 179 41 179 41 247 c 2,104,-1
 41 269 l 1,105,-1
 45 304 l 1,106,-1
 55 365 l 2,107,108
 63 391 63 391 102 445 c 0,109,110
 130 485 130 485 183 519 c 128,-1,111
 236 553 236 553 297 553 c 0,112,113
 364 553 364 553 387 545 c 0,114,115
 415 539 415 539 456 508 c 0,116,117
 470 501 470 501 493 475 c 0,118,119
 502 465 502 465 509 449 c 128,-1,120
 516 433 516 433 522 420 c 1,121,-1
 522 550 l 1,122,-1
 849 550 l 1,123,-1
 849 490 l 1,124,-1
 750 490 l 1,125,-1
 750 394 l 1,126,-1
 750 310 l 1,127,-1
 813 343 l 1,128,-1
 843 344 l 2,129,130
 865 344 865 344 875.5 335.5 c 128,-1,131
 886 327 886 327 905 301 c 2,132,-1
 930 260 l 2,133,134
 936 248 936 248 936 216 c 2,135,-1
 937 162 l 1,136,-1
 936 93 l 1,137,-1
 921 15 l 2,138,139
 920 7 920 7 896 -20 c 0,140,141
 892 -24 892 -24 885 -33 c 1,142,-1
 1029 -32 l 1,143,-1
 1029 514 l 1,144,-1
 1092 514 l 1,145,-1
 1092 -86 l 1,146,-1
 63 -86 l 1,0,-1
EndSplineSet
EndChar

StartChar: uniE280
Encoding: 57984 57984 8
Width: 518
Flags: MW
LayerCount: 2
Fore
SplineSet
57 204 m 1,0,-1
 114 205 l 1,1,2
 114 190 114 190 115.5 183 c 128,-1,3
 117 176 117 176 125 162 c 2,4,-1
 147 121 l 2,5,6
 156 97 156 97 195 73 c 2,7,-1
 220 58 l 2,8,9
 232 52 232 52 252 49 c 1,10,-1
 278 54 l 1,11,-1
 318 64 l 1,12,13
 368 82 368 82 384 115 c 1,14,-1
 389 132 l 1,15,-1
 390 154 l 1,16,-1
 390 166 l 2,17,18
 390 173 390 173 388 181 c 2,19,-1
 387 201 l 2,20,21
 387 216 387 216 374 229 c 2,22,-1
 342 252 l 1,23,-1
 318 263 l 1,24,-1
 288 267 l 1,25,-1
 255 267 l 1,26,-1
 198 267 l 1,27,-1
 198 315 l 1,28,-1
 234 313 l 1,29,-1
 281 313 l 1,30,-1
 302 316 l 1,31,-1
 324 324 l 1,32,33
 352 339 352 339 379 369 c 0,34,35
 403 399 403 399 403 424 c 0,36,37
 403 439 403 439 390.5 461.5 c 128,-1,38
 378 484 378 484 365 495 c 2,39,-1
 348 505 l 1,40,-1
 321 519 l 1,41,-1
 278 535 l 1,42,-1
 253 538 l 1,43,-1
 215 535 l 2,44,45
 203 535 203 535 192 529 c 2,46,-1
 177 525 l 1,47,-1
 168 521 l 2,48,49
 158 518 158 518 147 508 c 0,50,51
 120 485 120 485 120 447 c 1,52,-1
 145 468 l 1,53,-1
 165 484 l 2,54,55
 174 493 174 493 199 493 c 0,56,57
 216 493 216 493 227 488 c 0,58,59
 242 485 242 485 254 473 c 0,60,61
 266 464 266 464 273 442 c 1,62,-1
 274 431 l 2,63,64
 274 417 274 417 272 413 c 2,65,-1
 266 394 l 1,66,-1
 258 373 l 1,67,-1
 231 363 l 2,68,69
 201 355 201 355 182 353 c 2,70,-1
 176 353 l 1,71,-1
 171 355 l 1,72,73
 153 355 153 355 132 364.5 c 128,-1,74
 111 374 111 374 99 390 c 1,75,-1
 83 424 l 1,76,-1
 75 447 l 1,77,78
 75 465 75 465 87 495 c 128,-1,79
 99 525 99 525 120.5 542.5 c 128,-1,80
 142 560 142 560 178.5 575.5 c 128,-1,81
 215 591 215 591 243 591 c 0,82,83
 288 591 288 591 324 581 c 0,84,85
 364 572 364 572 391.5 553 c 128,-1,86
 419 534 419 534 437.5 494.5 c 128,-1,87
 456 455 456 455 456 420 c 0,88,89
 456 392 456 392 446 370.5 c 128,-1,90
 436 349 436 349 414 330 c 2,91,-1
 357 288 l 1,92,93
 364 288 364 288 386 277 c 2,94,-1
 414 264 l 1,95,96
 437 244 437 244 445 222.5 c 128,-1,97
 453 201 453 201 453 156 c 0,98,99
 453 118 453 118 436 87 c 0,100,101
 421 53 421 53 390 30 c 0,102,103
 369 12 369 12 320 6 c 128,-1,104
 271 0 271 0 216 0 c 0,105,106
 200 0 200 0 168 17 c 128,-1,107
 136 34 136 34 118 55 c 0,108,109
 115 59 115 59 104.5 75.5 c 128,-1,110
 94 92 94 92 89 100 c 0,111,112
 79 121 79 121 72 147 c 2,113,-1
 57 204 l 1,0,-1
197 451 m 256,114,115
 178 451 178 451 173 447.5 c 128,-1,116
 168 444 168 444 168 426 c 0,117,118
 168 415 168 415 172 411 c 2,119,-1
 189 409 l 1,120,-1
 208 408 l 2,121,122
 214 408 214 408 218 411 c 128,-1,123
 222 414 222 414 222 430 c 0,124,125
 222 445 222 445 219 448 c 128,-1,126
 216 451 216 451 197 451 c 256,114,115
EndSplineSet
EndChar

StartChar: uni0952
Encoding: 2386 2386 9
Width: 90
Flags: MW
LayerCount: 2
Fore
SplineSet
-237 -489 m 1,0,-1
 -737 -489 l 1,1,-1
 -736 -388 l 1,2,-1
 -237 -388 l 1,3,-1
 -237 -489 l 1,0,-1
EndSplineSet
EndChar

StartChar: u1135E
Encoding: 70494 70494 10
Width: 928
Flags: MW
LayerCount: 2
Fore
SplineSet
563 267 m 0,0,1
 563 225 563 225 529 191 c 0,2,3
 495 159 495 159 451 159 c 0,4,5
 411 159 411 159 380 193 c 0,6,7
 353 226 353 226 353 274 c 0,8,9
 353 317 353 317 385 346 c 128,-1,10
 417 375 417 375 462 375 c 0,11,12
 505 375 505 375 534 343 c 128,-1,13
 563 311 563 311 563 267 c 0,0,1
814 308 m 1,14,15
 808 247 808 247 779 194 c 0,16,17
 746 128 746 128 693 87 c 0,18,19
 669 68 669 68 636 51 c 0,20,21
 629 47 629 47 604.5 37.5 c 128,-1,22
 580 28 580 28 564 22 c 0,23,24
 496 2 496 2 452 2 c 0,25,26
 401 2 401 2 333 23 c 0,27,28
 257 47 257 47 200 92 c 0,29,30
 152 129 152 129 122 188.5 c 128,-1,31
 92 248 92 248 84 312 c 1,32,-1
 157 308 l 1,33,34
 163 257 163 257 179 219 c 0,35,36
 200 171 200 171 238.5 139 c 128,-1,37
 277 107 277 107 349 81 c 0,38,39
 412 62 412 62 449 62 c 0,40,41
 471 62 471 62 494 65 c 128,-1,42
 517 68 517 68 542 75 c 0,43,44
 610 93 610 93 650.5 126 c 128,-1,45
 691 159 691 159 716 214 c 0,46,47
 725 233 725 233 731.5 253.5 c 128,-1,48
 738 274 738 274 745 308 c 1,49,-1
 814 308 l 1,14,15
494 264 m 0,50,51
 494 281 494 281 483 295 c 128,-1,52
 472 309 472 309 455 309 c 0,53,54
 443 309 443 309 429 297 c 0,55,56
 422 287 422 287 419 269 c 0,57,58
 419 251 419 251 428 236.5 c 128,-1,59
 437 222 437 222 455 222 c 0,60,61
 470 222 470 222 482 234 c 128,-1,62
 494 246 494 246 494 264 c 0,50,51
EndSplineSet
EndChar

StartChar: uniE402
Encoding: 58370 58370 11
Width: 612
Flags: MW
LayerCount: 2
Fore
SplineSet
505 415 m 2,0,-1
 507 404 l 1,1,-1
 508 393 l 1,2,-1
 507 382 l 1,3,-1
 504 365 l 1,4,-1
 492 326 l 1,5,-1
 477 292 l 2,6,7
 468 273 468 273 453 261 c 2,8,-1
 418 237 l 1,9,-1
 399 224 l 1,10,-1
 385 217 l 1,11,-1
 352 205 l 1,12,-1
 374 191 l 1,13,14
 400 156 400 156 400 115 c 0,15,16
 400 85 400 85 391.5 58.5 c 128,-1,17
 383 32 383 32 362 10 c 0,18,19
 357 6 357 6 345.5 -1 c 128,-1,20
 334 -8 334 -8 317.5 -14.5 c 128,-1,21
 301 -21 301 -21 276 -21 c 2,22,-1
 260 -20 l 1,23,-1
 237 -17 l 1,24,25
 179 -2 179 -2 155 61 c 0,26,27
 143 88 143 88 143 111 c 0,28,29
 143 133 143 133 157 161 c 2,30,-1
 169 186 l 2,31,32
 177 201 177 201 188 212 c 1,33,34
 123 240 123 240 89 274 c 0,35,36
 59 301 59 301 50 332 c 1,37,-1
 46 359 l 1,38,39
 46 419 46 419 119 505 c 0,40,41
 150 539 150 539 193 577 c 1,42,-1
 243 540 l 1,43,-1
 205 509 l 1,44,-1
 177 484 l 1,45,46
 111 419 111 419 111 371 c 2,47,-1
 112 357 l 2,48,49
 118 327 118 327 158 296 c 0,50,51
 195 269 195 269 264 246 c 1,52,-1
 320 266 l 1,53,-1
 356 277 l 2,54,55
 366 280 366 280 385 292 c 2,56,-1
 419 317 l 2,57,58
 428 326 428 326 434 344 c 2,59,-1
 442 368 l 1,60,-1
 445 383 l 2,61,62
 445 396 445 396 440 409 c 0,63,64
 426 450 426 450 400 460 c 0,65,66
 389 463 389 463 371 463 c 2,67,-1
 355 462 l 1,68,69
 378 453 378 453 391 434 c 2,70,-1
 399 417 l 2,71,72
 402 411 402 411 404 393 c 0,73,74
 404 367 404 367 385 342 c 0,75,76
 361 312 361 312 323 312 c 0,77,78
 298 312 298 312 277.5 323.5 c 128,-1,79
 257 335 257 335 246 356 c 0,80,81
 236 379 236 379 236 402 c 2,82,-1
 236 413 l 1,83,-1
 239 435 l 2,84,85
 240 449 240 449 248 464 c 0,86,87
 253 478 253 478 275 493 c 0,88,89
 319 519 319 519 363 519 c 2,90,-1
 396 516 l 2,91,92
 433 510 433 510 445.5 503 c 128,-1,93
 458 496 458 496 475 479 c 2,94,-1
 486 467 l 1,95,-1
 497 451 l 2,96,97
 499 446 499 446 501 435 c 128,-1,98
 503 424 503 424 505 415 c 2,0,-1
345 390 m 0,99,100
 345 396 345 396 338.5 402 c 128,-1,101
 332 408 332 408 320 411 c 0,102,103
 311 411 311 411 303 407 c 0,104,105
 297 402 297 402 297 394 c 0,106,107
 297 387 297 387 303.5 376.5 c 128,-1,108
 310 366 310 366 318 366 c 0,109,110
 324 366 324 366 334.5 373.5 c 128,-1,111
 345 381 345 381 345 390 c 0,99,100
319 159 m 0,112,113
 303 172 303 172 274 172 c 0,114,115
 266 172 266 172 258 172 c 0,116,117
 249 169 249 169 240.5 167 c 128,-1,118
 232 165 232 165 222 155 c 0,119,120
 208 138 208 138 208 112 c 0,121,122
 208 78 208 78 230 56 c 0,123,124
 249 39 249 39 273 39 c 0,125,126
 288 39 288 39 303 48 c 128,-1,127
 318 57 318 57 327.5 76.5 c 128,-1,128
 337 96 337 96 337 116 c 0,129,130
 337 141 337 141 319 159 c 0,112,113
EndSplineSet
Ligature2: "'haln' Halant Forms lookup 2-1" u1132E u1134D
EndChar

StartChar: uniE10F
Encoding: 57615 57615 12
Width: 792
Flags: MW
LayerCount: 2
Fore
SplineSet
444 462 m 1,0,-1
 342 462 l 1,1,-1
 342 316 l 1,2,-1
 445 317 l 1,3,-1
 444 462 l 1,0,-1
445 102 m 2,4,-1
 445 261 l 1,5,-1
 327 261 l 2,6,7
 281 261 281 261 263 250 c 0,8,9
 225 227 225 227 225 152 c 0,10,11
 225 98 225 98 270 66 c 1,12,-1
 298 50 l 1,13,-1
 326 38 l 1,14,-1
 342 36 l 1,15,-1
 358 35 l 1,16,-1
 387 41 l 1,17,-1
 406 50 l 2,18,19
 416 57 416 57 430.5 75 c 128,-1,20
 445 93 445 93 445 102 c 2,4,-1
495 318 m 1,21,-1
 747 318 l 1,22,-1
 747 264 l 1,23,-1
 660 264 l 1,24,-1
 660 186 l 1,25,-1
 661 137 l 1,26,-1
 662 96 l 1,27,-1
 659 49 l 2,28,29
 659 32 659 32 649 1 c 0,30,31
 643 -27 643 -27 623 -47 c 0,32,33
 607 -65 607 -65 573 -86.5 c 128,-1,34
 539 -108 539 -108 464 -121 c 1,35,-1
 409 -127 l 1,36,-1
 347 -129 l 2,37,38
 273 -129 273 -129 246 -121 c 0,39,40
 216 -115 216 -115 186 -97 c 0,41,42
 132 -64 132 -64 103 -32 c 0,43,44
 74 3 74 3 57 62 c 1,45,-1
 51 95 l 1,46,-1
 50 130 l 1,47,-1
 50 164 l 1,48,-1
 51 202 l 2,49,50
 51 223 51 223 63 256 c 2,51,-1
 84 315 l 1,52,-1
 133 298 l 1,53,-1
 116 236 l 1,54,-1
 107 192 l 1,55,-1
 104 140 l 2,56,57
 104 114 104 114 113 73.5 c 128,-1,58
 122 33 122 33 147 2 c 0,59,60
 165 -22 165 -22 211 -50 c 0,61,62
 234 -66 234 -66 267.5 -72 c 128,-1,63
 301 -78 301 -78 344 -78 c 0,64,65
 403 -78 403 -78 446 -71 c 0,66,67
 497 -65 497 -65 533 -45 c 128,-1,68
 569 -25 569 -25 580 -4 c 0,69,70
 586 9 586 9 597 75 c 1,71,-1
 602 154 l 1,72,-1
 603 264 l 1,73,-1
 497 263 l 1,74,-1
 497 116 l 2,75,76
 497 57 497 57 449 19.5 c 128,-1,77
 401 -18 401 -18 334 -18 c 0,78,79
 280 -18 280 -18 229 18 c 0,80,81
 163 68 163 68 163 160 c 0,82,83
 163 235 163 235 203 278 c 0,84,85
 229 302 229 302 284 314 c 1,86,-1
 288 516 l 1,87,-1
 615 516 l 1,88,-1
 615 462 l 1,89,-1
 495 462 l 1,90,-1
 495 318 l 1,21,-1
EndSplineSet
EndChar

StartChar: u11303
Encoding: 70403 70403 13
Width: 342
Flags: MW
LayerCount: 2
Fore
SplineSet
304 464 m 256,0,1
 304 408 304 408 264 368 c 128,-1,2
 224 328 224 328 168 328 c 256,3,4
 112 328 112 328 72 368 c 128,-1,5
 32 408 32 408 32 464 c 256,6,7
 32 520 32 520 72 560 c 128,-1,8
 112 600 112 600 168 600 c 256,9,10
 224 600 224 600 264 560 c 128,-1,11
 304 520 304 520 304 464 c 256,0,1
304 136 m 0,12,13
 304 80 304 80 267 40 c 128,-1,14
 230 0 230 0 176 0 c 256,15,16
 122 0 122 0 81 36.5 c 128,-1,17
 40 73 40 73 40 128 c 0,18,19
 40 181 40 181 76 222.5 c 128,-1,20
 112 264 112 264 168 264 c 256,21,22
 224 264 224 264 264 227 c 128,-1,23
 304 190 304 190 304 136 c 0,12,13
248 456 m 0,24,25
 248 486 248 486 224.5 511 c 128,-1,26
 201 536 201 536 168 536 c 256,27,28
 135 536 135 536 111.5 512.5 c 128,-1,29
 88 489 88 489 88 456 c 256,30,31
 88 423 88 423 112.5 399.5 c 128,-1,32
 137 376 137 376 168 376 c 0,33,34
 201 376 201 376 224.5 399.5 c 128,-1,35
 248 423 248 423 248 456 c 0,24,25
252 140 m 0,36,37
 252 172 252 172 227 194 c 128,-1,38
 202 216 202 216 168 216 c 0,39,40
 136 216 136 216 114 191 c 128,-1,41
 92 166 92 166 92 132 c 0,42,43
 92 100 92 100 117 78 c 128,-1,44
 142 56 142 56 176 56 c 0,45,46
 208 56 208 56 230 81 c 128,-1,47
 252 106 252 106 252 140 c 0,36,37
EndSplineSet
EndChar

StartChar: uni0964
Encoding: 2404 2404 14
Width: 165
Flags: MW
LayerCount: 2
Fore
SplineSet
120 -6 m 1,0,-1
 60 -6 l 1,1,-1
 60 630 l 1,2,-1
 120 630 l 1,3,-1
 120 -6 l 1,0,-1
EndSplineSet
EndChar

StartChar: uni0965
Encoding: 2405 2405 15
Width: 330
Flags: MW
LayerCount: 2
Fore
SplineSet
265 -15 m 1,0,-1
 205 -15 l 1,1,-1
 205 650 l 1,2,-1
 265 650 l 1,3,-1
 265 -15 l 1,0,-1
100 650 m 1,4,-1
 99 -21 l 1,5,-1
 39 -21 l 1,6,-1
 40 650 l 1,7,-1
 100 650 l 1,4,-1
EndSplineSet
EndChar

StartChar: uniE109
Encoding: 57609 57609 16
Width: 1350
Flags: MW
LayerCount: 2
Fore
SplineSet
1052 145 m 1,0,-1
 1052 282 l 1,1,-1
 972 282 l 1,2,-1
 973 146 l 1,3,-1
 1052 145 l 1,0,-1
1054 -56 m 2,4,-1
 1054 91 l 1,5,-1
 944 91 l 2,6,7
 920 91 920 91 905.5 77.5 c 128,-1,8
 891 64 891 64 891 13 c 2,9,-1
 894 -30 l 1,10,-1
 896 -46 l 1,11,-1
 902 -61 l 2,12,13
 919 -97 919 -97 959 -103 c 2,14,-1
 978 -104 l 2,15,16
 997 -104 997 -104 1009.5 -101 c 128,-1,17
 1022 -98 1022 -98 1033 -89 c 0,18,19
 1054 -74 1054 -74 1054 -56 c 2,4,-1
1213 -30 m 1,20,-1
 1212 25 l 2,21,22
 1212 45 1212 45 1207 59.5 c 128,-1,23
 1202 74 1202 74 1193 81 c 2,24,-1
 1174 91 l 1,25,-1
 1147 95 l 1,26,-1
 1123 94 l 1,27,-1
 1109 95 l 1,28,-1
 1109 -41 l 2,29,30
 1109 -83 1109 -83 1072.5 -117.5 c 128,-1,31
 1036 -152 1036 -152 973 -152 c 2,32,-1
 952 -151 l 2,33,34
 925 -148 925 -148 904.5 -138.5 c 128,-1,35
 884 -129 884 -129 867 -111 c 0,36,37
 837 -78 837 -78 837 -15 c 0,38,39
 837 9 837 9 840 32.5 c 128,-1,40
 843 56 843 56 848 74 c 0,41,42
 858 108 858 108 879 127 c 1,43,-1
 887 130 l 1,44,-1
 895 120 l 1,45,-1
 852 225 l 2,46,47
 841 249 841 249 829.5 261.5 c 128,-1,48
 818 274 818 274 786 284 c 1,49,-1
 736 291 l 2,50,51
 708 291 708 291 703 289 c 2,52,-1
 689 286 l 2,53,54
 686 285 686 285 681 283.5 c 128,-1,55
 676 282 676 282 672 279 c 0,56,57
 663 276 663 276 648 256 c 2,58,-1
 623 220 l 1,59,-1
 611 198 l 1,60,-1
 624 199 l 1,61,-1
 655 198 l 1,62,-1
 668 199 l 2,63,64
 682 199 682 199 696 196 c 128,-1,65
 710 193 710 193 725 188 c 2,66,-1
 737 182 l 1,67,-1
 752 173 l 2,68,69
 760 168 760 168 769 147 c 128,-1,70
 778 126 778 126 778 109 c 2,71,-1
 776 91 l 2,72,73
 776 87 776 87 767 76 c 0,74,75
 751 58 751 58 729 49 c 0,76,77
 709 39 709 39 688 39 c 2,78,-1
 644 44 l 1,79,-1
 607 51 l 1,80,81
 623 -20 623 -20 637 -52 c 0,82,83
 651 -88 651 -88 697 -138 c 0,84,85
 724 -167 724 -167 775 -185.5 c 128,-1,86
 826 -204 826 -204 871 -204 c 2,87,-1
 922 -204 l 1,88,-1
 948 -204 l 1,89,-1
 976 -206 l 1,90,-1
 999 -206 l 1,91,-1
 1034 -201 l 1,92,-1
 1073 -197 l 2,93,94
 1087 -197 1087 -197 1092 -195 c 0,95,96
 1099 -195 1099 -195 1116 -188 c 0,97,98
 1135 -182 1135 -182 1145 -174 c 0,99,100
 1156 -170 1156 -170 1173 -152 c 0,101,102
 1183 -142 1183 -142 1189 -127 c 2,103,-1
 1197 -106 l 2,104,105
 1203 -94 1203 -94 1209 -70 c 2,106,-1
 1213 -30 l 1,20,-1
726 113 m 0,107,108
 729 133 729 133 713.5 144.5 c 128,-1,109
 698 156 698 156 679 161 c 2,110,-1
 655 163 l 2,111,112
 637 163 637 163 623 157 c 0,113,114
 611 150 611 150 606 139 c 2,115,-1
 602 123 l 2,116,117
 602 107 602 107 624 92.5 c 128,-1,118
 646 78 646 78 678 78 c 0,119,120
 718 78 718 78 726 113 c 0,107,108
235 365 m 0,121,122
 235 401 235 401 217 431 c 0,123,124
 198 459 198 459 165 459 c 0,125,126
 137 459 137 459 124 434 c 128,-1,127
 111 409 111 409 111 373 c 0,128,129
 111 331 111 331 125 304 c 0,130,131
 144 270 144 270 175 270 c 256,132,133
 206 270 206 270 222 301 c 0,134,135
 226 308 226 308 230.5 324.5 c 128,-1,136
 235 341 235 341 235 365 c 0,121,122
1107 149 m 1,137,-1
 1147 149 l 2,138,139
 1168 149 1168 149 1188 140 c 0,140,141
 1191 139 1191 139 1202 132 c 128,-1,142
 1213 125 1213 125 1219 120 c 0,143,144
 1264 84 1264 84 1264 -9 c 0,145,146
 1264 -124 1264 -124 1219 -174 c 2,147,-1
 1189 -205 l 2,148,149
 1175 -216 1175 -216 1165 -222 c 2,150,-1
 1104 -242 l 1,151,-1
 1081 -246 l 1,152,-1
 1056 -248 l 1,153,-1
 1029 -248 l 2,154,155
 1013 -248 1013 -248 1003 -250 c 2,156,-1
 924 -256 l 1,157,-1
 909 -256 l 1,158,-1
 886 -256 l 1,159,-1
 866 -256 l 1,160,-1
 856 -255 l 1,161,-1
 801 -246 l 2,162,163
 757 -237 757 -237 735 -227 c 0,164,165
 723 -222 723 -222 708 -214.5 c 128,-1,166
 693 -207 693 -207 674 -195 c 0,167,168
 624 -165 624 -165 587 -71 c 0,169,170
 567 -14 567 -14 556 38.5 c 128,-1,171
 545 91 545 91 545 138 c 1,172,-1
 515 105 l 1,173,-1
 494 81 l 1,174,-1
 459 44 l 1,175,-1
 425 7 l 1,176,-1
 375 -41 l 2,177,178
 370 -47 370 -47 353.5 -53 c 128,-1,179
 337 -59 337 -59 316 -65 c 2,180,-1
 274 -71 l 1,181,-1
 233 -74 l 1,182,183
 143 -74 143 -74 103 -46 c 0,184,185
 58 -13 58 -13 58 70 c 0,186,187
 58 137 58 137 93 175 c 0,188,189
 115 199 115 199 158 212 c 0,190,191
 204 228 204 228 247 228 c 2,192,-1
 306 233 l 1,193,-1
 353 237 l 1,194,-1
 389 241 l 1,195,-1
 474 249 l 2,196,197
 481 250 481 250 499 260.5 c 128,-1,198
 517 271 517 271 530 289 c 1,199,-1
 544 319 l 1,200,-1
 555 346 l 1,201,-1
 559 389 l 2,202,203
 559 405 559 405 557 411 c 0,204,205
 557 419 557 419 552 441 c 0,206,207
 549 461 549 461 539 473 c 0,208,209
 532 487 532 487 520 498 c 2,210,-1
 507 505 l 2,211,212
 498 508 498 508 486 508 c 0,213,214
 469 508 469 508 454 503 c 0,215,216
 439 500 439 500 426 477 c 2,217,-1
 409 450 l 2,218,219
 401 431 401 431 401 422 c 2,220,-1
 401 263 l 1,221,-1
 334 263 l 1,222,-1
 334 428 l 2,223,224
 334 445 334 445 309 476 c 2,225,-1
 289 499 l 2,226,227
 280 509 280 509 269 512 c 2,228,-1
 233 514 l 2,229,230
 186 514 186 514 153 490 c 1,231,-1
 148 485 l 1,232,-1
 146 483 l 1,233,-1
 151 492 l 1,234,-1
 139 489 l 1,235,236
 169 494 169 494 184 494 c 2,237,-1
 198 493 l 2,238,239
 250 488 250 488 269 440 c 0,240,241
 281 401 281 401 281 356 c 0,242,243
 281 294 281 294 251 262 c 0,244,245
 236 249 236 249 218 237 c 0,246,247
 205 230 205 230 181 230 c 2,248,-1
 162 227 l 1,249,250
 133 231 133 231 117 238 c 0,251,252
 113 240 113 240 106.5 245.5 c 128,-1,253
 100 251 100 251 94 257 c 0,254,255
 61 301 61 301 61 392 c 0,256,257
 61 484 61 484 115 532 c 1,258,259
 164 568 164 568 249 568 c 0,260,261
 271 568 271 568 301 554 c 2,262,-1
 329 537 l 1,263,-1
 366 491 l 1,264,265
 383 526 383 526 390.5 537 c 128,-1,266
 398 548 398 548 413 554 c 2,267,-1
 425 557 l 1,268,-1
 451 562 l 1,269,-1
 488 563 l 1,270,-1
 501 563 l 2,271,272
 532 563 532 563 552.5 549 c 128,-1,273
 573 535 573 535 594 499 c 0,274,275
 599 487 599 487 603 474 c 128,-1,276
 607 461 607 461 611 438 c 2,277,-1
 616 405 l 1,278,-1
 618 368 l 2,279,280
 618 329 618 329 602 293 c 0,281,282
 594 273 594 273 572 250 c 2,283,-1
 535 208 l 1,284,285
 512 190 512 190 477 190 c 2,286,-1
 391 187 l 1,287,-1
 330 179 l 1,288,-1
 247 171 l 2,289,290
 185 165 185 165 166 156 c 128,-1,291
 147 147 147 147 130 120 c 0,292,293
 118 96 118 96 118 69 c 0,294,295
 118 49 118 49 129 27 c 2,296,-1
 148 -2 l 2,297,298
 154 -12 154 -12 179 -15 c 2,299,-1
 237 -19 l 2,300,301
 256 -19 256 -19 291 -13 c 0,302,303
 307 -11 307 -11 320 -6.5 c 128,-1,304
 333 -2 333 -2 351 6 c 1,305,-1
 481 135 l 1,306,-1
 522 173 l 1,307,-1
 556 205 l 1,308,-1
 573 224 l 1,309,-1
 588 243 l 1,310,-1
 611 279 l 2,311,312
 623 297 623 297 637.5 312.5 c 128,-1,313
 652 328 652 328 669 332 c 0,314,315
 687 338 687 338 709 338 c 0,316,317
 729 338 729 338 736.5 337.5 c 128,-1,318
 744 337 744 337 770 333.5 c 128,-1,319
 796 330 796 330 807 328.5 c 128,-1,320
 818 327 818 327 829 321 c 2,321,-1
 841 313 l 1,322,-1
 864 295 l 2,323,324
 881 282 881 282 901 230 c 1,325,-1
 924 129 l 1,326,-1
 922 221 l 1,327,-1
 921 332 l 1,328,-1
 1196 332 l 1,329,-1
 1196 282 l 1,330,-1
 1107 284 l 1,331,-1
 1105 227 l 1,332,-1
 1104 186 l 2,333,334
 1104 163 1104 163 1104.5 158 c 128,-1,335
 1105 153 1105 153 1107 149 c 1,137,-1
EndSplineSet
Ligature2: "'akhn' Akhand lookup 1-1" u1131C u1134D u1131E
EndChar

StartChar: u1134D
Encoding: 70477 70477 17
Width: 48
Flags: MW
LayerCount: 2
Fore
SplineSet
44 887 m 1,0,-1
 -153 888 l 1,1,-1
 -178 890 l 1,2,-1
 -197 889 l 1,3,-1
 -219 889 l 1,4,-1
 -231 889 l 1,5,-1
 -243 891 l 1,6,-1
 -255 892 l 1,7,-1
 -272 891 l 2,8,9
 -279 891 -279 891 -284 887 c 2,10,-1
 -295 883 l 2,11,12
 -306 880 -306 880 -318 871 c 0,13,14
 -327 862 -327 862 -330 851 c 0,15,16
 -330 833 -330 833 -328 831 c 2,17,-1
 -315 810 l 2,18,19
 -312 800 -312 800 -295 783 c 0,20,21
 -281 769 -281 769 -264 767 c 2,22,-1
 -223 752 l 1,23,-1
 -95 752 l 1,24,-1
 -95 683 l 1,25,-1
 -168 682 l 2,26,27
 -210 682 -210 682 -214 680 c 2,28,-1
 -231 679 l 1,29,-1
 -248 679 l 1,30,-1
 -266 680 l 2,31,32
 -278 680 -278 680 -281 678 c 0,33,34
 -304 672 -304 672 -314 658.5 c 128,-1,35
 -324 645 -324 645 -324 623 c 0,36,37
 -324 607 -324 607 -313 596 c 2,38,-1
 -289 576 l 1,39,-1
 -268 562 l 1,40,41
 -252 557 -252 557 -235 555 c 2,42,-1
 -216 554 l 1,43,-1
 -194 553 l 2,44,45
 -181 553 -181 553 -168.5 554 c 128,-1,46
 -156 555 -156 555 -145 558 c 1,47,-1
 -145 490 l 1,48,-1
 -201 490 l 1,49,-1
 -216 488 l 1,50,-1
 -251 489 l 2,51,52
 -262 489 -262 489 -277 495 c 0,53,54
 -300 501 -300 501 -332 522.5 c 128,-1,55
 -364 544 -364 544 -380 566 c 0,56,57
 -396 592 -396 592 -396 623 c 2,58,-1
 -395 653 l 1,59,-1
 -392 679 l 2,60,61
 -389 691 -389 691 -368 711 c 1,62,-1
 -296 736 l 1,63,-1
 -293 707 l 1,64,-1
 -305 708 l 1,65,-1
 -297 708 l 1,66,-1
 -299 713 l 1,67,68
 -340 734 -340 734 -368 765 c 0,69,70
 -405 808 -405 808 -405 854 c 0,71,72
 -405 892 -405 892 -388.5 913 c 128,-1,73
 -372 934 -372 934 -329 950 c 1,74,-1
 -297 958 l 1,75,-1
 -265 960 l 1,76,-1
 -239 959 l 1,77,-1
 -210 959 l 1,78,-1
 41 960 l 1,79,-1
 44 887 l 1,0,-1
EndSplineSet
EndChar

StartChar: u11347
Encoding: 70471 70471 18
Width: 714
Flags: MW
LayerCount: 2
Fore
SplineSet
546 441 m 0,0,1
 536 474 536 474 504 508 c 0,2,3
 482 531 482 531 454 548 c 0,4,5
 432 561 432 561 416 566 c 0,6,7
 382 576 382 576 370 576 c 0,8,9
 306 578 306 578 264 558 c 0,10,11
 244 549 244 549 192 497 c 0,12,13
 156 461 156 461 135.5 418 c 0,14,15
 112.660071942 367.244604317 112.660071942 367.244604317 112 325 c 2,16,-1
 111 261 l 2,17,18
 110.009159034 203.53122398 110.009159034 203.53122398 121 181 c 2,19,-1
 141 140 l 2,20,21
 155 111 155 111 190 88 c 0,22,23
 220 68 220 68 257 68 c 0,24,25
 282 68 282 68 303 74.5 c 0,26,27
 318 79 318 79 341 95 c 0,28,29
 359.809236948 107.869477912 359.809236948 107.869477912 363 122 c 2,30,-1
 370 153 l 1,31,-1
 376 189 l 1,32,-1
 374 209 l 1,33,-1
 368 228 l 1,34,-1
 359 241 l 1,35,-1
 340 263 l 1,36,-1
 318 272 l 1,37,-1
 301 278 l 1,38,-1
 270 276 l 2,39,40
 256 275 256 275 241 270 c 0,41,42
 229.888324873 265.959390863 229.888324873 265.959390863 222 253 c 2,43,-1
 208 230 l 1,44,-1
 204 205 l 1,45,-1
 206 193 l 1,46,-1
 214 176 l 1,47,-1
 226 160 l 1,48,-1
 236 153 l 1,49,-1
 282 136 l 1,50,-1
 229 109 l 1,51,-1
 211 109 l 1,52,53
 189.708333333 115.083333333 189.708333333 115.083333333 181 127 c 2,54,-1
 162 153 l 1,55,-1
 149 177 l 2,56,57
 137 199 137 199 137 215 c 0,58,59
 137 271 137 271 181 309.5 c 128,-1,60
 225 348 225 348 272 348 c 0,61,62
 347 348 347 348 398 300.5 c 128,-1,63
 449 253 449 253 449 179 c 0,64,65
 449 115 449 115 410 64 c 0,66,67
 361 0 361 0 259 0 c 0,68,69
 161 0 161 0 97 90 c 0,70,71
 40 170 40 170 40 287 c 0,72,73
 40 428 40 428 133 533 c 128,-1,74
 226 638 226 638 363 638 c 0,75,76
 484 638 484 638 572 547 c 1,77,-1
 607 499 l 1,78,-1
 624 461 l 2,79,80
 635.262798635 435.402730375 635.262798635 435.402730375 639 407 c 2,81,-1
 644 369 l 1,82,-1
 645 347 l 1,83,-1
 644 320 l 1,84,-1
 644 291 l 1,85,-1
 644 10 l 5,86,-1
 645 0 l 5,87,-1
 570 0 l 5,88,-1
 570 261 l 1,89,-1
 563 347 l 2,90,91
 566 365 566 365 563 375 c 128,-1,92
 560 385 560 385 558.5 395 c 0,93,94
 557 404 557 404 555 411 c 128,-1,95
 553 418 553 418 546 441 c 0,0,1
EndSplineSet
EndChar

StartChar: u11357
Encoding: 70487 70487 19
Width: 696
Flags: MW
LayerCount: 2
Fore
SplineSet
628 465 m 1,0,-1
 565 468 l 1,1,-1
 565 0 l 1,2,-1
 502 0 l 1,3,-1
 502 468 l 1,4,-1
 458 468 l 1,5,-1
 414 464 l 2,6,7
 411 463 411 463 408.5 462.5 c 0,8,9
 404 462 404 462 401 458 c 0,10,11
 396 451 396 451 396 424 c 2,12,-1
 396 411 l 1,13,-1
 396 0 l 1,14,-1
 334 0 l 1,15,-1
 334 369 l 1,16,-1
 334 383 l 2,17,18
 334 388 334 388 332 402 c 0,19,20
 330 418 330 418 324 428 c 0,21,22
 315 446 315 446 277 458.5 c 128,-1,23
 239 471 239 471 208 471 c 0,24,25
 192 471 192 471 171 460 c 0,26,27
 156 452 156 452 142 433 c 1,28,-1
 118 373 l 1,29,-1
 112 350 l 1,30,-1
 108 324 l 1,31,-1
 105 276 l 1,32,-1
 96 284 l 1,33,34
 128 308 128 308 140 310 c 2,35,-1
 158 313 l 1,36,-1
 179 315 l 2,37,38
 215 318 215 318 239.5 290.5 c 0,39,40
 261 266 261 266 270 229 c 1,41,-1
 275 190 l 1,42,-1
 277 140 l 2,43,44
 280 75 280 75 253 41 c 0,45,46
 241 25 241 25 213.5 12.5 c 128,-1,47
 186 0 186 0 150 0 c 4,48,49
 93 0 93 0 62 80 c 1,50,51
 45 137 45 137 45 201 c 0,52,53
 45 394 45 394 91 465 c 0,54,55
 132 529 132 529 223 529 c 0,56,57
 248 529 248 529 269 524 c 128,-1,58
 290 519 290 519 299.5 515.5 c 0,59,60
 317.735241503 509.093023256 317.735241503 509.093023256 325 503 c 2,61,-1
 356 477 l 1,62,-1
 352 477 l 1,63,-1
 365 498 l 2,64,65
 376 516 376 516 400 525 c 1,66,-1
 450 528 l 1,67,-1
 582 528 l 1,68,-1
 603 529 l 1,69,-1
 628 529 l 1,70,-1
 628 465 l 1,0,-1
210 86 m 0,71,72
 224 108 224 108 224 154 c 0,73,74
 224 192 224 192 210 214 c 2,75,-1
 200 233 l 2,76,77
 191 251 191 251 175 255 c 0,78,79
 154 258 154 258 139.5 249.5 c 128,-1,80
 125 241 125 241 113 224 c 0,81,82
 103 207 103 207 103 173 c 0,83,84
 103 130 103 130 119 104 c 2,85,-1
 136 74 l 2,86,87
 145 60 145 60 162 60 c 0,88,89
 193 57 193 57 210 86 c 0,71,72
EndSplineSet
EndChar

StartChar: u1133E
Encoding: 70462 70462 20
Width: 456
Flags: MW
LayerCount: 2
Fore
SplineSet
426 459 m 1,0,-1
 328 458 l 1,1,-1
 327 0 l 1,2,-1
 267 0 l 1,3,-1
 267 455 l 1,4,-1
 121 455 l 1,5,-1
 120 0 l 1,6,-1
 60 0 l 1,7,-1
 60 515 l 1,8,-1
 426 516 l 1,9,-1
 426 459 l 1,0,-1
EndSplineSet
EndChar

StartChar: u11343
Encoding: 70467 70467 21
Width: 504
Flags: MW
LayerCount: 2
Fore
SplineSet
492 435 m 1,0,-1
 400 435 l 1,1,-1
 348 -47 l 2,2,3
 339 -106 339 -106 327 -131 c 128,-1,4
 315 -156 315 -156 286 -176 c 0,5,6
 257 -198 257 -198 242.5 -203 c 128,-1,7
 228 -208 228 -208 211 -210 c 2,8,-1
 178 -209 l 2,9,10
 147 -209 147 -209 117 -194 c 2,11,-1
 77 -168 l 2,12,13
 61 -159 61 -159 47 -127 c 2,14,-1
 38 -99 l 1,15,-1
 34 -73 l 1,16,17
 34 -46 34 -46 52 -23 c 0,18,19
 70 -3 70 -3 96 4 c 2,20,-1
 116 7 l 2,21,22
 129 7 129 7 137 3 c 2,23,-1
 158 -6 l 1,24,-1
 177 -18 l 2,25,26
 189 -27 189 -27 195.5 -40 c 128,-1,27
 202 -53 202 -53 202 -69 c 2,28,-1
 202 -85 l 1,29,-1
 197 -103 l 2,30,31
 196 -112 196 -112 187 -126 c 1,32,-1
 176 -130 l 1,33,-1
 162 -124 l 1,34,-1
 148 -114 l 2,35,36
 142 -111 142 -111 138 -91 c 0,37,38
 138 -75 138 -75 133 -67 c 128,-1,39
 128 -59 128 -59 118 -58 c 1,40,-1
 108 -62 l 1,41,-1
 104 -75 l 1,42,43
 104 -93 104 -93 117 -105 c 2,44,-1
 128 -118 l 2,45,46
 140 -130 140 -130 150 -134 c 2,47,-1
 177 -141 l 2,48,49
 194 -147 194 -147 203 -147 c 2,50,-1
 220 -145 l 2,51,52
 227 -145 227 -145 243 -129 c 0,53,54
 253 -120 253 -120 263 -94 c 2,55,-1
 269 -77 l 1,56,-1
 274 -67 l 1,57,-1
 282 -29 l 1,58,-1
 331 435 l 1,59,-1
 207 435 l 1,60,-1
 207 498 l 1,61,-1
 492 498 l 1,62,-1
 492 435 l 1,0,-1
EndSplineSet
EndChar

StartChar: u11344
Encoding: 70468 70468 22
Width: 618
Flags: MW
LayerCount: 2
Fore
SplineSet
570 237 m 1,0,-1
 465 235 l 1,1,-1
 430 -47 l 1,2,-1
 418 -118 l 2,3,4
 409 -150 409 -150 376 -179 c 0,5,6
 352 -198 352 -198 319 -210 c 0,7,8
 298 -216 298 -216 267 -216 c 2,9,-1
 243 -215 l 1,10,-1
 220 -215 l 1,11,-1
 195 -215 l 1,12,-1
 176 -215 l 1,13,-1
 159 -213 l 2,14,15
 135 -213 135 -213 111 -204 c 0,16,17
 91 -198 91 -198 71 -183 c 2,18,-1
 50 -162 l 2,19,20
 35 -147 35 -147 29 -119 c 128,-1,21
 23 -91 23 -91 23 -61 c 0,22,23
 23 -33 23 -33 26 -20.5 c 128,-1,24
 29 -8 29 -8 38 6 c 1,25,-1
 54 20 l 1,26,-1
 77 29 l 1,27,-1
 101 33 l 2,28,29
 107 33 107 33 127 23 c 2,30,-1
 144 14 l 2,31,32
 153 9 153 9 159 -2.5 c 128,-1,33
 165 -14 165 -14 165 -30 c 0,34,35
 165 -54 165 -54 168 -66 c 1,36,-1
 161 -12 l 1,37,38
 164 1 164 1 184.5 12.5 c 128,-1,39
 205 24 205 24 228 29 c 0,40,41
 255 32 255 32 277 13 c 0,42,43
 282 8 282 8 288 -9 c 2,44,-1
 293 -34 l 1,45,-1
 296 -57 l 1,46,-1
 293 -83 l 1,47,-1
 289 -115 l 1,48,-1
 243 -117 l 1,49,-1
 243 -100 l 1,50,-1
 244 -76 l 1,51,-1
 246 -57 l 2,52,53
 246 -33 246 -33 238 -33 c 256,54,55
 230 -33 230 -33 223 -37 c 128,-1,56
 216 -41 216 -41 211 -49 c 2,57,-1
 189 -120 l 1,58,-1
 163 -125 l 2,59,60
 154 -125 154 -125 143 -118 c 1,61,-1
 151 -106 l 1,62,-1
 140 -117 l 1,63,64
 137 -114 137 -114 126 -75 c 0,65,66
 120 -40 120 -40 116 -36 c 0,67,68
 109 -26 109 -26 99 -26 c 0,69,70
 93 -26 93 -26 88 -31 c 1,71,-1
 84 -56 l 1,72,-1
 84 -81 l 1,73,-1
 89 -106 l 2,74,75
 90 -119 90 -119 97.5 -127.5 c 128,-1,76
 105 -136 105 -136 120 -146 c 2,77,-1
 149 -159 l 1,78,-1
 188 -163 l 1,79,-1
 221 -164 l 2,80,81
 238 -164 238 -164 256 -164 c 0,82,83
 268 -161 268 -161 281 -159 c 128,-1,84
 294 -157 294 -157 317 -147 c 0,85,86
 352 -133 352 -133 353 -118 c 2,87,-1
 366 -26 l 1,88,-1
 398 235 l 1,89,-1
 255 235 l 1,90,-1
 255 298 l 1,91,-1
 570 300 l 1,92,-1
 570 237 l 1,0,-1
EndSplineSet
EndChar

StartChar: u11341
Encoding: 70465 70465 23
Width: 612
Flags: MW
LayerCount: 2
Fore
SplineSet
504 309 m 2,0,1
 504 274 504 274 482.5 249.5 c 128,-1,2
 461 225 461 225 425 219 c 2,3,-1
 412 218 l 2,4,5
 375 218 375 218 346.5 243.5 c 128,-1,6
 318 269 318 269 318 306 c 2,7,-1
 318 459 l 1,8,-1
 -41 459 l 1,9,-1
 -41 516 l 1,10,-1
 504 516 l 1,11,-1
 504 309 l 2,0,1
456 310 m 2,12,-1
 456 459 l 1,13,-1
 369 459 l 1,14,-1
 369 309 l 2,15,16
 369 291 369 291 383.5 280.5 c 128,-1,17
 398 270 398 270 418 270 c 0,18,19
 432 271 432 271 442.5 281 c 128,-1,20
 453 291 453 291 456 310 c 2,12,-1
EndSplineSet
EndChar

StartChar: u11342
Encoding: 70466 70466 24
Width: 804
Flags: MW
LayerCount: 2
Fore
SplineSet
713 393 m 1,0,-1
 713 345 l 2,1,2
 713 306 713 306 707 278.5 c 128,-1,3
 701 251 701 251 681 220.5 c 128,-1,4
 661 190 661 190 634 170 c 0,5,6
 613 155 613 155 572 136 c 1,7,-1
 519 118 l 1,8,-1
 461 114 l 1,9,-1
 447 114 l 1,10,-1
 435 114 l 2,11,12
 390 114 390 114 374 119 c 0,13,14
 331 127 331 127 298 157 c 2,15,-1
 266 191 l 2,16,17
 258 202 258 202 245.5 235.5 c 128,-1,18
 233 269 233 269 224 309 c 0,19,20
 218 344 218 344 218 390 c 2,21,-1
 217 430 l 1,22,-1
 217 441 l 1,23,-1
 217 451 l 1,24,-1
 215 462 l 1,25,-1
 -62 462 l 1,26,-1
 -55 513 l 1,27,-1
 362 513 l 1,28,-1
 362 551 l 1,29,-1
 371 586 l 2,30,31
 374 600 374 600 390.5 622 c 128,-1,32
 407 644 407 644 430.5 658.5 c 128,-1,33
 454 673 454 673 475 677 c 2,34,-1
 521 681 l 2,35,36
 552 681 552 681 569 673 c 0,37,38
 588 667 588 667 616 648 c 0,39,40
 651 625 651 625 670 592 c 0,41,42
 684 567 684 567 700 518 c 1,43,-1
 710 471 l 1,44,-1
 713 427 l 1,45,-1
 713 393 l 1,0,-1
656 387 m 1,46,-1
 656 418 l 1,47,-1
 656 439 l 2,48,49
 656 455 656 455 654 463 c 0,50,51
 654 473 654 473 645 503 c 2,52,-1
 626 563 l 2,53,54
 614 592 614 592 588 608 c 0,55,56
 571 619 571 619 554 623 c 2,57,-1
 516 627 l 2,58,59
 494 627 494 627 482.5 623.5 c 128,-1,60
 471 620 471 620 456 607 c 2,61,-1
 436 590 l 2,62,63
 430 584 430 584 428 572 c 2,64,-1
 428 516 l 1,65,-1
 557 516 l 1,66,-1
 557 268 l 1,67,68
 520 219 520 219 467 219 c 0,69,70
 398 219 398 219 365 285 c 1,71,-1
 365 465 l 1,72,-1
 271 465 l 1,73,-1
 272 409 l 1,74,-1
 279 357 l 2,75,76
 279 334 279 334 286 306 c 0,77,78
 292 275 292 275 303 259 c 2,79,-1
 321 223 l 2,80,81
 324 218 324 218 330 209 c 128,-1,82
 336 200 336 200 342 194 c 0,83,84
 360 179 360 179 381 173 c 2,85,-1
 403 169 l 1,86,-1
 433 168 l 1,87,-1
 458 168 l 2,88,89
 503 168 503 168 542 183 c 2,90,-1
 567 193 l 2,91,92
 587 202 587 202 596 209 c 0,93,94
 617 223 617 223 635 248 c 0,95,96
 643 262 643 262 651 285 c 0,97,98
 658 311 658 311 658 330 c 2,99,-1
 657 362 l 1,100,-1
 656 387 l 1,46,-1
500 298 m 1,101,-1
 500 462 l 1,102,-1
 422 462 l 1,103,-1
 422 304 l 1,104,105
 434 276 434 276 464 276 c 0,106,107
 488 276 488 276 500 298 c 1,101,-1
EndSplineSet
EndChar

StartChar: eight
Encoding: 56 56 25
Width: 447
Flags: MW
LayerCount: 2
Fore
SplineSet
420 -6 m 2,0,1
 435 -42 435 -42 435 -95 c 0,2,3
 435 -143 435 -143 423 -188.5 c 128,-1,4
 411 -234 411 -234 391 -255 c 0,5,6
 383 -261 383 -261 347 -275 c 1,7,-1
 317 -282 l 1,8,-1
 285 -285 l 2,9,10
 252 -285 252 -285 222 -267 c 128,-1,11
 192 -249 192 -249 173 -218 c 2,12,-1
 158 -190 l 2,13,14
 152 -178 152 -178 152 -165 c 0,15,16
 152 -149 152 -149 165 -117 c 1,17,-1
 186 -80 l 2,18,19
 193 -68 193 -68 196 -53 c 0,20,21
 196 -44 196 -44 192 -36 c 0,22,23
 183 -12 183 -12 165 -7 c 2,24,-1
 139 -5 l 2,25,26
 114 -5 114 -5 99 -26 c 1,27,-1
 90 -44 l 2,28,29
 87 -53 87 -53 87 -67 c 2,30,-1
 87 -80 l 2,31,32
 87 -84 87 -84 87 -88 c 0,33,34
 85 -93 85 -93 85 -95 c 2,35,-1
 81 -110 l 1,36,-1
 70 -138 l 1,37,-1
 19 -121 l 1,38,-1
 19 -84 l 1,39,-1
 23 -47 l 1,40,-1
 28 -25 l 1,41,-1
 40 6 l 2,42,43
 48 26 48 26 82 44 c 1,44,-1
 115 56 l 1,45,-1
 150 60 l 2,46,47
 174 60 174 60 198 47.5 c 128,-1,48
 222 35 222 35 241 9.5 c 128,-1,49
 260 -16 260 -16 260 -42 c 0,50,51
 260 -61 260 -61 255 -72 c 0,52,53
 253 -82 253 -82 222 -146 c 1,54,-1
 220 -155 l 1,55,-1
 221 -166 l 1,56,-1
 225 -177 l 2,57,58
 227 -185 227 -185 236 -192 c 2,59,-1
 255 -204 l 2,60,61
 278 -216 278 -216 302 -216 c 0,62,63
 318 -216 318 -216 327 -211 c 0,64,65
 333 -209 333 -209 336 -207 c 128,-1,66
 339 -205 339 -205 347 -196 c 128,-1,67
 355 -187 355 -187 362 -159 c 0,68,69
 365 -144 365 -144 367 -132 c 128,-1,70
 369 -120 369 -120 369 -106 c 2,71,-1
 366 -72 l 2,72,73
 360 -39 360 -39 342 8 c 2,74,-1
 320 62 l 1,75,-1
 300 105 l 2,76,77
 281 151 281 151 243 220 c 2,78,-1
 179 342 l 2,79,80
 173 360 173 360 161 375 c 2,81,-1
 143 403 l 1,82,-1
 134 419 l 1,83,-1
 131 423 l 1,84,-1
 129 412 l 1,85,-1
 163 446 l 1,86,-1
 164 449 l 1,87,-1
 171 450 l 2,88,89
 180 450 180 450 189 445 c 128,-1,90
 198 440 198 440 207 426 c 2,91,-1
 269 319 l 1,92,-1
 306 254 l 2,93,94
 325 216 325 216 336 187 c 2,95,-1
 420 -6 l 2,0,1
EndSplineSet
EndChar

StartChar: nine
Encoding: 57 57 26
Width: 528
Flags: MW
LayerCount: 2
Fore
SplineSet
471 322 m 2,0,1
 466 283 466 283 451 262 c 0,2,3
 439 242 439 242 409 225 c 0,4,5
 379 211 379 211 355 211 c 0,6,7
 328 211 328 211 293 230 c 0,8,9
 266 245 266 245 252.5 262 c 128,-1,10
 239 279 239 279 233 299 c 2,11,-1
 228 325 l 1,12,-1
 227 347 l 2,13,14
 227 380 227 380 243 408 c 1,15,-1
 -54 408 l 1,16,-1
 -54 462 l 1,17,-1
 268 462 l 1,18,-1
 290 496 l 1,19,-1
 306 526 l 2,20,21
 312 537 312 537 315 551 c 2,22,-1
 318 577 l 2,23,24
 318 595 318 595 313 609 c 2,25,-1
 304 637 l 1,26,-1
 290 662 l 1,27,-1
 256 714 l 1,28,-1
 298 750 l 1,29,-1
 323 733 l 1,30,-1
 338 718 l 2,31,32
 350 704 350 704 360 685 c 2,33,-1
 366 670 l 1,34,-1
 374 643 l 2,35,36
 379 625 379 625 382 608 c 128,-1,37
 385 591 385 591 385 575 c 2,38,-1
 385 551 l 1,39,-1
 381 534 l 2,40,41
 378 510 378 510 370 495 c 0,42,43
 363 477 363 477 351 459 c 1,44,-1
 382 459 l 1,45,46
 415 451 415 451 440 424 c 0,47,48
 472 390 472 390 472 341 c 2,49,-1
 471 322 l 2,0,1
406 319 m 1,50,-1
 408 335 l 2,51,52
 408 357 408 357 390.5 378 c 128,-1,53
 373 399 373 399 348 399 c 0,54,55
 325 399 325 399 308 382 c 128,-1,56
 291 365 291 365 291 341 c 0,57,58
 291 318 291 318 306 295 c 0,59,60
 322 276 322 276 346 276 c 0,61,62
 393 276 393 276 406 319 c 1,50,-1
EndSplineSet
EndChar

StartChar: uniE10E
Encoding: 57614 57614 27
Width: 936
Flags: MW
LayerCount: 2
Fore
SplineSet
850 277 m 1,0,-1
 850 239 l 1,1,-1
 850 215 l 1,2,-1
 849 197 l 1,3,-1
 840 121 l 2,4,5
 840 113 840 113 840 105 c 0,6,7
 837 97 837 97 836 94 c 2,8,-1
 828 71 l 2,9,10
 827 68 827 68 824 61.5 c 128,-1,11
 821 55 821 55 811 43 c 0,12,13
 796 18 796 18 778 4 c 2,14,-1
 749 -16 l 1,15,-1
 715 -35 l 1,16,-1
 664 -44 l 1,17,-1
 590 -58 l 1,18,-1
 544 -63 l 2,19,20
 519 -66 519 -66 510 -71 c 2,21,-1
 497 -77 l 2,22,23
 493 -80 493 -80 481 -98 c 1,24,-1
 475 -124 l 1,25,26
 475 -157 475 -157 501 -184 c 1,27,-1
 552 -204 l 2,28,29
 566 -208 566 -208 574 -208.5 c 128,-1,30
 582 -209 582 -209 591 -209 c 2,31,-1
 634 -206 l 1,32,-1
 676 -194 l 1,33,-1
 691 -188 l 2,34,35
 698 -186 698 -186 703 -179 c 2,36,-1
 710 -167 l 2,37,38
 716 -157 716 -157 714 -146 c 2,39,-1
 697 -105 l 2,40,41
 696 -100 696 -100 695 -99 c 2,42,-1
 689 -90 l 1,43,-1
 680 -69 l 1,44,-1
 735 -59 l 1,45,-1
 745 -78 l 1,46,-1
 755 -94 l 1,47,-1
 769 -132 l 1,48,-1
 770 -143 l 1,49,-1
 771 -154 l 2,50,51
 771 -169 771 -169 762 -186 c 2,52,-1
 740 -228 l 1,53,-1
 724 -235 l 1,54,-1
 684 -250 l 2,55,56
 648 -263 648 -263 591 -263 c 0,57,58
 548 -263 548 -263 524 -253 c 2,59,-1
 476 -232 l 2,60,61
 449 -220 449 -220 430 -183 c 0,62,63
 413 -146 413 -146 413 -109 c 0,64,65
 413 -83 413 -83 424 -63 c 0,66,67
 435 -47 435 -47 457 -30 c 1,68,-1
 492 -17 l 2,69,70
 504 -14 504 -14 514.5 -12 c 128,-1,71
 525 -10 525 -10 538 -10 c 2,72,-1
 568 -7 l 1,73,-1
 597 -4 l 1,74,-1
 610 -1 l 1,75,-1
 645 7 l 1,76,-1
 680 15 l 2,77,78
 707 22 707 22 725 35 c 1,79,80
 738 38 738 38 750 50 c 0,81,82
 758 56 758 56 768 74 c 1,83,-1
 781 117 l 1,84,-1
 787 145 l 1,85,-1
 794 260 l 1,86,-1
 796 309 l 1,87,-1
 794 333 l 1,88,-1
 796 356 l 1,89,-1
 794 384 l 1,90,-1
 791 406 l 1,91,-1
 787 423 l 2,92,93
 787 431 787 431 780 439 c 2,94,-1
 769 453 l 1,95,-1
 764 460 l 2,96,97
 759 471 759 471 749 472 c 2,98,-1
 742 472 l 1,99,-1
 733 473 l 1,100,-1
 720 470 l 2,101,102
 714 469 714 469 708 460 c 2,103,-1
 698 431 l 1,104,-1
 696 421 l 1,105,-1
 695 406 l 1,106,-1
 695 58 l 1,107,-1
 639 58 l 1,108,-1
 639 408 l 1,109,-1
 639 420 l 2,110,111
 639 427 639 427 637 437.5 c 128,-1,112
 635 448 635 448 629 458 c 0,113,114
 618 479 618 479 591 479 c 0,115,116
 577 479 577 479 565 454 c 1,117,-1
 560 432 l 1,118,-1
 558 408 l 1,119,-1
 558 75 l 1,120,-1
 558 37 l 1,121,-1
 236 37 l 1,122,-1
 236 73 l 1,123,-1
 264 96 l 1,124,-1
 284 118 l 2,125,126
 291 125 291 125 299 144 c 2,127,-1
 308 168 l 2,128,129
 313 184 313 184 316 210 c 2,130,-1
 322 270 l 1,131,-1
 328 304 l 1,132,-1
 329 326 l 1,133,-1
 327 360 l 1,134,-1
 320 385 l 2,135,136
 319 397 319 397 310 411 c 1,137,138
 309 422 309 422 296 439.5 c 128,-1,139
 283 457 283 457 276 459 c 2,140,-1
 256 464 l 1,141,-1
 208 470 l 2,142,143
 192 470 192 470 181 466 c 2,144,-1
 156 455 l 2,145,146
 144 450 144 450 134 440.5 c 128,-1,147
 124 431 124 431 115 416 c 1,148,-1
 110 396 l 2,149,150
 108 379 108 379 105 375 c 2,151,-1
 100 357 l 1,152,-1
 96 342 l 1,153,-1
 90 324 l 1,154,-1
 87 308 l 1,155,-1
 84 291 l 1,156,-1
 83 286 l 1,157,-1
 87 291 l 1,158,159
 102 302 102 302 117 308 c 2,160,-1
 136 315 l 1,161,-1
 161 318 l 1,162,163
 207 318 207 318 232 272 c 0,164,165
 254 235 254 235 254 171 c 2,166,-1
 253 137 l 1,167,-1
 252 125 l 1,168,-1
 246 108 l 2,169,170
 234 73 234 73 203 53 c 0,171,172
 174 36 174 36 150 36 c 0,173,174
 120 36 120 36 108 40.5 c 128,-1,175
 96 45 96 45 87 51.5 c 128,-1,176
 78 58 78 58 69 69 c 2,177,-1
 48 93 l 1,178,-1
 38 111 l 1,179,-1
 31 130 l 1,180,-1
 28 154 l 1,181,-1
 26 174 l 1,182,-1
 25 196 l 2,183,184
 25 205 25 205 23 207 c 2,185,-1
 23 258 l 1,186,-1
 26 299 l 1,187,-1
 36 349 l 2,188,189
 37 355 37 355 42 372.5 c 128,-1,190
 47 390 47 390 55 415 c 0,191,192
 71 464 71 464 112.5 496 c 128,-1,193
 154 528 154 528 212 528 c 0,194,195
 249 528 249 528 277 517 c 0,196,197
 287 514 287 514 296 508.5 c 128,-1,198
 305 503 305 503 320 492 c 0,199,200
 356 469 356 469 371 413 c 0,201,202
 376 387 376 387 379 350 c 128,-1,203
 382 313 382 313 382 270 c 0,204,205
 382 244 382 244 379 222 c 128,-1,206
 376 200 376 200 368 177 c 2,207,-1
 364 164 l 2,208,209
 363 161 363 161 362 156.5 c 128,-1,210
 361 152 361 152 358 147 c 2,211,-1
 344 118 l 1,212,-1
 333 98 l 1,213,-1
 322 81 l 2,214,215
 319 76 319 76 314 76 c 1,216,-1
 320 88 l 1,217,-1
 503 89 l 1,218,-1
 502 419 l 2,219,220
 502 429 502 429 507 440 c 1,221,222
 507 453 507 453 512 463 c 0,223,224
 515 474 515 474 526 489 c 2,225,-1
 535 501 l 1,226,-1
 546 512 l 2,227,228
 564 527 564 527 588 527 c 2,229,-1
 623 524 l 1,230,-1
 639 517 l 1,231,-1
 656 506 l 1,232,-1
 670 483 l 1,233,-1
 671 477 l 1,234,-1
 668 475 l 1,235,-1
 660 480 l 1,236,-1
 658 468 l 1,237,-1
 660 475 l 1,238,-1
 662 484 l 1,239,-1
 667 493 l 2,240,241
 674 509 674 509 692 515 c 2,242,-1
 715 524 l 1,243,-1
 740 531 l 1,244,245
 755 531 755 531 769 522 c 2,246,-1
 791 505 l 2,247,248
 798 501 798 501 818 473 c 2,249,-1
 827 459 l 1,250,-1
 839 437 l 2,251,252
 842 428 842 428 845 415.5 c 128,-1,253
 848 403 848 403 848 394 c 2,254,-1
 850 277 l 1,0,-1
205 225 m 0,255,256
 197 258 197 258 169 268 c 1,257,-1
 152 271 l 2,258,259
 134 271 134 271 117.5 259 c 128,-1,260
 101 247 101 247 88 222 c 2,261,-1
 80 200 l 1,262,-1
 76 180 l 1,263,264
 76 158 76 158 86 135 c 2,265,-1
 105 100 l 2,266,267
 114 87 114 87 129 82 c 1,268,-1
 149 81 l 2,269,270
 173 81 173 81 187 96 c 0,271,272
 211 120 211 120 211 174 c 0,273,274
 211 190 211 190 210 201 c 128,-1,275
 209 212 209 212 205 225 c 0,255,256
EndSplineSet
Ligature2: "'akhn' Akhand lookup 1-1" u11339 u1134D u1132E
EndChar

StartChar: u11302
Encoding: 70402 70402 28
Width: 498
Flags: MW
LayerCount: 2
Fore
SplineSet
429 240 m 0,0,1
 429 223 429 223 426 205.5 c 128,-1,2
 423 188 423 188 415 168 c 0,3,4
 401 128 401 128 378.5 105.5 c 128,-1,5
 356 83 356 83 308.5 64 c 128,-1,6
 261 45 261 45 228 45 c 0,7,8
 197 45 197 45 157 65 c 128,-1,9
 117 85 117 85 93.5 108.5 c 128,-1,10
 70 132 70 132 53 172 c 0,11,12
 39 212 39 212 39 246 c 0,13,14
 39 283 39 283 51 319 c 128,-1,15
 63 355 63 355 85 377 c 128,-1,16
 107 399 107 399 155.5 423 c 128,-1,17
 204 447 204 447 234 447 c 0,18,19
 267 447 267 447 312 425 c 128,-1,20
 357 403 357 403 383 377 c 0,21,22
 404 356 404 356 416.5 313 c 128,-1,23
 429 270 429 270 429 240 c 0,0,1
345 234 m 0,24,25
 345 259 345 259 339 285 c 128,-1,26
 333 311 333 311 321.5 322.5 c 128,-1,27
 310 334 310 334 281 350 c 0,28,29
 276 353 276 353 261 358 c 128,-1,30
 246 363 246 363 234 363 c 0,31,32
 225 363 225 363 214 360 c 128,-1,33
 203 357 203 357 188 350 c 0,34,35
 161 338 161 338 149 326 c 0,36,37
 140 315 140 315 129 291 c 0,38,39
 123 270 123 270 123 246 c 0,40,41
 123 228 123 228 124.5 221 c 128,-1,42
 126 214 126 214 132.5 196 c 128,-1,43
 139 178 139 178 155 161 c 0,44,45
 185 129 185 129 228 129 c 0,46,47
 241 129 241 129 247 130 c 128,-1,48
 253 131 253 131 269 137 c 0,49,50
 292 146 292 146 308 162 c 2,51,-1
 321 175 l 1,52,-1
 335 198 l 2,53,54
 345 216 345 216 345 234 c 0,24,25
EndSplineSet
EndChar

StartChar: uniE401
Encoding: 58369 58369 29
Width: 777
Flags: MW
LayerCount: 2
Fore
SplineSet
532 506 m 1,0,1
 612 477 612 477 658 412 c 0,2,3
 701 351 701 351 701 277 c 0,4,5
 701 184 701 184 634 120 c 0,6,7
 599 88 599 88 547 69 c 128,-1,8
 495 50 495 50 428 50 c 1,9,10
 379 -37 379 -37 369 -46 c 0,11,12
 328 -92 328 -92 258 -92 c 0,13,14
 170 -92 170 -92 128 -65 c 0,15,16
 105 -49 105 -49 93 -6 c 1,17,-1
 92 8 l 2,18,19
 92 48 92 48 152 69 c 0,20,21
 199 84 199 84 276 84 c 2,22,-1
 348 81 l 1,23,-1
 395 74 l 1,24,25
 413 88 413 88 425 130 c 128,-1,26
 437 172 437 172 437 222 c 0,27,28
 437 270 437 270 409 310.5 c 128,-1,29
 381 351 381 351 344 351 c 0,30,31
 286 351 286 351 286 320 c 2,32,-1
 286 144 l 1,33,-1
 236 144 l 1,34,-1
 236 484 l 1,35,-1
 91 484 l 1,36,-1
 91 129 l 1,37,-1
 41 129 l 1,38,-1
 41 529 l 1,39,-1
 438 528 l 1,40,-1
 440 484 l 1,41,-1
 281 484 l 1,42,-1
 281 367 l 1,43,44
 285 374 285 374 297 377 c 2,45,-1
 322 381 l 1,46,-1
 337 382 l 1,47,48
 400 382 400 382 440 336 c 0,49,50
 476 294 476 294 488 222 c 1,51,-1
 489 207 l 2,52,53
 489 187 489 187 485 170 c 128,-1,54
 481 153 481 153 469 129 c 0,55,56
 455 97 455 97 442 80 c 1,57,-1
 443 77 l 1,58,59
 539 77 539 77 597 142 c 0,60,61
 650 203 650 203 650 287 c 0,62,63
 650 347 650 347 618.5 400.5 c 128,-1,64
 587 454 587 454 527 481 c 1,65,-1
 532 506 l 1,0,1
376 46 m 1,66,67
 343 51 343 51 292 51 c 0,68,69
 224 51 224 51 180 40.5 c 128,-1,70
 136 30 136 30 140 0 c 0,71,72
 143 -26 143 -26 170 -38 c 0,73,74
 196 -47 196 -47 248 -47 c 0,75,76
 309 -47 309 -47 343 -13 c 0,77,78
 356 3 356 3 376 46 c 1,66,67
EndSplineSet
Ligature2: "'haln' Halant Forms lookup 2-1" u11328 u1134D
EndChar

StartChar: uni0951
Encoding: 2385 2385 30
Width: 6
Flags: MW
LayerCount: 2
Fore
SplineSet
-401 1205 m 1,0,-1
 -403 577 l 1,1,-1
 -499 577 l 1,2,-1
 -501 1205 l 1,3,-1
 -401 1205 l 1,0,-1
EndSplineSet
EndChar

StartChar: uniE110
Encoding: 57616 57616 31
Width: 1280
Flags: MW
LayerCount: 2
Fore
SplineSet
778 90 m 0,0,1
 730 90 730 90 714 112 c 0,2,3
 703 129 703 129 703 180 c 256,4,5
 703 231 703 231 715 282 c 0,6,7
 721 306 721 306 730 324.5 c 128,-1,8
 739 343 739 343 753 355 c 1,9,10
 792 328 792 328 810 283.5 c 128,-1,11
 828 239 828 239 828 175 c 0,12,13
 828 128 828 128 815 109 c 128,-1,14
 802 90 802 90 778 90 c 0,0,1
128 -35 m 1,15,-1
 83 -60 l 1,16,17
 167 -132 167 -132 284 -171 c 128,-1,18
 401 -210 401 -210 543 -210 c 0,19,20
 661 -210 661 -210 778 -186 c 0,21,22
 925 -156 925 -156 1006 -97 c 0,23,24
 1108 -25 1108 -25 1108 85 c 2,25,-1
 1108 440 l 1,26,-1
 1193 440 l 1,27,-1
 1193 490 l 1,28,-1
 923 490 l 2,29,30
 869 490 869 490 819 463 c 0,31,32
 782 442 782 442 763 410 c 1,33,34
 717 449 717 449 698 458 c 0,35,36
 657 480 657 480 623 480 c 0,37,38
 569 480 569 480 539 429 c 0,39,40
 518 391 518 391 518 340 c 2,41,-1
 519 91 l 1,42,-1
 148 90 l 1,43,-1
 148 450 l 1,44,-1
 98 450 l 1,45,-1
 96 50 l 1,46,-1
 578 50 l 1,47,-1
 576 359 l 1,48,-1
 575 374 l 2,49,50
 575 397 575 397 590 412 c 128,-1,51
 605 427 605 427 628 427 c 0,52,53
 648 427 648 427 666.5 414.5 c 128,-1,54
 685 402 685 402 698 380 c 1,55,56
 677 361 677 361 662.5 311 c 128,-1,57
 648 261 648 261 648 175 c 0,58,59
 648 123 648 123 673 88 c 0,60,61
 704 45 704 45 758 45 c 0,62,63
 824 45 824 45 859 80 c 0,64,65
 889 110 889 110 889 167 c 0,66,67
 889 194 889 194 885 216.5 c 128,-1,68
 881 239 881 239 869 271 c 0,69,70
 851 325 851 325 818 380 c 1,71,-1
 829 398 l 1,72,73
 865 440 865 440 923 440 c 2,74,-1
 1048 440 l 1,75,-1
 1048 85 l 2,76,77
 1048 -4 1048 -4 962 -63 c 0,78,79
 890 -113 890 -113 762 -138 c 0,80,81
 657 -159 657 -159 539 -159 c 0,82,83
 412 -159 412 -159 324 -137 c 0,84,85
 221 -110 221 -110 128 -35 c 1,15,-1
EndSplineSet
EndChar

StartChar: u11319
Encoding: 70425 70425 32
Width: 860
Flags: MW
LayerCount: 2
Fore
SplineSet
212 372 m 0,0,1
 179 372 179 372 161 354 c 0,2,3
 146 336 146 336 140 300 c 2,4,-1
 139 285 l 2,5,6
 139 253 139 253 156 233 c 128,-1,7
 173 213 173 213 202 213 c 2,8,-1
 224 216 l 1,9,10
 253 224 253 224 260 236 c 0,11,12
 264 242 264 242 266 252 c 128,-1,13
 268 262 268 262 268 280 c 2,14,-1
 268 300 l 2,15,16
 268 311 268 311 266 321 c 0,17,18
 266 333 266 333 260 345 c 0,19,20
 248 372 248 372 212 372 c 0,0,1
224 60 m 2,21,22
 148 60 148 60 148 24 c 0,23,24
 148 3 148 3 166.5 -6.5 c 128,-1,25
 185 -16 185 -16 208 -16 c 2,26,-1
 828 -16 l 1,27,-1
 828 -72 l 1,28,-1
 496 -72 l 1,29,-1
 496 -304 l 1,30,-1
 432 -304 l 1,31,-1
 432 -72 l 1,32,-1
 164 -72 l 1,33,34
 113 -57 113 -57 97 -26 c 0,35,36
 88 -8 88 -8 88 40 c 0,37,38
 88 64 88 64 105 80 c 0,39,40
 117 89 117 89 156 108 c 1,41,-1
 444 108 l 1,42,-1
 510 111 l 1,43,-1
 580 123 l 2,44,45
 590 125 590 125 611 142 c 128,-1,46
 632 159 632 159 640 177 c 2,47,-1
 646 202 l 1,48,-1
 649 234 l 1,49,-1
 652 309 l 1,50,-1
 652 326 l 2,51,52
 652 332 652 332 652 338 c 0,53,54
 650 346 650 346 649.5 355.5 c 128,-1,55
 649 365 649 365 641 391 c 0,56,57
 632 433 632 433 619 450 c 0,58,59
 613 459 613 459 599 466 c 128,-1,60
 585 473 585 473 569 473 c 0,61,62
 551 473 551 473 533 467 c 0,63,64
 515 464 515 464 501 441 c 2,65,-1
 484 408 l 1,66,-1
 471 380 l 2,67,68
 463 365 463 365 460 348 c 2,69,-1
 460 172 l 1,70,-1
 400 172 l 1,71,-1
 400 352 l 2,72,73
 400 373 400 373 394 385 c 2,74,-1
 372 420 l 2,75,76
 365 432 365 432 332.5 448 c 128,-1,77
 300 464 300 464 280 464 c 0,78,79
 232 464 232 464 207.5 458.5 c 128,-1,80
 183 453 183 453 169 441 c 1,81,-1
 151 405 l 2,82,83
 145 386 145 386 140 380 c 1,84,-1
 144 383 l 1,85,-1
 156 396 l 1,86,-1
 171 413 l 1,87,88
 200 419 200 419 218 419 c 2,89,-1
 233 418 l 2,90,91
 281 412 281 412 299 368 c 2,92,-1
 309 346 l 2,93,94
 320 318 320 318 320 292 c 0,95,96
 320 262 320 262 311.5 238.5 c 128,-1,97
 303 215 303 215 288 196 c 2,98,-1
 267 170 l 2,99,100
 254 160 254 160 236 160 c 2,101,-1
 188 160 l 1,102,-1
 160 164 l 2,103,104
 139 168 139 168 124 188 c 128,-1,105
 109 208 109 208 95 243 c 0,106,107
 90 258 90 258 87 277.5 c 128,-1,108
 84 297 84 297 84 320 c 0,109,110
 84 348 84 348 87 370 c 128,-1,111
 90 392 90 392 98 415 c 0,112,113
 113 457 113 457 139 479 c 1,114,-1
 167 497 l 1,115,-1
 205 514 l 2,116,117
 245 528 245 528 288 528 c 0,118,119
 310 528 310 528 336 517 c 128,-1,120
 362 506 362 506 380 492 c 1,121,-1
 430 417 l 1,122,-1
 448 454 l 1,123,-1
 462 480 l 2,124,125
 474 501 474 501 488 510.5 c 128,-1,126
 502 520 502 520 526 525 c 0,127,128
 550 528 550 528 588 528 c 0,129,130
 618 528 618 528 643 506 c 128,-1,131
 668 484 668 484 688 444 c 0,132,133
 712 390 712 390 712 304 c 0,134,135
 712 255 712 255 705.5 213 c 128,-1,136
 699 171 699 171 688 152 c 0,137,138
 670 117 670 117 637 95.5 c 128,-1,139
 604 74 604 74 544 64 c 1,140,-1
 449 61 l 1,141,-1
 320 60 l 1,142,-1
 224 60 l 2,21,22
EndSplineSet
EndChar

StartChar: uniE111
Encoding: 57617 57617 33
Width: 1112
Flags: MW
LayerCount: 2
Fore
SplineSet
1052 347 m 1,0,-1
 1058 320 l 1,1,-1
 1060 290 l 1,2,3
 1060 203 1060 203 990.5 131 c 128,-1,4
 921 59 921 59 810 59 c 0,5,6
 777 59 777 59 748.5 79.5 c 128,-1,7
 720 100 720 100 697 139 c 1,8,9
 676 103 676 103 627 79 c 128,-1,10
 578 55 578 55 522 55 c 0,11,12
 483 55 483 55 442 89 c 0,13,14
 396 129 396 129 396 180 c 2,15,-1
 397 201 l 1,16,-1
 399 217 l 1,17,18
 399 250 399 250 374 268 c 0,19,20
 356 280 356 280 316 286 c 0,21,22
 298 289 298 289 277 280 c 0,23,24
 260 271 260 271 257 260 c 2,25,-1
 256 44 l 1,26,-1
 208 44 l 1,27,-1
 209 435 l 1,28,-1
 89 434 l 1,29,-1
 88 44 l 1,30,-1
 36 44 l 1,31,-1
 34 485 l 1,32,-1
 419 485 l 1,33,-1
 419 435 l 1,34,-1
 263 435 l 1,35,-1
 263 312 l 1,36,37
 272 318 272 318 287 321 c 2,38,-1
 317 327 l 1,39,40
 380 327 380 327 414.5 299.5 c 128,-1,41
 449 272 449 272 449 219 c 2,42,-1
 449 207 l 1,43,-1
 446 191 l 1,44,-1
 445 178 l 2,45,46
 445 150 445 150 469 126 c 0,47,48
 491 109 491 109 535 101 c 1,49,-1
 554 100 l 2,50,51
 596 100 596 100 630 128 c 0,52,53
 652 147 652 147 680 194 c 1,54,-1
 700 253 l 1,55,-1
 724 320 l 1,56,57
 737 341 737 341 737 362 c 0,58,59
 737 396 737 396 707.5 426 c 128,-1,60
 678 456 678 456 641 456 c 0,61,62
 627 456 627 456 624 471 c 0,63,64
 624 493 624 493 651 493 c 0,65,66
 719 493 719 493 757 452 c 0,67,68
 790 417 790 417 790 364 c 0,69,70
 790 334 790 334 778 307 c 2,71,-1
 766 282 l 1,72,-1
 755 253 l 1,73,-1
 750 226 l 1,74,-1
 748 204 l 2,75,76
 748 166 748 166 769 141 c 128,-1,77
 790 116 790 116 827 109 c 1,78,79
 910 109 910 109 962 162 c 0,80,81
 988 189 988 189 1001 220.5 c 128,-1,82
 1014 252 1014 252 1014 286 c 2,83,-1
 1011 317 l 1,84,85
 999 379 999 379 962 421 c 0,86,87
 935 451 935 451 911 454 c 128,-1,88
 887 457 887 457 884 474 c 0,89,90
 884 483 884 483 902 494 c 1,91,92
 926 497 926 497 970 466 c 0,93,94
 1027 424 1027 424 1052 347 c 1,0,-1
EndSplineSet
Ligature2: "'akhn' Akhand lookup 1-1" u11328 u1134D u11327
EndChar

StartChar: u11320
Encoding: 70432 70432 34
Width: 585
Flags: MW
LayerCount: 2
Fore
SplineSet
529 260 m 0,0,1
 529 153 529 153 456 76.5 c 128,-1,2
 383 0 383 0 279 0 c 256,3,4
 175 0 175 0 95 72 c 0,5,6
 57 109 57 109 38 153.5 c 128,-1,7
 19 198 19 198 19 250 c 0,8,9
 19 355 19 355 91 432.5 c 128,-1,10
 163 510 163 510 269 510 c 0,11,12
 376 510 376 510 452.5 437.5 c 128,-1,13
 529 365 529 365 529 260 c 0,0,1
477 267 m 0,14,15
 477 346 477 346 413.5 403 c 128,-1,16
 350 460 350 460 264 460 c 0,17,18
 184 460 184 460 127.5 396 c 128,-1,19
 71 332 71 332 71 247 c 0,20,21
 71 168 71 168 134.5 111.5 c 128,-1,22
 198 55 198 55 284 55 c 0,23,24
 363 55 363 55 420 118 c 128,-1,25
 477 181 477 181 477 267 c 0,14,15
EndSplineSet
EndChar

StartChar: uniE100
Encoding: 57600 57600 35
Width: 1020
Flags: MW
LayerCount: 2
Fore
SplineSet
711 311 m 1,0,-1
 711 463 l 1,1,-1
 622 463 l 1,2,-1
 621 311 l 1,3,-1
 711 311 l 1,0,-1
713 88 m 2,4,-1
 713 251 l 1,5,-1
 591 251 l 2,6,7
 564 251 564 251 551 238 c 0,8,9
 532 219 532 219 532 164 c 2,10,-1
 535 116 l 1,11,-1
 538 99 l 1,12,-1
 544 82 l 2,13,14
 562 42 562 42 608 35 c 1,15,-1
 629 34 l 2,16,17
 667 34 667 34 690 51 c 128,-1,18
 713 68 713 68 713 88 c 2,4,-1
124 196 m 0,19,20
 124 189 124 189 124 183.5 c 128,-1,21
 124 178 124 178 128 163 c 0,22,23
 139 126 139 126 158 101 c 0,24,25
 176 80 176 80 216 62 c 2,26,-1
 253 48 l 1,27,-1
 285 44 l 2,28,29
 313 44 313 44 333 60 c 2,30,-1
 351 75 l 2,31,32
 358 82 358 82 363 92 c 0,33,34
 372 107 372 107 372 137 c 0,35,36
 372 177 372 177 349 203 c 0,37,38
 322 236 322 236 263 249 c 1,39,-1
 238 252 l 2,40,41
 219 255 219 255 206 255 c 0,42,43
 198 255 198 255 194 254 c 2,44,-1
 160 244 l 2,45,46
 151 241 151 241 143 239 c 0,47,48
 130 232 130 232 124 216 c 0,49,50
 123 213 123 213 122.5 209.5 c 128,-1,51
 122 206 122 206 122 205 c 0,52,53
 122 201 122 201 122.5 199 c 128,-1,54
 123 197 123 197 124 196 c 0,19,20
503 358 m 0,55,56
 494 385 494 385 482.5 398 c 128,-1,57
 471 411 471 411 454 417 c 128,-1,58
 437 423 437 423 359 432 c 1,59,-1
 343 433 l 1,60,-1
 325 434 l 2,61,62
 293 434 293 434 269 427 c 2,63,-1
 243 418 l 1,64,-1
 215 401 l 2,65,66
 178 378 178 378 151 335 c 0,67,68
 148 329 148 329 140 305 c 0,69,70
 136 293 136 293 132 284 c 1,71,72
 157 293 157 293 187 299 c 128,-1,73
 217 305 217 305 243 305 c 0,74,75
 268 305 268 305 273 303 c 0,76,77
 322 295 322 295 368 262 c 0,78,79
 404 236 404 236 410 221 c 2,80,-1
 426 172 l 1,81,-1
 431 147 l 1,82,-1
 433 125 l 1,83,-1
 430 95 l 2,84,85
 426 79 426 79 419 64 c 0,86,87
 407 33 407 33 378 16 c 0,88,89
 359 4 359 4 322 -3 c 2,90,-1
 264 -10 l 1,91,92
 196 -10 196 -10 140 36 c 0,93,94
 112 58 112 58 96 86 c 2,95,-1
 84 114 l 1,96,-1
 70 153 l 2,97,98
 58 195 58 195 58 229 c 0,99,100
 58 261 58 261 73 311 c 0,101,102
 97 380 97 380 155 432 c 0,103,104
 174 448 174 448 189 456 c 2,105,-1
 228 476 l 1,106,107
 286 499 286 499 333 499 c 2,108,-1
 361 497 l 2,109,110
 381 497 381 497 386 495 c 0,111,112
 436 490 436 490 443 488 c 0,113,114
 449 488 449 488 496 467 c 0,115,116
 539 449 539 449 560 344 c 1,117,-1
 563 408 l 1,118,-1
 564 457 l 2,119,120
 564 499 564 499 561 516 c 1,121,-1
 900 516 l 1,122,-1
 900 465 l 1,123,-1
 768 465 l 1,124,-1
 767 453 l 1,125,-1
 767 418 l 1,126,-1
 768 379 l 1,127,-1
 765 309 l 1,128,-1
 808 308 l 2,129,130
 865 308 865 308 897 283 c 0,131,132
 947 244 947 244 947 140 c 0,133,134
 947 78 947 78 928.5 18.5 c 128,-1,135
 910 -41 910 -41 885 -67 c 0,136,137
 874 -81 874 -81 856.5 -89 c 128,-1,138
 839 -97 839 -97 819 -97 c 2,139,-1
 709 -97 l 1,140,-1
 46 -97 l 1,141,-1
 45 -48 l 1,142,-1
 265 -48 l 1,143,-1
 535 -49 l 1,144,-1
 661 -49 l 1,145,-1
 676 -49 l 1,146,-1
 687 -48 l 1,147,-1
 721 -48 l 1,148,-1
 760 -44 l 2,149,150
 795 -44 795 -44 824 -37 c 0,151,152
 848 -34 848 -34 857 -10 c 2,153,-1
 872 32 l 2,154,155
 879 44 879 44 885 71 c 2,156,-1
 890 116 l 1,157,-1
 889 178 l 2,158,159
 889 200 889 200 884 215.5 c 128,-1,160
 879 231 879 231 868 240 c 2,161,-1
 846 250 l 2,162,163
 833 255 833 255 816 255 c 2,164,-1
 790 254 l 1,165,-1
 774 255 l 1,166,-1
 774 104 l 2,167,168
 774 58 774 58 734 19.5 c 128,-1,169
 694 -19 694 -19 623 -19 c 2,170,-1
 600 -18 l 2,171,172
 543 -12 543 -12 505 26 c 0,173,174
 472 64 472 64 472 133 c 0,175,176
 472 250 472 250 519 290 c 1,177,178
 516 310 516 310 513 323 c 128,-1,179
 510 336 510 336 503 358 c 0,55,56
EndSplineSet
Ligature2: "'akhn' Akhand lookup 1-1" u11328 u1134D u11324
EndChar

StartChar: uniE101
Encoding: 57601 57601 36
Width: 995
Flags: MW
LayerCount: 2
Fore
SplineSet
269 254 m 2,0,1
 269 273 269 273 250.5 293.5 c 128,-1,2
 232 314 232 314 214 317 c 0,3,4
 183 320 183 320 160.5 295.5 c 128,-1,5
 138 271 138 271 138 243 c 2,6,-1
 139 233 l 2,7,8
 144 200 144 200 159 177.5 c 128,-1,9
 174 155 174 155 199 155 c 0,10,11
 227 155 227 155 244 169 c 0,12,13
 271 189 271 189 271 232 c 2,14,-1
 269 254 l 2,0,1
72 16 m 2,15,-1
 488 20 l 1,16,-1
 660 20 l 2,17,18
 729 20 729 20 773.5 73.5 c 128,-1,19
 818 127 818 127 818 194 c 0,20,21
 818 243 818 243 795 272 c 0,22,23
 774 302 774 302 734 309 c 0,24,25
 713 309 713 309 701 304 c 128,-1,26
 689 299 689 299 687 288 c 2,27,-1
 685 95 l 1,28,-1
 628 96 l 1,29,-1
 628 464 l 1,30,-1
 476 464 l 1,31,-1
 476 88 l 1,32,-1
 415 90 l 1,33,-1
 413 305 l 2,34,35
 413 356 413 356 368 410 c 0,36,37
 314 475 314 475 239 475 c 0,38,39
 149 475 149 475 99 429 c 0,40,41
 54 387 54 387 54 317 c 2,42,-1
 54 303 l 1,43,-1
 56 288 l 2,44,45
 61 253 61 253 75.5 225.5 c 128,-1,46
 90 198 90 198 113 175 c 1,47,48
 98 213 98 213 98 249 c 0,49,50
 98 300 98 300 126.5 332 c 128,-1,51
 155 364 155 364 212 364 c 0,52,53
 256 364 256 364 286 337.5 c 128,-1,54
 316 311 316 311 328 253 c 1,55,-1
 331 217 l 1,56,57
 331 157 331 157 288 123 c 0,58,59
 253 96 253 96 207 96 c 0,60,61
 124 96 124 96 69 163 c 0,62,63
 30 211 30 211 13 288 c 1,64,-1
 10 309 l 1,65,-1
 9 330 l 2,66,67
 9 414 9 414 76.5 471.5 c 128,-1,68
 144 529 144 529 235 529 c 0,69,70
 285 529 285 529 328.5 511 c 128,-1,71
 372 493 372 493 410 450 c 1,72,-1
 412 522 l 1,73,-1
 838 522 l 1,74,-1
 840 464 l 1,75,-1
 688 464 l 1,76,-1
 690 362 l 1,77,-1
 708 364 l 1,78,-1
 727 364 l 2,79,80
 799 364 799 364 841.5 318 c 128,-1,81
 884 272 884 272 884 200 c 0,82,83
 884 104 884 104 817.5 32 c 128,-1,84
 751 -40 751 -40 672 -40 c 2,85,-1
 72 -40 l 1,86,-1
 67 -31 l 1,87,-1
 63 -3 l 2,88,89
 63 13 63 13 72 16 c 2,15,-1
EndSplineSet
Ligature2: "'akhn' Akhand lookup 1-1" u11328 u1134D u11328
EndChar

StartChar: u11324
Encoding: 70436 70436 37
Width: 740
Flags: MW
LayerCount: 2
Fore
SplineSet
396 311 m 1,0,-1
 396 463 l 1,1,-1
 306 465 l 1,2,-1
 305 311 l 1,3,-1
 396 311 l 1,0,-1
398 88 m 2,4,-1
 398 251 l 1,5,-1
 276 251 l 2,6,7
 249 251 249 251 236 238 c 0,8,9
 217 219 217 219 217 164 c 2,10,-1
 220 116 l 1,11,-1
 223 99 l 1,12,-1
 229 82 l 2,13,14
 247 42 247 42 293 35 c 1,15,-1
 314 34 l 2,16,17
 352 34 352 34 375 51 c 128,-1,18
 398 68 398 68 398 88 c 2,4,-1
519 -51 m 0,19,20
 534 -48 534 -48 546 -15 c 0,21,22
 547 -7 547 -7 548.5 -0.5 c 128,-1,23
 550 6 550 6 554 15 c 2,24,-1
 560 34 l 1,25,-1
 566 78 l 1,26,-1
 568 130 l 2,27,28
 568 159 568 159 562.5 185.5 c 128,-1,29
 557 212 557 212 549 233 c 0,30,31
 546 243 546 243 519 249 c 2,32,-1
 475 254 l 1,33,-1
 459 255 l 1,34,-1
 459 104 l 2,35,36
 459 58 459 58 419 19.5 c 128,-1,37
 379 -19 379 -19 308 -19 c 2,38,-1
 285 -18 l 2,39,40
 228 -12 228 -12 190 26 c 0,41,42
 157 64 157 64 157 133 c 0,43,44
 157 250 157 250 204 290 c 1,45,-1
 246 302 l 1,46,-1
 248 384 l 1,47,-1
 249 447 l 1,48,-1
 249 459 l 2,49,50
 249 504 249 504 246 516 c 1,51,-1
 609 516 l 1,52,-1
 609 465 l 1,53,-1
 453 465 l 1,54,-1
 456 441 l 1,55,-1
 457 387 l 1,56,-1
 457 373 l 1,57,-1
 457 361 l 1,58,-1
 457 328 l 1,59,-1
 456 312 l 1,60,-1
 493 308 l 1,61,-1
 532 304 l 2,62,63
 559 301 559 301 582 283 c 0,64,65
 632 244 632 244 632 140 c 1,66,-1
 629 79 l 2,67,68
 626 47 626 47 625 43 c 0,69,70
 620 26 620 26 619 18 c 0,71,72
 607 -40 607 -40 584 -63 c 0,73,74
 567 -82 567 -82 546.5 -93.5 c 128,-1,75
 526 -105 526 -105 504 -105 c 2,76,-1
 390 -105 l 1,77,-1
 6 -105 l 1,78,-1
 3 -57 l 1,79,-1
 390 -57 l 1,80,-1
 414 -58 l 1,81,-1
 441 -59 l 1,82,-1
 458 -59 l 1,83,-1
 482 -57 l 2,84,85
 496 -57 496 -57 519 -51 c 0,19,20
EndSplineSet
EndChar

StartChar: u1130A
Encoding: 70410 70410 38
Width: 984
Flags: MW
LayerCount: 2
Fore
SplineSet
909 471 m 1,0,-1
 909 417 l 1,1,-1
 840 416 l 1,2,-1
 842 65 l 1,3,-1
 782 65 l 1,4,-1
 782 415 l 1,5,-1
 723 414 l 2,6,7
 717 410 717 410 715 407 c 2,8,-1
 714 389 l 1,9,-1
 714 378 l 1,10,-1
 714 63 l 1,11,-1
 652 63 l 1,12,-1
 652 340 l 1,13,-1
 652 356 l 2,14,15
 652 369 652 369 650 377 c 0,16,17
 650 389 650 389 640 400 c 0,18,19
 637 403 637 403 626 406 c 2,20,-1
 605 408 l 1,21,-1
 584 407 l 1,22,-1
 569 407 l 2,23,24
 542 407 542 407 530 391 c 1,25,-1
 513 347 l 1,26,-1
 507 325 l 1,27,-1
 505 309 l 1,28,-1
 505 296 l 1,29,-1
 505 275 l 1,30,-1
 493 286 l 1,31,32
 516 301 516 301 529 304 c 2,33,-1
 540 305 l 1,34,-1
 554 307 l 1,35,36
 584 307 584 307 604 287 c 0,37,38
 618 271 618 271 626 242 c 2,39,-1
 631 211 l 1,40,-1
 632 174 l 2,41,42
 632 124 632 124 611 96 c 128,-1,43
 590 68 590 68 544 68 c 2,44,-1
 520 70 l 2,45,46
 504 72 504 72 490 83 c 0,47,48
 476 96 476 96 463 130 c 0,49,50
 450 169 450 169 450 222 c 0,51,52
 450 290 450 290 459 338.5 c 128,-1,53
 468 387 468 387 486 419 c 0,54,55
 517 468 517 468 588 468 c 0,56,57
 626 468 626 468 630 466 c 0,58,59
 640 466 640 466 644 464 c 2,60,-1
 664 454 l 1,61,-1
 675 447 l 2,62,63
 682 444 682 444 687 433 c 1,64,-1
 677 432 l 1,65,-1
 689 450 l 2,66,67
 698 459 698 459 714 467 c 1,68,-1
 743 468 l 1,69,-1
 787 469 l 1,70,-1
 836 469 l 1,71,-1
 909 471 l 1,0,-1
878 -16 m 1,72,-1
 60 -18 l 1,73,-1
 61 84 l 1,74,-1
 75 110 l 1,75,76
 99 137 99 137 130 137 c 2,77,-1
 153 136 l 1,78,-1
 173 136 l 1,79,-1
 205 135 l 1,80,-1
 239 134 l 1,81,-1
 257 134 l 2,82,83
 266 134 266 134 268.5 136 c 128,-1,84
 271 138 271 138 292 144 c 0,85,86
 311 147 311 147 319 155 c 0,87,88
 331 161 331 161 344 174 c 2,89,-1
 358 190 l 2,90,91
 382 217 382 217 382 254 c 2,92,-1
 384 334 l 2,93,94
 384 352 384 352 375.5 383.5 c 128,-1,95
 367 415 367 415 356 426 c 0,96,97
 338 447 338 447 301.5 456 c 128,-1,98
 265 465 265 465 220 465 c 0,99,100
 195 465 195 465 170.5 450.5 c 128,-1,101
 146 436 146 436 131 413 c 0,102,103
 119 392 119 392 116 376 c 1,104,-1
 109 382 l 1,105,-1
 106 390 l 1,106,-1
 133 400 l 1,107,-1
 174 411 l 1,108,-1
 187 410 l 1,109,110
 283 390 283 390 283 287 c 0,111,112
 283 215 283 215 248 171 c 0,113,114
 218 135 218 135 165 135 c 0,115,116
 99 135 99 135 65 187 c 0,117,118
 42 227 42 227 42 298 c 0,119,120
 42 385 42 385 76 438 c 0,121,122
 126 519 126 519 234 519 c 0,123,124
 341 519 341 519 392 467 c 0,125,126
 416 443 416 443 428.5 401.5 c 128,-1,127
 441 360 441 360 441 312 c 0,128,129
 441 214 441 214 405 158 c 0,130,131
 378 119 378 119 329 97 c 0,132,133
 305 88 305 88 277 83 c 128,-1,134
 249 78 249 78 233 77.5 c 128,-1,135
 217 77 217 77 207 77 c 2,136,-1
 169 81 l 1,137,-1
 142 81 l 1,138,-1
 142 74 l 1,139,-1
 142 45 l 1,140,-1
 878 44 l 1,141,-1
 878 -16 l 1,72,-1
575 131 m 0,142,143
 587 152 587 152 587 180 c 0,144,145
 587 203 587 203 575 224 c 2,146,-1
 562 245 l 2,147,148
 557 252 557 252 544 255 c 0,149,150
 535 255 535 255 524 249 c 128,-1,151
 513 243 513 243 508 229 c 0,152,153
 502 217 502 217 502 203 c 2,154,-1
 505 174 l 1,155,-1
 512 138 l 2,156,157
 515 122 515 122 541 115 c 2,158,-1
 548 114 l 1,159,-1
 552 114 l 1,160,-1
 561 116 l 2,161,162
 566 117 566 117 575 131 c 0,142,143
215 333 m 2,163,-1
 193 349 l 2,164,165
 184 355 184 355 171 355 c 0,166,167
 146 355 146 355 128.5 348.5 c 128,-1,168
 111 342 111 342 102 323 c 128,-1,169
 93 304 93 304 93 279 c 0,170,171
 93 246 93 246 109 218 c 1,172,-1
 124 199 l 2,173,174
 140 185 140 185 161 185 c 0,175,176
 176 185 176 185 188 192 c 128,-1,177
 200 199 200 199 212 214 c 0,178,179
 231 236 231 236 231 281 c 0,180,181
 231 301 231 301 227.5 312.5 c 128,-1,182
 224 324 224 324 215 333 c 2,163,-1
EndSplineSet
EndChar

StartChar: u11326
Encoding: 70438 70438 39
Width: 530
Flags: MW
LayerCount: 2
Fore
SplineSet
225 273 m 256,0,1
 225 302 225 302 217 319 c 0,2,3
 211 336 211 336 187 342 c 0,4,5
 162 345 162 345 141 331.5 c 128,-1,6
 120 318 120 318 110 290 c 1,7,-1
 107 268 l 2,8,9
 107 240 107 240 123.5 217.5 c 128,-1,10
 140 195 140 195 165 195 c 0,11,12
 191 195 191 195 208 219.5 c 128,-1,13
 225 244 225 244 225 273 c 256,0,1
117 93 m 2,14,15
 132 102 132 102 169 108 c 2,16,-1
 273 126 l 1,17,-1
 294 135 l 1,18,-1
 327 159 l 2,19,20
 336 167 336 167 346 183 c 2,21,-1
 354 205 l 1,22,-1
 371 243 l 1,23,-1
 378 269 l 1,24,-1
 380 334 l 2,25,26
 380 373 380 373 375 388 c 0,27,28
 372 405 372 405 349.5 424 c 128,-1,29
 327 443 327 443 303 450 c 2,30,-1
 281 455 l 1,31,-1
 257 457 l 1,32,-1
 237 456 l 1,33,-1
 219 456 l 2,34,35
 198 456 198 456 174.5 444.5 c 128,-1,36
 151 433 151 433 138 412 c 2,37,-1
 125 382 l 1,38,-1
 117 357 l 1,39,-1
 118 375 l 1,40,-1
 118 388 l 1,41,-1
 140 400 l 1,42,-1
 158 405 l 1,43,-1
 182 411 l 1,44,-1
 195 410 l 1,45,46
 291 390 291 390 291 287 c 0,47,48
 291 215 291 215 256 171 c 0,49,50
 226 135 226 135 175 135 c 0,51,52
 107 135 107 135 73 187 c 0,53,54
 72 188 72 188 63.5 206 c 128,-1,55
 55 224 55 224 47 246 c 2,56,-1
 42 272 l 1,57,-1
 40 297 l 2,58,59
 40 333 40 333 52.5 371 c 128,-1,60
 65 409 65 409 84 438 c 0,61,62
 134 519 134 519 242 519 c 0,63,64
 349 519 349 519 399 467 c 128,-1,65
 449 415 449 415 449 309 c 256,66,67
 449 203 449 203 408 153 c 0,68,69
 374 110 374 110 346 96 c 2,70,-1
 246 57 l 1,71,-1
 215 51 l 1,72,-1
 144 39 l 1,73,-1
 144 0 l 1,74,-1
 513 0 l 1,75,-1
 513 -63 l 1,76,-1
 339 -63 l 1,77,-1
 339 -222 l 1,78,-1
 273 -222 l 1,79,-1
 273 -63 l 1,80,-1
 66 -63 l 1,81,-1
 66 60 l 1,82,83
 77 71 77 71 102 85 c 2,84,-1
 117 93 l 2,14,15
EndSplineSet
EndChar

StartChar: u11328
Encoding: 70440 70440 40
Width: 684
Flags: MW
LayerCount: 2
Fore
SplineSet
616 117 m 1,0,-1
 612 71 l 1,1,-1
 612 53 l 2,2,3
 612 40 612 40 610 34 c 2,4,-1
 601 -4 l 2,5,6
 601 -19 601 -19 589 -44.5 c 128,-1,7
 577 -70 577 -70 563 -78 c 2,8,-1
 539 -94 l 2,9,10
 520 -102 520 -102 498 -102 c 2,11,-1
 390 -102 l 1,12,-1
 52 -102 l 1,13,-1
 49 -45 l 1,14,-1
 401 -45 l 1,15,-1
 425 -45 l 1,16,-1
 447 -46 l 1,17,-1
 463 -46 l 1,18,-1
 485 -44 l 1,19,-1
 522 -40 l 1,20,21
 537 -28 537 -28 541 -8 c 2,22,-1
 551 33 l 2,23,24
 558 63 558 63 558 78 c 2,25,-1
 560 145 l 1,26,-1
 560 164 l 1,27,-1
 560 178 l 1,28,-1
 558 191 l 2,29,30
 558 210 558 210 547 233 c 2,31,-1
 541 252 l 2,32,33
 541 258 541 258 535 262 c 128,-1,34
 529 266 529 266 517 269 c 1,35,-1
 498 267 l 2,36,37
 486 267 486 267 472 262 c 2,38,-1
 452 257 l 1,39,-1
 430 255 l 1,40,-1
 429 270 l 1,41,-1
 444 270 l 1,42,-1
 445 20 l 1,43,-1
 390 20 l 1,44,-1
 388 444 l 1,45,-1
 388 463 l 1,46,-1
 270 465 l 1,47,-1
 270 25 l 1,48,-1
 205 25 l 1,49,-1
 209 212 l 1,50,-1
 211 406 l 1,51,-1
 211 427 l 1,52,-1
 211 444 l 1,53,-1
 211 458 l 1,54,-1
 211 469 l 2,55,56
 211 510 211 510 207 515 c 1,57,-1
 545 515 l 1,58,-1
 545 465 l 1,59,-1
 464 463 l 1,60,-1
 444 463 l 1,61,-1
 444 429 l 1,62,-1
 444 352 l 1,63,-1
 444 314 l 1,64,-1
 444 310 l 1,65,-1
 439 310 l 1,66,-1
 476 317 l 1,67,-1
 492 319 l 1,68,-1
 511 323 l 1,69,70
 534 323 534 323 540 321 c 0,71,72
 546 321 546 321 564 307.5 c 128,-1,73
 582 294 582 294 587 284 c 2,74,-1
 598 263 l 2,75,76
 616 224 616 224 616 158 c 2,77,-1
 616 117 l 1,0,-1
EndSplineSet
EndChar

StartChar: u1132B
Encoding: 70443 70443 41
Width: 995
Flags: MW
LayerCount: 2
Fore
SplineSet
724 60 m 1,0,-1
 844 60 l 1,1,-1
 844 380 l 2,2,3
 844 429 844 429 834 446 c 0,4,5
 828 455 828 455 815.5 461.5 c 128,-1,6
 803 468 803 468 784 468 c 0,7,8
 750 468 750 468 735 450 c 0,9,10
 724 431 724 431 724 388 c 2,11,-1
 724 60 l 1,0,-1
224 92 m 1,12,-1
 228 134 l 1,13,-1
 233 181 l 1,14,-1
 231 204 l 1,15,-1
 229 218 l 1,16,-1
 221 238 l 2,17,18
 212 257 212 257 200 260 c 0,19,20
 179 260 179 260 161 253.5 c 128,-1,21
 143 247 143 247 131 231 c 2,22,-1
 119 209 l 1,23,-1
 117 182 l 1,24,-1
 117 169 l 1,25,-1
 116 160 l 1,26,-1
 115 144 l 2,27,28
 115 119 115 119 124 97.5 c 128,-1,29
 133 76 133 76 156 64 c 1,30,-1
 175 59 l 2,31,32
 185 59 185 59 203 74 c 2,33,-1
 224 92 l 1,12,-1
304 168 m 0,34,35
 304 161 304 161 302.5 150 c 128,-1,36
 301 139 301 139 293 103.5 c 128,-1,37
 285 68 285 68 280.5 56 c 128,-1,38
 276 44 276 44 251 22 c 2,39,-1
 220 -4 l 1,40,-1
 192 -4 l 1,41,-1
 170 -4 l 1,42,-1
 150 -2 l 2,43,44
 123 -2 123 -2 112 8 c 2,45,-1
 84 34 l 2,46,47
 76 44 76 44 68 62 c 2,48,-1
 57 103 l 1,49,-1
 48 152 l 1,50,-1
 48 268 l 2,51,52
 48 304 48 304 53 322 c 2,53,-1
 64 368 l 1,54,-1
 70 392 l 1,55,-1
 77 414 l 2,56,57
 82 428 82 428 93 445 c 0,58,59
 100 459 100 459 118 477 c 0,60,61
 128 487 128 487 146 498.5 c 128,-1,62
 164 510 164 510 194.5 519 c 128,-1,63
 225 528 225 528 256 528 c 2,64,-1
 293 525 l 2,65,66
 314 522 314 522 329 514 c 0,67,68
 359 504 359 504 388 472 c 1,69,-1
 415 434 l 2,70,71
 432 407 432 407 436 392 c 2,72,-1
 446 347 l 2,73,74
 452 314 452 314 452 284 c 0,75,76
 452 270 452 270 452 256 c 0,77,78
 449 242 449 242 447 225.5 c 128,-1,79
 445 209 445 209 432 160 c 2,80,-1
 419 108 l 2,81,82
 410 74 410 74 400 56 c 1,83,-1
 665 55 l 1,84,-1
 666 376 l 2,85,86
 666 393 666 393 666 408.5 c 128,-1,87
 666 424 666 424 668 436 c 0,88,89
 668 454 668 454 677 470 c 0,90,91
 698 516 698 516 776 516 c 0,92,93
 848 516 848 516 875 485 c 0,94,95
 893 464 893 464 893 413 c 2,96,-1
 892 394 l 1,97,-1
 892 376 l 1,98,-1
 892 4 l 1,99,-1
 324 2 l 1,100,-1
 350 62 l 1,101,-1
 374 118 l 1,102,-1
 378 133 l 1,103,-1
 390 190 l 2,104,105
 402 258 402 258 402 308 c 0,106,107
 402 329 402 329 397 345 c 0,108,109
 394 365 394 365 382 390 c 0,110,111
 377 402 377 402 361 424 c 2,112,-1
 330 456 l 2,113,114
 321 465 321 465 304.5 469.5 c 128,-1,115
 288 474 288 474 276.5 476 c 128,-1,116
 265 478 265 478 250 478 c 2,117,-1
 217 475 l 2,118,119
 203 473 203 473 196 468 c 2,120,-1
 170 448 l 2,121,122
 163 444 163 444 156 436 c 2,123,-1
 139 408 l 1,124,-1
 128 392 l 2,125,126
 119 382 119 382 96 296 c 1,127,128
 167 332 167 332 194 332 c 2,129,-1
 213 330 l 2,130,131
 222 330 222 330 242 321 c 0,132,133
 271 312 271 312 287 264 c 0,134,135
 304 218 304 218 304 168 c 0,34,35
EndSplineSet
EndChar

StartChar: u1131A
Encoding: 70426 70426 42
Width: 1025
Flags: MW
LayerCount: 2
Fore
SplineSet
470 329 m 0,0,1
 461 356 461 356 449 365 c 128,-1,2
 437 374 437 374 398 381 c 2,3,-1
 386 382 l 2,4,5
 374 382 374 382 367 380 c 0,6,7
 357 380 357 380 339.5 370 c 128,-1,8
 322 360 322 360 304 341 c 2,9,-1
 292 326 l 1,10,-1
 284 311 l 2,11,12
 280 298 280 298 276 286 c 1,13,-1
 276 266 l 2,14,15
 276 254 276 254 280.5 243.5 c 128,-1,16
 285 233 285 233 292 224 c 0,17,18
 303 211 303 211 333 198 c 0,19,20
 354 191 354 191 376 191 c 0,21,22
 421 191 421 191 446 213 c 0,23,24
 458 224 458 224 467 246 c 0,25,26
 471 257 471 257 474 269 c 128,-1,27
 477 281 477 281 477 293 c 0,28,29
 477 312 477 312 470 329 c 0,0,1
838 27 m 1,30,-1
 838 514 l 1,31,-1
 890 517 l 1,32,-1
 890 -24 l 1,33,-1
 56 -24 l 1,34,-1
 56 27 l 1,35,-1
 353 27 l 1,36,-1
 373 33 l 1,37,-1
 396 42 l 1,38,-1
 418 54 l 1,39,-1
 450 74 l 2,40,41
 466 85 466 85 476 93 c 0,42,43
 490 104 490 104 495 109 c 0,44,45
 511 125 511 125 528 152 c 2,46,-1
 556 199 l 1,47,-1
 564 222 l 1,48,-1
 570 246 l 2,49,50
 576 273 576 273 576 295 c 2,51,-1
 576 316 l 1,52,-1
 572 331 l 1,53,54
 569 361 569 361 548 396 c 2,55,-1
 536 414 l 2,56,57
 529 427 529 427 512 439 c 2,58,-1
 487 454 l 1,59,-1
 455 465 l 1,60,-1
 433 469 l 1,61,-1
 418 470 l 1,62,-1
 388 467 l 2,63,64
 373 467 373 467 342 451 c 2,65,-1
 324 443 l 1,66,-1
 305 431 l 1,67,-1
 289 416 l 1,68,-1
 275 398 l 1,69,-1
 264 375 l 1,70,-1
 287 394 l 1,71,-1
 323 415 l 2,72,73
 358 431 358 431 386 431 c 0,74,75
 401 431 401 431 407 429 c 2,76,-1
 430 425 l 2,77,78
 446 422 446 422 452 418 c 0,79,80
 461 416 461 416 472.5 410 c 128,-1,81
 484 404 484 404 496.5 388 c 128,-1,82
 509 372 509 372 515 357 c 2,83,-1
 525 319 l 1,84,-1
 531 280 l 2,85,86
 531 264 531 264 518 234 c 0,87,88
 510 215 510 215 505 210 c 2,89,-1
 495 197 l 1,90,-1
 484 185 l 2,91,92
 471 169 471 169 461.5 163.5 c 128,-1,93
 452 158 452 158 430 152 c 2,94,-1
 395 144 l 1,95,-1
 366 141 l 2,96,97
 349 141 349 141 317 150 c 2,98,-1
 273 166 l 2,99,100
 261 173 261 173 241 200 c 2,101,-1
 220 233 l 2,102,103
 206 259 206 259 206 293 c 2,104,-1
 207 338 l 2,105,106
 207 350 207 350 207 362 c 0,107,108
 210 374 210 374 212 386.5 c 128,-1,109
 214 399 214 399 238 432 c 0,110,111
 257 458 257 458 282 476 c 0,112,113
 305 490 305 490 346 504 c 0,114,115
 387 516 387 516 416 516 c 0,116,117
 444 516 444 516 489 504 c 0,118,119
 517 498 517 498 537 482 c 0,120,121
 564 462 564 462 583 435 c 0,122,123
 598 414 598 414 607 393 c 0,124,125
 610 386 610 386 613 376.5 c 128,-1,126
 616 367 616 367 621 346 c 2,127,-1
 625 308 l 1,128,-1
 624 286 l 2,129,130
 624 271 624 271 620 256 c 0,131,132
 611 195 611 195 572 132 c 2,133,-1
 551 100 l 2,134,135
 544 89 544 89 526 71 c 0,136,137
 511 58 511 58 492 47 c 0,138,139
 468 35 468 35 454 28 c 1,140,-1
 838 27 l 1,30,-1
EndSplineSet
EndChar

StartChar: u1132D
Encoding: 70445 70445 43
Width: 995
Flags: MW
LayerCount: 2
Fore
SplineSet
946 226 m 2,0,-1
 938 140 l 2,1,2
 935 108 935 108 917 79 c 0,3,4
 904 56 904 56 881 39 c 0,5,6
 871 33 871 33 860 29 c 0,7,8
 839 21 839 21 826 16 c 2,9,-1
 757 0 l 1,10,-1
 693 -8 l 1,11,-1
 642 -13 l 1,12,-1
 608 -15 l 1,13,-1
 569 -12 l 1,14,-1
 75 -12 l 1,15,-1
 75 48 l 1,16,-1
 567 48 l 1,17,-1
 603 47 l 2,18,19
 628 47 628 47 637 45 c 2,20,-1
 681 48 l 1,21,-1
 739 57 l 2,22,23
 768 60 768 60 794 68.5 c 128,-1,24
 820 77 820 77 833 89 c 2,25,-1
 846 103 l 1,26,-1
 860 121 l 2,27,28
 872 141 872 141 875 171 c 2,29,-1
 880 233 l 1,30,-1
 885 285 l 1,31,-1
 886 306 l 2,32,33
 886 330 886 330 880 360 c 2,34,-1
 872 398 l 2,35,36
 863 428 863 428 841 441.5 c 128,-1,37
 819 455 819 455 802 455 c 2,38,-1
 777 451 l 2,39,40
 759 448 759 448 739 418 c 1,41,-1
 734 406 l 2,42,43
 731 397 731 397 731 383 c 2,44,-1
 731 370 l 2,45,46
 731 360 731 360 729 354 c 2,47,-1
 727 335 l 1,48,-1
 727 317 l 1,49,-1
 727 289 l 1,50,-1
 728 260 l 1,51,-1
 728 241 l 1,52,-1
 728 225 l 1,53,-1
 726 208 l 2,54,55
 726 189 726 189 724 181 c 2,56,-1
 717 150 l 2,57,58
 711 120 711 120 685 97 c 0,59,60
 673 87 673 87 654.5 81 c 128,-1,61
 636 75 636 75 611 75 c 2,62,-1
 600 74 l 1,63,64
 552 74 552 74 522 105 c 0,65,66
 496 134 496 134 487 190 c 1,67,-1
 483 262 l 2,68,69
 483 312 483 312 475 335 c 2,70,-1
 467 370 l 2,71,72
 461 405 461 405 450 418 c 0,73,74
 437 436 437 436 423 445.5 c 128,-1,75
 409 455 409 455 395 457 c 2,76,-1
 363 459 l 1,77,-1
 340 459 l 2,78,79
 325 459 325 459 316 456 c 0,80,81
 307 455 307 455 294.5 444 c 128,-1,82
 282 433 282 433 271 410 c 2,83,-1
 257 369 l 1,84,-1
 248 345 l 1,85,-1
 252 351 l 2,86,87
 267 372 267 372 293 381.5 c 128,-1,88
 319 391 319 391 340 391 c 0,89,90
 370 391 370 391 404 369 c 0,91,92
 431 351 431 351 443.5 323.5 c 128,-1,93
 456 296 456 296 456 256 c 2,94,-1
 456 241 l 1,95,-1
 456 229 l 2,96,97
 456 191 456 191 453 173 c 0,98,99
 447 128 447 128 424 108 c 0,100,101
 405 91 405 91 372 79 c 0,102,103
 339 69 339 69 313 69 c 0,104,105
 283 69 283 69 259.5 79 c 128,-1,106
 236 89 236 89 216.5 118.5 c 128,-1,107
 197 148 197 148 189 170 c 1,108,-1
 186 188 l 2,109,110
 186 199 186 199 181 210 c 2,111,-1
 176 234 l 1,112,-1
 175 255 l 1,113,-1
 176 282 l 1,114,-1
 181 320 l 1,115,-1
 187 365 l 2,116,117
 190 383 190 383 205 416 c 2,118,-1
 223 453 l 2,119,120
 232 472 232 472 251 486 c 0,121,122
 270 503 270 503 291 509 c 2,123,-1
 324 517 l 1,124,-1
 356 519 l 1,125,-1
 383 519 l 2,126,127
 414 519 414 519 426 515 c 0,128,129
 440 512 440 512 451.5 504.5 c 128,-1,130
 463 497 463 497 479 479 c 2,131,-1
 498 453 l 2,132,133
 510 437 510 437 517 412 c 2,134,-1
 530 368 l 1,135,-1
 535 341 l 1,136,-1
 541 300 l 1,137,-1
 551 211 l 2,138,139
 556 167 556 167 559 161 c 0,140,141
 570 135 570 135 607 135 c 0,142,143
 643 135 643 135 650 155 c 1,144,-1
 657 206 l 1,145,-1
 661 264 l 1,146,-1
 661 318 l 1,147,-1
 661 341 l 2,148,149
 661 357 661 357 663 363 c 2,150,-1
 667 402 l 2,151,152
 667 426 667 426 680 448 c 0,153,154
 701 487 701 487 744 506 c 0,155,156
 766 514 766 514 786 514 c 2,157,-1
 819 513 l 2,158,159
 861 513 861 513 897 483 c 0,160,161
 918 465 918 465 932 428 c 1,162,-1
 945 359 l 2,163,164
 951 320 951 320 951 293 c 2,165,-1
 950 264 l 2,166,167
 950 253 950 253 950 243 c 0,168,169
 947 231 947 231 946 226 c 2,0,-1
392 280 m 0,170,171
 384 305 384 305 370 319 c 128,-1,172
 356 333 356 333 334 333 c 0,173,174
 318 333 318 333 300 318 c 1,175,-1
 275 286 l 1,176,-1
 252 253 l 2,177,178
 241 234 241 234 241 214 c 0,179,180
 241 192 241 192 255.5 164.5 c 128,-1,181
 270 137 270 137 293 128 c 1,182,-1
 318 125 l 1,183,184
 360 125 360 125 386 154 c 0,185,186
 394 163 394 163 398 179 c 2,187,-1
 402 213 l 1,188,189
 402 250 402 250 392 280 c 0,170,171
EndSplineSet
EndChar

StartChar: u1132F
Encoding: 70447 70447 44
Width: 710
Flags: MW
LayerCount: 2
Fore
SplineSet
266 34 m 1,0,-1
 257 4 l 1,1,-1
 254 2 l 1,2,-1
 236 -8 l 1,3,-1
 210 -11 l 1,4,-1
 211 -15 l 1,5,-1
 199 -15 l 1,6,-1
 156 -14 l 2,7,8
 136 -14 136 -14 126 -9.5 c 128,-1,9
 116 -5 116 -5 103 6 c 0,10,11
 91 20 91 20 82 45 c 1,12,-1
 77 71 l 1,13,-1
 75 100 l 1,14,-1
 76 121 l 1,15,-1
 76 162 l 1,16,-1
 75 513 l 1,17,-1
 138 513 l 1,18,-1
 138 111 l 2,19,20
 138 65 138 65 144 50 c 0,21,22
 146 47 146 47 169 42 c 1,23,-1
 197 41 l 2,24,25
 212 41 212 41 216 52 c 2,26,-1
 223 77 l 1,27,-1
 227 106 l 1,28,-1
 227 515 l 1,29,-1
 290 515 l 1,30,-1
 289 432 l 1,31,-1
 289 148 l 1,32,-1
 289 122 l 1,33,-1
 290 90 l 1,34,-1
 299 62 l 2,35,36
 307 43 307 43 337 43 c 2,37,-1
 358 44 l 1,38,-1
 392 48 l 1,39,-1
 484 48 l 1,40,-1
 484 515 l 1,41,-1
 555 515 l 1,42,-1
 554 16 l 1,43,-1
 546 -15 l 1,44,-1
 293 -15 l 1,45,-1
 266 34 l 1,0,-1
EndSplineSet
EndChar

StartChar: u11332
Encoding: 70450 70450 45
Width: 1161
Flags: MW
LayerCount: 2
Fore
SplineSet
322 53 m 2,0,1
 330 34 330 34 356 34 c 0,2,3
 387 37 387 37 417 58 c 0,4,5
 424 64 424 64 430.5 70.5 c 128,-1,6
 437 77 437 77 444 87 c 128,-1,7
 451 97 451 97 454 116 c 2,8,-1
 454 371 l 1,9,-1
 517 371 l 1,10,-1
 517 143 l 2,11,12
 520 118 520 118 531.5 99.5 c 128,-1,13
 543 81 543 81 559 68 c 0,14,15
 579 56 579 56 607 56 c 2,16,-1
 629 57 l 1,17,18
 682 66 682 66 718 141 c 0,19,20
 743 199 743 199 743 257 c 1,21,-1
 740 299 l 2,22,23
 734 351 734 351 715 387 c 0,24,25
 701 421 701 421 664 452 c 0,26,27
 640 473 640 473 593 483 c 0,28,29
 583 485 583 485 563.5 487.5 c 128,-1,30
 544 490 544 490 534 491 c 2,31,-1
 442 494 l 2,32,33
 396 494 396 494 362 491 c 128,-1,34
 328 488 328 488 296 480 c 0,35,36
 239 468 239 468 193 422 c 0,37,38
 157 383 157 383 136 323 c 0,39,40
 132 311 132 311 127.5 290.5 c 128,-1,41
 123 270 123 270 121 255.5 c 128,-1,42
 119 241 119 241 118 231 c 128,-1,43
 117 221 117 221 117 198 c 2,44,-1
 117 173 l 1,45,-1
 121 140 l 2,46,47
 130 66 130 66 169 17 c 128,-1,48
 208 -32 208 -32 284 -56.5 c 128,-1,49
 360 -81 360 -81 456 -81 c 0,50,51
 522 -81 522 -81 611 -69 c 0,52,53
 848 -36 848 -36 960 89 c 0,54,55
 1029 172 1029 172 1029 274 c 2,56,-1
 1029 289 l 1,57,-1
 1029 301 l 1,58,-1
 1027 313 l 2,59,60
 1021 355 1021 355 1002 390 c 2,61,-1
 987 424 l 2,62,63
 978 444 978 444 967 452 c 1,64,-1
 988 497 l 1,65,-1
 1004 487 l 1,66,-1
 1023 474 l 2,67,68
 1036 463 1036 463 1055 436 c 0,69,70
 1087 386 1087 386 1094 324 c 2,71,-1
 1098 270 l 1,72,73
 1098 154 1098 154 1019 59 c 0,74,75
 900 -82 900 -82 625 -121 c 0,76,77
 527 -134 527 -134 460 -134 c 0,78,79
 332 -134 332 -134 233 -92 c 0,80,81
 80 -26 80 -26 59 132 c 2,82,-1
 55 165 l 1,83,-1
 54 200 l 2,84,85
 54 281 54 281 76.5 347.5 c 128,-1,86
 99 414 99 414 147 461.5 c 128,-1,87
 195 509 195 509 269 530 c 128,-1,88
 343 551 343 551 442 551 c 2,89,-1
 556 548 l 2,90,91
 576 548 576 548 593.5 545.5 c 128,-1,92
 611 543 611 543 629 538 c 0,93,94
 679 526 679 526 718 494 c 0,95,96
 766 456 766 456 791.5 410.5 c 128,-1,97
 817 365 817 365 817 308 c 0,98,99
 817 245 817 245 811 200 c 128,-1,100
 805 155 805 155 784 113 c 0,101,102
 760 67 760 67 722.5 42 c 128,-1,103
 685 17 685 17 628 8 c 2,104,-1
 606 6 l 2,105,106
 587 6 587 6 560 15 c 0,107,108
 524 27 524 27 502 52 c 1,109,110
 490 25 490 25 462 3 c 0,111,112
 437 -13 437 -13 395 -22 c 1,113,-1
 377 -23 l 1,114,-1
 366 -24 l 2,115,116
 334 -24 334 -24 301 -9 c 0,117,118
 258 12 258 12 249 60 c 1,119,-1
 250 290 l 1,120,-1
 250 350 l 1,121,-1
 313 350 l 1,122,-1
 311 291 l 1,123,-1
 311 213 l 1,124,-1
 312 157 l 1,125,-1
 313 111 l 2,126,127
 313 90 313 90 315 80 c 2,128,-1
 322 53 l 2,0,1
EndSplineSet
EndChar

StartChar: uniE400
Encoding: 58368 58368 46
Width: 798
Flags: MW
LayerCount: 2
Fore
SplineSet
710 157 m 2,0,-1
 709 130 l 2,1,2
 709 122 709 122 702 105 c 0,3,4
 696 83 696 83 678 59 c 0,5,6
 642 15 642 15 586 15 c 1,7,-1
 565 17 l 2,8,9
 535 20 535 20 521 30 c 2,10,-1
 508 43 l 1,11,-1
 489 66 l 1,12,-1
 469 94 l 2,13,14
 454 118 454 118 454 149 c 2,15,-1
 454 164 l 1,16,-1
 455 187 l 1,17,-1
 462 207 l 1,18,-1
 472 234 l 2,19,20
 477 247 477 247 486 255 c 2,21,-1
 500 267 l 1,22,-1
 408 267 l 1,23,-1
 389 265 l 1,24,-1
 389 116 l 2,25,26
 389 57 389 57 337.5 19.5 c 128,-1,27
 286 -18 286 -18 220 -18 c 0,28,29
 170 -18 170 -18 117 18 c 0,30,31
 52 68 52 68 52 160 c 0,32,33
 52 210 52 210 79 257.5 c 128,-1,34
 106 305 106 305 127 305 c 1,35,-1
 172 316 l 1,36,-1
 172 515 l 1,37,-1
 483 515 l 1,38,-1
 483 463 l 1,39,-1
 390 462 l 1,40,-1
 390 350 l 1,41,-1
 390 320 l 1,42,-1
 511 321 l 1,43,-1
 548 321 l 1,44,-1
 600 328 l 1,45,-1
 617 334 l 1,46,-1
 625 345 l 2,47,48
 631 352 631 352 632 368 c 2,49,-1
 635 389 l 1,50,-1
 637 406 l 1,51,-1
 634 427 l 1,52,-1
 629 447 l 2,53,54
 629 452 629 452 617 463 c 2,55,-1
 596 475 l 1,56,-1
 517 514 l 1,57,-1
 563 552 l 1,58,-1
 597 534 l 1,59,-1
 625 518 l 1,60,-1
 654 498 l 2,61,62
 674 486 674 486 681 471 c 2,63,-1
 692 442 l 1,64,-1
 696 411 l 1,65,-1
 696 397 l 1,66,-1
 694 382 l 1,67,-1
 686 340 l 2,68,69
 681 322 681 322 667 303 c 0,70,71
 664 300 664 300 647 296 c 1,72,73
 653 294 653 294 659 286 c 2,74,-1
 669 276 l 2,75,76
 684 264 684 264 697 228 c 128,-1,77
 710 192 710 192 710 157 c 2,0,-1
651 191 m 0,78,79
 641 217 641 217 624.5 233.5 c 128,-1,80
 608 250 608 250 585 250 c 2,81,-1
 565 247 l 2,82,83
 554 246 554 246 539 232 c 0,84,85
 528 221 528 221 517 193 c 2,86,-1
 513 178 l 1,87,-1
 512 163 l 2,88,89
 512 145 512 145 527 116 c 2,90,-1
 538 98 l 1,91,-1
 550 83 l 2,92,93
 564 69 564 69 583 69 c 0,94,95
 599 69 599 69 608.5 74.5 c 128,-1,96
 618 80 618 80 636 100 c 0,97,98
 658 125 658 125 658 156 c 0,99,100
 658 174 658 174 651 191 c 0,78,79
337 317 m 1,101,-1
 337 463 l 1,102,-1
 228 462 l 1,103,-1
 230 320 l 1,104,-1
 337 317 l 1,101,-1
335 104 m 2,105,-1
 335 261 l 1,106,-1
 213 261 l 2,107,108
 168 261 168 261 151 251 c 0,109,110
 144 247 144 247 137 238 c 128,-1,111
 130 229 130 229 122 215 c 0,112,113
 109 189 109 189 109 156 c 0,114,115
 109 130 109 130 123 103 c 128,-1,116
 137 76 137 76 156 61 c 0,117,118
 168 49 168 49 188 39 c 1,119,-1
 206 34 l 1,120,-1
 223 33 l 1,121,-1
 243 35 l 1,122,-1
 263 42 l 2,123,124
 283 47 283 47 293 56 c 0,125,126
 315 70 315 70 323.5 82 c 128,-1,127
 332 94 332 94 335 104 c 2,105,-1
EndSplineSet
Ligature2: "'haln' Halant Forms lookup 2-1" u11324 u1134D
EndChar

StartChar: uniE10B
Encoding: 57611 57611 47
Width: 1065
Flags: MW
LayerCount: 2
Fore
SplineSet
289 254 m 0,0,1
 289 273 289 273 273 294 c 128,-1,2
 257 315 257 315 243 315 c 0,3,4
 224 315 224 315 209.5 309.5 c 128,-1,5
 195 304 195 304 182 290 c 0,6,7
 157 259 157 259 157 229 c 2,8,-1
 158 204 l 2,9,10
 160 191 160 191 168 176 c 0,11,12
 180 153 180 153 205 153 c 0,13,14
 235 153 235 153 257 172 c 0,15,16
 289 199 289 199 289 254 c 0,0,1
800 -150 m 0,17,18
 791 -120 791 -120 760 -101 c 0,19,20
 726 -85 726 -85 686 -85 c 0,21,22
 604 -85 604 -85 510 -135 c 1,23,24
 453 -174 453 -174 360 -210 c 0,25,26
 282 -240 282 -240 225 -240 c 0,27,28
 137 -240 137 -240 86 -204 c 0,29,30
 43 -172 43 -172 43 -124 c 0,31,32
 43 -54 43 -54 120 -7 c 0,33,34
 189 35 189 35 272 35 c 2,35,-1
 645 43 l 2,36,37
 715 43 715 43 769 96 c 0,38,39
 816 141 816 141 828 213 c 2,40,-1
 830 227 l 1,41,-1
 830 239 l 2,42,43
 830 275 830 275 811 300 c 128,-1,44
 792 325 792 325 765 325 c 0,45,46
 750 325 750 325 744 323 c 0,47,48
 735 322 735 322 718 313 c 0,49,50
 702 307 702 307 700 295 c 2,51,-1
 700 110 l 1,52,-1
 630 110 l 1,53,-1
 630 485 l 1,54,-1
 510 485 l 1,55,-1
 510 115 l 1,56,-1
 440 105 l 1,57,-1
 440 311 l 2,58,59
 440 365 440 365 407 413 c 0,60,61
 365 475 365 475 290 475 c 0,62,63
 190 475 190 475 134 416 c 0,64,65
 82 361 82 361 82 281 c 0,66,67
 82 210 82 210 123 169 c 1,68,-1
 118 194 l 1,69,-1
 116 221 l 1,70,71
 116 279 116 279 150.5 320.5 c 128,-1,72
 185 362 185 362 247 362 c 0,73,74
 292 362 292 362 319 336 c 0,75,76
 348 312 348 312 348 255 c 0,77,78
 348 174 348 174 298 130 c 0,79,80
 257 94 257 94 205 94 c 0,81,82
 121 94 121 94 76 158 c 0,83,84
 39 210 39 210 39 280 c 0,85,86
 39 384 39 384 120 468 c 0,87,88
 197 545 197 545 292 545 c 0,89,90
 335 545 335 545 368 528 c 0,91,92
 401 513 401 513 430 475 c 1,93,-1
 430 555 l 1,94,-1
 885 555 l 1,95,-1
 885 485 l 1,96,-1
 695 485 l 1,97,-1
 695 370 l 1,98,-1
 729 376 l 1,99,-1
 761 380 l 1,100,101
 827 380 827 380 869.5 337.5 c 128,-1,102
 912 295 912 295 912 233 c 2,103,-1
 911 210 l 1,104,105
 899 111 899 111 820.5 50.5 c 128,-1,106
 742 -10 742 -10 626 -10 c 1,107,-1
 299 -22 l 2,108,109
 232 -22 232 -22 186 -42 c 0,110,111
 125 -66 125 -66 125 -111 c 1,112,-1
 126 -121 l 2,113,114
 131 -149 131 -149 152 -160.5 c 128,-1,115
 173 -172 173 -172 207 -172 c 2,116,-1
 234 -171 l 1,117,-1
 264 -165 l 2,118,119
 289 -161 289 -161 320 -150 c 2,120,-1
 517 -60 l 2,121,122
 586 -30 586 -30 655 -30 c 0,123,124
 770 -30 770 -30 835 -67 c 0,125,126
 890 -98 890 -98 890 -135 c 0,127,128
 890 -195 890 -195 804 -229 c 0,129,130
 731 -255 731 -255 630 -255 c 0,131,132
 583 -255 583 -255 570 -247 c 2,133,-1
 520 -220 l 1,134,-1
 550 -175 l 1,135,-1
 584 -181 l 2,136,137
 650 -190 650 -190 702 -190 c 0,138,139
 747 -190 747 -190 775 -181 c 128,-1,140
 803 -172 803 -172 800 -150 c 0,17,18
EndSplineSet
Ligature2: "'akhn' Akhand lookup 1-1" u1131E u1134D u1131C
EndChar

StartChar: u1131C
Encoding: 70428 70428 48
Width: 716
Flags: MW
LayerCount: 2
Fore
SplineSet
492 67 m 0,0,1
 567 67 567 67 599 35 c 0,2,3
 627 7 627 7 627 -54 c 0,4,5
 627 -90 627 -90 594.5 -118 c 128,-1,6
 562 -146 562 -146 530 -146 c 1,7,-1
 517 -144 l 2,8,9
 494 -139 494 -139 473.5 -121 c 128,-1,10
 453 -103 453 -103 446 -75 c 1,11,-1
 415 -91 l 1,12,13
 418 -122 418 -122 448 -152 c 0,14,15
 473 -174 473 -174 507 -185 c 1,16,-1
 536 -189 l 1,17,-1
 552 -187 l 2,18,19
 598 -181 598 -181 631 -146 c 0,20,21
 668 -106 668 -106 668 -54 c 2,22,-1
 668 -34 l 2,23,24
 668 41 668 41 625.5 74.5 c 128,-1,25
 583 108 583 108 491 108 c 0,26,27
 444 108 444 108 403.5 87.5 c 128,-1,28
 363 67 363 67 345 38 c 2,29,-1
 276 -72 l 1,30,31
 238 -124 238 -124 204 -124 c 0,32,33
 152 -124 152 -124 120 -89 c 0,34,35
 85 -49 85 -49 85 22 c 0,36,37
 85 83 85 83 139 134 c 0,38,39
 186 175 186 175 225 175 c 2,40,-1
 500 175 l 2,41,42
 564 175 564 175 621.5 234 c 128,-1,43
 679 293 679 293 679 368 c 0,44,45
 679 459 679 459 630.5 512.5 c 128,-1,46
 582 566 582 566 513 566 c 0,47,48
 470 566 470 566 435 547.5 c 128,-1,49
 400 529 400 529 368 485 c 1,50,51
 348 515 348 515 303 540 c 128,-1,52
 258 565 258 565 201 565 c 0,53,54
 126 565 126 565 80.5 521 c 128,-1,55
 35 477 35 477 35 399 c 0,56,57
 35 335 35 335 78 293 c 0,58,59
 101 273 101 273 126.5 263 c 128,-1,60
 152 253 152 253 183 253 c 0,61,62
 216 253 216 253 243 274 c 0,63,64
 278 301 278 301 278 353 c 1,65,-1
 276 374 l 2,66,67
 276 392 276 392 268.5 406.5 c 128,-1,68
 261 421 261 421 246 434 c 0,69,70
 221 456 221 456 192 456 c 0,71,72
 155 456 155 456 128 432 c 0,73,74
 105 407 105 407 105 364 c 0,75,76
 105 340 105 340 113 325 c 2,77,-1
 129 300 l 1,78,79
 103 312 103 312 88.5 334 c 128,-1,80
 74 356 74 356 74 395 c 0,81,82
 74 453 74 453 106.5 488.5 c 128,-1,83
 139 524 139 524 194 524 c 0,84,85
 258 524 258 524 299 495 c 0,86,87
 343 468 343 468 356 423 c 1,88,-1
 356 261 l 1,89,-1
 392 261 l 1,90,-1
 392 434 l 1,91,92
 409 477 409 477 442 500.5 c 128,-1,93
 475 524 475 524 512 524 c 0,94,95
 560 524 560 524 594.5 486.5 c 128,-1,96
 629 449 629 449 629 376 c 0,97,98
 629 313 629 313 577 260 c 0,99,100
 564 248 564 248 554 240 c 0,101,102
 548 235 548 235 532 225 c 0,103,104
 510 214 510 214 491 214 c 2,105,-1
 216 214 l 2,106,107
 152 214 152 214 94.5 156.5 c 128,-1,108
 37 99 37 99 37 22 c 0,109,110
 37 -66 37 -66 90 -122 c 0,111,112
 138 -173 138 -173 207 -173 c 0,113,114
 258 -173 258 -173 303 -115 c 0,115,116
 321 -93 321 -93 359 -17 c 0,117,118
 377 17 377 17 413 44 c 0,119,120
 450 67 450 67 492 67 c 0,0,1
144 364 m 0,121,122
 144 390 144 390 156 405.5 c 128,-1,123
 168 421 168 421 194 421 c 0,124,125
 212 421 212 421 225.5 405 c 128,-1,126
 239 389 239 389 239 370 c 0,127,128
 239 326 239 326 220 310 c 0,129,130
 207 300 207 300 183 300 c 0,131,132
 166 300 166 300 154 319 c 0,133,134
 144 341 144 341 144 364 c 0,121,122
EndSplineSet
EndChar

StartChar: u1131E
Encoding: 70430 70430 49
Width: 970
Flags: MW
LayerCount: 2
Fore
SplineSet
658 311 m 1,0,-1
 658 463 l 1,1,-1
 569 463 l 1,2,-1
 568 311 l 1,3,-1
 658 311 l 1,0,-1
660 88 m 2,4,-1
 660 251 l 1,5,-1
 538 251 l 2,6,7
 511 251 511 251 498 238 c 0,8,9
 479 219 479 219 479 164 c 2,10,-1
 482 116 l 1,11,-1
 485 99 l 1,12,-1
 491 82 l 2,13,14
 509 42 509 42 555 35 c 1,15,-1
 576 34 l 2,16,17
 614 34 614 34 637 51 c 128,-1,18
 660 68 660 68 660 88 c 2,4,-1
170 260 m 0,19,20
 175 248 175 248 181.5 238 c 128,-1,21
 188 228 188 228 198 221 c 0,22,23
 220 207 220 207 243 207 c 0,24,25
 264 207 264 207 280 231.5 c 128,-1,26
 296 256 296 256 292 272 c 2,27,-1
 284 297 l 2,28,29
 281 308 281 308 271 312 c 2,30,-1
 249 318 l 1,31,-1
 239 317 l 2,32,33
 212 317 212 317 191 299 c 0,34,35
 185 294 185 294 180 289 c 0,36,37
 166 269 166 269 170 260 c 0,19,20
508 440 m 1,38,-1
 508 451 l 1,39,-1
 508 477 l 1,40,-1
 509 492 l 1,41,-1
 506 515 l 1,42,-1
 818 515 l 1,43,-1
 818 463 l 1,44,-1
 739 463 l 1,45,-1
 718 463 l 1,46,-1
 718 446 l 1,47,-1
 718 402 l 1,48,-1
 718 341 l 1,49,-1
 718 309 l 1,50,-1
 712 309 l 1,51,-1
 755 308 l 2,52,53
 812 308 812 308 844 283 c 0,54,55
 894 244 894 244 894 140 c 0,56,57
 894 21 894 21 846 -33 c 0,58,59
 836 -44 836 -44 814 -54 c 2,60,-1
 776 -73 l 1,61,-1
 712 -92 l 1,62,-1
 666 -107 l 1,63,-1
 586 -123 l 2,64,65
 550 -129 550 -129 517 -129 c 2,66,-1
 484 -129 l 1,67,-1
 465 -129 l 1,68,-1
 451 -129 l 1,69,-1
 437 -127 l 2,70,71
 422 -127 422 -127 384 -121 c 0,72,73
 322 -112 322 -112 290 -96 c 2,74,-1
 238 -67 l 2,75,76
 181 -34 181 -34 148 61 c 0,77,78
 136 95 136 95 124.5 142.5 c 128,-1,79
 113 190 113 190 108 236 c 0,80,81
 103 247 103 247 101 266.5 c 128,-1,82
 99 286 99 286 99 308 c 0,83,84
 99 344 99 344 104 370 c 128,-1,85
 109 396 109 396 121 414 c 2,86,-1
 153 464 l 2,87,88
 173 492 173 492 194 500 c 0,89,90
 251 524 251 524 295 524 c 2,91,-1
 319 523 l 2,92,93
 335 523 335 523 354 519 c 2,94,-1
 382 516 l 2,95,96
 395 515 395 515 410 507 c 2,97,-1
 448 479 l 2,98,99
 480 455 480 455 499 370 c 1,100,-1
 510 338 l 1,101,-1
 508 440 l 1,38,-1
444 379 m 2,102,103
 436 398 436 398 426.5 415.5 c 128,-1,104
 417 433 417 433 410 440 c 0,105,106
 397 454 397 454 362 465 c 1,107,-1
 307 473 l 1,108,109
 276 473 276 473 270 471 c 2,110,-1
 255 468 l 1,111,-1
 236 460 l 2,112,113
 226 457 226 457 209 434 c 2,114,-1
 181 394 l 2,115,116
 178 387 178 387 171.5 369 c 128,-1,117
 165 351 165 351 162 340 c 1,118,119
 166 352 166 352 181 358.5 c 128,-1,120
 196 365 196 365 231 371 c 1,121,122
 263 371 263 371 295 359 c 1,123,-1
 308 352 l 2,124,125
 317 349 317 349 324 342 c 0,126,127
 328 339 328 339 340 313 c 128,-1,128
 352 287 352 287 352 266 c 0,129,130
 352 248 352 248 350 244 c 0,131,132
 350 238 350 238 343 227 c 0,133,134
 328 197 328 197 307 179 c 1,135,-1
 279 162 l 2,136,137
 261 155 261 155 247 155 c 0,138,139
 236 155 236 155 224 155.5 c 128,-1,140
 212 156 212 156 196 158.5 c 128,-1,141
 180 161 180 161 173.5 165 c 128,-1,142
 167 169 167 169 158 180 c 1,143,144
 160 173 160 173 162 167 c 0,145,146
 172 144 172 144 177 128 c 0,147,148
 207 26 207 26 257 -12 c 0,149,150
 299 -42 299 -42 354.5 -59.5 c 128,-1,151
 410 -77 410 -77 457 -77 c 2,152,-1
 474 -77 l 1,153,-1
 487 -77 l 2,154,155
 530 -77 530 -77 548 -74 c 0,156,157
 565 -74 565 -74 627 -61 c 2,158,-1
 674 -51 l 2,159,160
 699 -48 699 -48 719 -38 c 2,161,-1
 760 -22 l 2,162,163
 782 -16 782 -16 794 -5 c 0,164,165
 804 2 804 2 811 13 c 2,166,-1
 819 32 l 2,167,168
 826 44 826 44 832 71 c 2,169,-1
 837 116 l 1,170,-1
 836 178 l 2,171,172
 836 200 836 200 831 215.5 c 128,-1,173
 826 231 826 231 815 240 c 2,174,-1
 793 250 l 2,175,176
 780 255 780 255 763 255 c 2,177,-1
 737 254 l 1,178,-1
 721 255 l 1,179,-1
 721 104 l 2,180,181
 721 58 721 58 681 19.5 c 128,-1,182
 641 -19 641 -19 570 -19 c 2,183,-1
 547 -18 l 2,184,185
 490 -12 490 -12 452 26 c 0,186,187
 419 64 419 64 419 133 c 0,188,189
 419 250 419 250 466 290 c 1,190,-1
 444 379 l 2,102,103
EndSplineSet
EndChar

StartChar: Q
Encoding: 70406 70406 50
Width: 996
Flags: MW
LayerCount: 2
Fore
SplineSet
445 312 m 1,0,-1
 445 442 l 1,1,-1
 365 442 l 1,2,-1
 365 312 l 1,3,-1
 445 312 l 1,0,-1
445 129 m 2,4,-1
 445 252 l 1,5,-1
 332 252 l 1,6,-1
 302 251 l 1,7,-1
 289 245 l 2,8,9
 271 235 271 235 257 214 c 0,10,11
 242 187 242 187 242 155 c 2,12,-1
 241 133 l 2,13,14
 241 123 241 123 246 115 c 2,15,-1
 253 97 l 2,16,17
 259 81 259 81 270 73 c 2,18,-1
 290 63 l 1,19,-1
 313 54 l 1,20,-1
 343 48 l 1,21,-1
 357 50 l 1,22,-1
 367 51 l 2,23,24
 373 51 373 51 387 57 c 2,25,-1
 416 72 l 1,26,-1
 430 96 l 2,27,28
 445 117 445 117 445 129 c 2,4,-1
620 100 m 2,29,30
 620 84 620 84 645 74 c 1,31,-1
 669 69 l 1,32,33
 686 71 686 71 697 83.5 c 128,-1,34
 708 96 708 96 708 112 c 2,35,-1
 708 258 l 1,36,-1
 620 258 l 1,37,-1
 620 100 l 2,29,30
512 116 m 1,38,-1
 511 96 l 2,39,40
 511 89 511 89 509 86 c 2,41,-1
 502 71 l 2,42,43
 501 67 501 67 489 57 c 2,44,-1
 460 32 l 1,45,-1
 442 18 l 1,46,-1
 408 0 l 2,47,48
 376 -15 376 -15 345 -15 c 0,49,50
 290 -15 290 -15 243 20 c 0,51,52
 180 68 180 68 180 160 c 0,53,54
 180 190 180 190 185.5 209.5 c 128,-1,55
 191 229 191 229 204 249 c 0,56,57
 222 279 222 279 257 298 c 1,58,-1
 266 305 l 1,59,-1
 300 315 l 1,60,-1
 300 512 l 1,61,-1
 610 512 l 1,62,-1
 610 442 l 1,63,-1
 512 442 l 1,64,-1
 512 318 l 1,65,-1
 705 317 l 1,66,-1
 705 507 l 1,67,-1
 761 507 l 1,68,-1
 761 492 l 1,69,-1
 761 319 l 1,70,-1
 783 317 l 2,71,72
 800 317 800 317 806 315 c 2,73,-1
 827 312 l 2,74,75
 838 308 838 308 849 301 c 0,76,77
 868 289 868 289 884 266 c 0,78,79
 894 250 894 250 900 226.5 c 128,-1,80
 906 203 906 203 906 177 c 2,81,-1
 905 153 l 1,82,-1
 905 128 l 1,83,-1
 902 86 l 2,84,85
 901 78 901 78 898 68 c 128,-1,86
 895 58 895 58 891 48 c 0,87,88
 879 14 879 14 850 -22 c 0,89,90
 823 -58 823 -58 774 -82 c 1,91,-1
 680 -114 l 2,92,93
 670 -117 670 -117 658 -120 c 128,-1,94
 646 -123 646 -123 615 -128 c 2,95,-1
 545 -132 l 1,96,-1
 488 -132 l 1,97,-1
 469 -132 l 1,98,-1
 453 -132 l 1,99,-1
 439 -132 l 1,100,-1
 428 -132 l 1,101,-1
 384 -132 l 1,102,-1
 361 -128 l 1,103,104
 335 -128 335 -128 316 -123 c 0,105,106
 296 -120 296 -120 261 -108 c 0,107,108
 209 -93 209 -93 172 -69 c 0,109,110
 137 -44 137 -44 106 -1 c 0,111,112
 80 34 80 34 73.5 69.5 c 128,-1,113
 67 105 67 105 67 166 c 0,114,115
 67 214 67 214 93 256 c 0,116,117
 111 286 111 286 145 323 c 0,118,119
 163 341 163 341 176 342 c 2,120,-1
 192 340 l 1,121,-1
 217 338 l 1,122,-1
 189 281 l 1,123,-1
 176 265 l 2,124,125
 154 243 154 243 152 239 c 2,126,-1
 133 212 l 2,127,128
 124 201 124 201 120 180 c 2,129,-1
 117 142 l 2,130,131
 117 117 117 117 122 106 c 2,132,-1
 131 71 l 2,133,134
 136 54 136 54 147 41 c 0,135,136
 179 -1 179 -1 201 -19 c 0,137,138
 217 -32 217 -32 262 -52 c 0,139,140
 295 -67 295 -67 346.5 -74 c 128,-1,141
 398 -81 398 -81 457 -81 c 2,142,-1
 497 -81 l 1,143,-1
 526 -81 l 1,144,-1
 554 -82 l 1,145,-1
 604 -79 l 1,146,-1
 629 -75 l 1,147,-1
 660 -65 l 1,148,-1
 732 -45 l 2,149,150
 771 -33 771 -33 793 -4 c 0,151,152
 816 22 816 22 828 46 c 0,153,154
 837 64 837 64 848 116 c 1,155,-1
 852 146 l 1,156,-1
 854 174 l 2,157,158
 854 198 854 198 849 211 c 0,159,160
 846 227 846 227 832 241 c 2,161,-1
 822 251 l 2,162,163
 810 260 810 260 796 264 c 2,164,-1
 779 266 l 1,165,-1
 772 266 l 1,166,-1
 764 264 l 1,167,-1
 764 116 l 1,168,-1
 730 46 l 1,169,170
 704 15 704 15 670 15 c 0,171,172
 641 15 641 15 618 31 c 0,173,174
 606 39 606 39 572 82 c 1,175,-1
 572 152 l 1,176,-1
 572 254 l 1,177,-1
 512 254 l 1,178,-1
 512 116 l 1,38,-1
EndSplineSet
EndChar

StartChar: u1130C
Encoding: 70412 70412 51
Width: 918
Flags: MW
LayerCount: 2
Fore
SplineSet
811 453 m 1,0,-1
 733 453 l 1,1,-1
 733 140 l 2,2,3
 733 130 733 130 732.5 118 c 128,-1,4
 732 106 732 106 725 86 c 0,5,6
 718 58 718 58 705 38 c 0,7,8
 678 -15 678 -15 632 -15 c 0,9,10
 582 -15 582 -15 547 33 c 0,11,12
 532 58 532 58 524 84.5 c 128,-1,13
 516 111 516 111 516 142 c 2,14,-1
 516 453 l 1,15,-1
 472 453 l 1,16,-1
 428 449 l 2,17,18
 425 448 425 448 422.5 447.5 c 128,-1,19
 420 447 420 447 415 443 c 0,20,21
 410 433 410 433 410 409 c 2,22,-1
 410 396 l 1,23,-1
 410 -19 l 1,24,-1
 348 -18 l 1,25,-1
 348 354 l 1,26,-1
 348 368 l 2,27,28
 348 380 348 380 346 387 c 0,29,30
 346 400 346 400 338 413 c 0,31,32
 329 431 329 431 291 443.5 c 128,-1,33
 253 456 253 456 222 456 c 0,34,35
 202 456 202 456 185 445 c 0,36,37
 170 437 170 437 156 418 c 1,38,-1
 132 358 l 1,39,-1
 126 335 l 1,40,-1
 122 309 l 1,41,-1
 119 261 l 1,42,-1
 110 269 l 1,43,44
 138 290 138 290 154 295 c 2,45,-1
 172 298 l 1,46,-1
 193 300 l 2,47,48
 232 300 232 300 253.5 275.5 c 128,-1,49
 275 251 275 251 284 214 c 1,50,-1
 289 175 l 1,51,-1
 291 125 l 2,52,53
 291 59 291 59 267 26 c 0,54,55
 255 10 255 10 227.5 -2 c 128,-1,56
 200 -14 200 -14 164 -14 c 0,57,58
 107 -14 107 -14 76 65 c 1,59,60
 59 122 59 122 59 186 c 0,61,62
 59 379 59 379 105 450 c 0,63,64
 146 514 146 514 237 514 c 0,65,66
 262 514 262 514 283 509 c 128,-1,67
 304 504 304 504 313.5 500.5 c 128,-1,68
 323 497 323 497 339 488 c 2,69,-1
 370 462 l 1,70,-1
 367 461 l 1,71,-1
 379 482 l 2,72,73
 384 491 384 491 391 497 c 2,74,-1
 415 510 l 1,75,-1
 452 511 l 1,76,-1
 811 513 l 1,77,-1
 811 453 l 1,0,-1
679 139 m 1,78,-1
 679 451 l 1,79,-1
 571 451 l 1,80,-1
 571 146 l 1,81,82
 577 91 577 91 583 76 c 0,83,84
 595 39 595 39 626 39 c 0,85,86
 649 39 649 39 664 69 c 0,87,88
 670 88 670 88 679 139 c 1,78,-1
224 71 m 0,89,90
 238 93 238 93 238 139 c 0,91,92
 238 177 238 177 224 199 c 2,93,-1
 214 218 l 2,94,95
 205 236 205 236 189 240 c 0,96,97
 168 243 168 243 153.5 234.5 c 128,-1,98
 139 226 139 226 127 209 c 0,99,100
 117 192 117 192 117 158 c 0,101,102
 117 115 117 115 133 89 c 2,103,-1
 150 59 l 2,104,105
 159 45 159 45 176 45 c 0,106,107
 207 42 207 42 224 71 c 0,89,90
EndSplineSet
EndChar

StartChar: u11322
Encoding: 70434 70434 52
Width: 895
Flags: MW
LayerCount: 2
Fore
SplineSet
701 346 m 0,0,1
 704 373 704 373 664 406 c 0,2,3
 647 420 647 420 627 428 c 0,4,5
 618 432 618 432 609.5 434 c 128,-1,6
 601 436 601 436 589 436 c 0,7,8
 553 431 553 431 538 405 c 128,-1,9
 523 379 523 379 523 342 c 0,10,11
 523 312 523 312 550 285 c 0,12,13
 577 261 577 261 615 261 c 2,14,-1
 631 262 l 2,15,16
 671 268 671 268 688 294 c 1,17,-1
 696 312 l 2,18,19
 699 320 699 320 700 326.5 c 128,-1,20
 701 333 701 333 701 346 c 0,0,1
107 385 m 2,21,-1
 106 373 l 2,22,23
 106 348 106 348 126 327 c 0,24,25
 143 309 143 309 174 297 c 0,26,27
 183 294 183 294 192 292 c 128,-1,28
 201 290 201 290 212 290 c 0,29,30
 243 290 243 290 270.5 307.5 c 128,-1,31
 298 325 298 325 307 358 c 1,32,33
 299 383 299 383 294 392 c 0,34,35
 285 408 285 408 266.5 426 c 128,-1,36
 248 444 248 444 233 453 c 0,37,38
 224 457 224 457 208 461 c 1,39,-1
 193 460 l 1,40,41
 169 454 169 454 140 428 c 128,-1,42
 111 402 111 402 107 385 c 2,21,-1
599 470 m 1,43,44
 619 467 619 467 634 459 c 0,45,46
 649 453 649 453 674 438 c 0,47,48
 712 416 712 416 730 395 c 0,49,50
 739 383 739 383 739 349 c 0,51,52
 739 319 739 319 734 304 c 0,53,54
 731 284 731 284 718 270 c 0,55,56
 713 264 713 264 704 256.5 c 128,-1,57
 695 249 695 249 684 243 c 0,58,59
 662 230 662 230 643 225 c 2,60,-1
 621 223 l 2,61,62
 608 223 608 223 584 229 c 2,63,-1
 555 237 l 2,64,65
 530 242 530 242 510 262 c 0,66,67
 492 282 492 282 477 323 c 1,68,-1
 475 341 l 2,69,70
 475 372 475 372 487 411 c 128,-1,71
 499 450 499 450 512 453 c 1,72,-1
 529 479 l 2,73,74
 539 492 539 492 552 500 c 1,75,-1
 588 510 l 1,76,-1
 629 514 l 2,77,78
 650 514 650 514 656 512 c 0,79,80
 669 512 669 512 689 502 c 0,81,82
 712 494 712 494 726 483 c 2,83,-1
 787 423 l 2,84,85
 821 386 821 386 840 350 c 0,86,87
 867 285 867 285 867 219 c 2,88,-1
 867 204 l 2,89,90
 867 198 867 198 867 193 c 0,91,92
 865 186 865 186 864.5 178 c 128,-1,93
 864 170 864 170 856 150 c 0,94,95
 847 119 847 119 825 99 c 2,96,-1
 758 34 l 2,97,98
 743 24 743 24 641 -6 c 1,99,-1
 582 1 l 2,100,101
 570 2 570 2 556 8 c 128,-1,102
 542 14 542 14 533 18 c 2,103,-1
 504 35 l 2,104,105
 474 55 474 55 454 73 c 1,106,-1
 430 108 l 1,107,108
 419 81 419 81 395 55 c 0,109,110
 365 19 365 19 314 5 c 0,111,112
 277 -3 277 -3 209 -3 c 0,113,114
 158 -3 158 -3 123 9 c 0,115,116
 84 24 84 24 63 63 c 0,117,118
 48 92 48 92 48 129 c 0,119,120
 48 148 48 148 53 161 c 0,121,122
 77 222 77 222 137 231 c 1,123,-1
 195 232 l 1,124,-1
 257 239 l 2,125,126
 281 239 281 239 294 242 c 128,-1,127
 307 245 307 245 319 251 c 2,128,-1
 341 270 l 1,129,-1
 358 289 l 2,130,131
 367 298 367 298 370 309 c 2,132,-1
 374 323 l 1,133,-1
 379 348 l 1,134,-1
 380 362 l 1,135,-1
 381 373 l 1,136,-1
 378 390 l 1,137,-1
 369 408 l 1,138,-1
 353 432 l 1,139,-1
 329 454 l 1,140,-1
 294 474 l 1,141,-1
 267 480 l 1,142,-1
 321 426 l 2,143,144
 338 406 338 406 345 387 c 128,-1,145
 352 368 352 368 352 350 c 0,146,147
 352 327 352 327 341.5 308.5 c 128,-1,148
 331 290 331 290 313 277 c 2,149,-1
 277 259 l 1,150,-1
 244 248 l 1,151,-1
 211 245 l 2,152,153
 173 245 173 245 134 265 c 0,154,155
 122 271 122 271 116 275 c 128,-1,156
 110 279 110 279 96 289 c 0,157,158
 82 304 82 304 68 326 c 0,159,160
 57 348 57 348 57 373 c 0,161,162
 57 386 57 386 63 410 c 128,-1,163
 69 434 69 434 81 453 c 0,164,165
 92 467 92 467 127 491 c 0,166,167
 144 501 144 501 171 507 c 2,168,-1
 209 512 l 1,169,-1
 230 513 l 2,170,171
 249 513 249 513 271 512.5 c 128,-1,172
 293 512 293 512 304 509 c 128,-1,173
 315 506 315 506 375 470 c 0,174,175
 427 438 427 438 427 367 c 2,176,-1
 427 353 l 1,177,-1
 425 338 l 1,178,-1
 422 303 l 1,179,-1
 413 272 l 2,180,181
 409 257 409 257 384.5 235 c 128,-1,182
 360 213 360 213 317 199 c 1,183,-1
 270 192 l 1,184,-1
 210 189 l 2,185,186
 171 189 171 189 145.5 181 c 128,-1,187
 120 173 120 173 110 148 c 2,188,-1
 103 123 l 1,189,-1
 102 108 l 2,190,191
 102 100 102 100 108 89 c 0,192,193
 129 62 129 62 151.5 53 c 128,-1,194
 174 44 174 44 205 44 c 2,195,-1
 230 44 l 1,196,-1
 257 45 l 2,197,198
 288 45 288 45 311.5 53.5 c 128,-1,199
 335 62 335 62 359 90 c 2,200,-1
 375 111 l 1,201,-1
 390 138 l 1,202,-1
 424 197 l 1,203,-1
 457 155 l 1,204,-1
 474 128 l 1,205,-1
 494 105 l 1,206,-1
 519 86 l 1,207,-1
 557 63 l 1,208,-1
 596 48 l 1,209,-1
 630 45 l 1,210,211
 682 45 682 45 727.5 74.5 c 128,-1,212
 773 104 773 104 802 156 c 1,213,-1
 813 191 l 1,214,-1
 817 231 l 1,215,216
 817 278 817 278 802 316 c 1,217,-1
 763 386 l 1,218,-1
 743 409 l 2,219,220
 721 433 721 433 703 445 c 128,-1,221
 685 457 685 457 639 466 c 1,222,-1
 599 470 l 1,43,44
EndSplineSet
EndChar

StartChar: u11313
Encoding: 70419 70419 53
Width: 936
Flags: MW
LayerCount: 2
Fore
SplineSet
300 172 m 2,0,1
 300 147 300 147 293 128.5 c 128,-1,2
 286 110 286 110 273 97 c 0,3,4
 256 80 256 80 224 76 c 1,5,6
 197 82 197 82 181 101 c 0,7,8
 167 121 167 121 167 148 c 0,9,10
 167 184 167 184 191 214 c 128,-1,11
 215 244 215 244 252 244 c 0,12,13
 273 244 273 244 287 231.5 c 128,-1,14
 301 219 301 219 301 188 c 2,15,-1
 300 172 l 2,0,1
652 162 m 0,16,17
 584 162 584 162 544 155 c 0,18,19
 458 140 458 140 458 91 c 256,20,21
 458 41 458 41 495 20 c 0,22,23
 514 9 514 9 612 0 c 1,24,-1
 612 -90 l 1,25,-1
 612 -160 l 2,26,27
 612 -169 612 -169 616 -170 c 2,28,-1
 640 -176 l 2,29,30
 659 -181 659 -181 659 -164 c 2,31,-1
 659 -78 l 1,32,-1
 659 0 l 1,33,-1
 874 0 l 1,34,-1
 874 42 l 1,35,-1
 650 42 l 2,36,37
 562 42 562 42 539 48 c 128,-1,38
 516 54 516 54 516 86 c 0,39,40
 516 106 516 106 533 114 c 0,41,42
 549 122 549 122 580 122 c 0,43,44
 586 122 586 122 605 120 c 0,45,46
 619 119 619 119 624 118 c 2,47,-1
 641 117 l 2,48,49
 695 114 695 114 744 184 c 0,50,51
 791 251 791 251 791 328 c 0,52,53
 791 435 791 435 657 490 c 0,54,55
 540 538 540 538 350 538 c 0,56,57
 216 538 216 538 131 438 c 0,58,59
 71 367 71 367 47 265 c 1,60,-1
 44 235 l 1,61,62
 44 166 44 166 78 110 c 0,63,64
 123 36 123 36 212 36 c 0,65,66
 274 36 274 36 313 82 c 0,67,68
 349 124 349 124 349 179 c 0,69,70
 349 218 349 218 328 245.5 c 0,71,72
 305.1472 275.8048 305.1472 275.8048 281 278 c 2,73,-1
 248 281 l 2,74,75
 208 285 208 285 169 244 c 0,76,77
 133 207 133 207 133 156 c 0,78,79
 133 139 133 139 135 130 c 128,-1,80
 137 121 137 121 144 104 c 1,81,82
 122 119 122 119 103 151 c 1,83,84
 87 188 87 188 87 214 c 0,85,86
 87 307 87 307 160 392 c 0,87,88
 240 485 240 485 348 485 c 0,89,90
 443 485 443 485 506 476 c 0,91,92
 609 461 609 461 664 423 c 0,93,94
 736 375 736 375 736 290 c 0,95,96
 736 238 736 238 710 200 c 128,-1,97
 684 162 684 162 652 162 c 0,16,17
EndSplineSet
EndChar

StartChar: u11318
Encoding: 70424 70424 54
Width: 1038
Flags: MW
LayerCount: 2
Fore
SplineSet
942 -6 m 1,0,-1
 926 -12 l 1,1,-1
 309 -13 l 1,2,-1
 344 68 l 1,3,-1
 367 121 l 1,4,-1
 373 144 l 1,5,-1
 383 193 l 2,6,7
 395 256 395 256 395 307 c 0,8,9
 395 326 395 326 390 340 c 2,10,-1
 384 363 l 1,11,-1
 376 384 l 2,12,13
 371 399 371 399 356 416 c 2,14,-1
 327 445 l 2,15,16
 322 451 322 451 300 459 c 1,17,-1
 258 463 l 1,18,-1
 232 459 l 2,19,20
 216 456 216 456 211 451 c 2,21,-1
 194 439 l 1,22,-1
 180 428 l 1,23,-1
 162 405 l 1,24,-1
 152 386 l 1,25,-1
 143 363 l 1,26,-1
 137 341 l 1,27,-1
 129 302 l 1,28,-1
 126 265 l 1,29,-1
 127 268 l 1,30,-1
 132 268 l 1,31,-1
 144 275 l 1,32,-1
 164 285 l 1,33,34
 164 270 164 270 156 269 c 2,35,-1
 150 271 l 1,36,-1
 150 275 l 1,37,-1
 166 288 l 1,38,-1
 183 292 l 1,39,-1
 204 296 l 1,40,-1
 213 296 l 1,41,-1
 218 294 l 1,42,-1
 255 282 l 2,43,44
 263 279 263 279 274.5 265.5 c 128,-1,45
 286 252 286 252 295 211 c 2,46,-1
 298 188 l 1,47,-1
 299 154 l 1,48,-1
 297 121 l 2,49,50
 297 102 297 102 289 87 c 2,51,-1
 280 65 l 2,52,53
 274 51 274 51 261 36 c 2,54,-1
 246 20 l 1,55,-1
 231 7 l 1,56,-1
 207 -1 l 1,57,-1
 182 -5 l 2,58,59
 171 -5 171 -5 166 -3 c 0,60,61
 160 -3 160 -3 148 3 c 2,62,-1
 118 24 l 2,63,64
 110 33 110 33 89 80 c 1,65,-1
 82 115 l 1,66,-1
 75 155 l 1,67,-1
 73 216 l 1,68,-1
 71 270 l 1,69,-1
 71 296 l 2,70,71
 71 312 71 312 73 321 c 2,72,-1
 80 365 l 2,73,74
 88 396 88 396 106 427 c 0,75,76
 129 469 129 469 162 491 c 0,77,78
 183 503 183 503 207 509 c 128,-1,79
 231 515 231 515 267 515 c 0,80,81
 352 515 352 515 408 450 c 0,82,83
 432 419 432 419 444 379 c 2,84,-1
 457 328 l 1,85,-1
 462 282 l 2,86,87
 462 257 462 257 450 212 c 2,88,-1
 435 153 l 1,89,-1
 417 80 l 1,90,-1
 400 54 l 1,91,-1
 399 41 l 1,92,-1
 634 41 l 1,93,-1
 634 515 l 1,94,-1
 690 515 l 1,95,-1
 690 41 l 1,96,-1
 884 41 l 1,97,-1
 884 515 l 1,98,-1
 942 515 l 1,99,-1
 942 -6 l 1,0,-1
249 171 m 1,100,-1
 246 208 l 2,101,102
 243 223 243 223 231 235 c 2,103,-1
 218 243 l 1,104,-1
 201 245 l 2,105,106
 175 245 175 245 162 223 c 2,107,-1
 141 181 l 1,108,-1
 134 146 l 1,109,-1
 132 126 l 1,110,-1
 132 120 l 2,111,112
 132 103 132 103 138 87 c 128,-1,113
 144 71 144 71 161 54 c 0,114,115
 167 48 167 48 181 47 c 2,116,-1
 201 49 l 2,117,118
 215 52 215 52 225.5 67 c 128,-1,119
 236 82 236 82 240 104 c 2,120,-1
 246 141 l 1,121,-1
 249 171 l 1,100,-1
EndSplineSet
EndChar

StartChar: uniE10A
Encoding: 57610 57610 55
Width: 1295
Flags: MW
LayerCount: 2
Fore
SplineSet
716 260 m 1,0,-1
 608 260 l 2,1,2
 593 260 593 260 578 244 c 2,3,-1
 562 226 l 2,4,5
 553 217 553 217 550 208 c 2,6,-1
 548 172 l 1,7,-1
 547 152 l 1,8,-1
 547 138 l 2,9,10
 547 119 547 119 549 107.5 c 128,-1,11
 551 96 551 96 560 80 c 0,12,13
 569 60 569 60 578 52 c 1,14,-1
 616 44 l 1,15,-1
 637 40 l 1,16,-1
 651 40 l 2,17,18
 666 40 666 40 684 52 c 0,19,20
 716 75 716 75 716 92 c 2,21,-1
 716 260 l 1,0,-1
616 476 m 1,22,-1
 616 312 l 1,23,-1
 712 312 l 1,24,-1
 712 476 l 1,25,-1
 616 476 l 1,22,-1
260 232 m 0,26,27
 226 232 226 232 199 210.5 c 128,-1,28
 172 189 172 189 172 156 c 0,29,30
 172 119 172 119 190 89 c 0,31,32
 208 65 208 65 244 56 c 1,33,-1
 263 54 l 2,34,35
 292 54 292 54 314 69 c 128,-1,36
 336 84 336 84 348 116 c 1,37,-1
 351 139 l 1,38,39
 351 175 351 175 323.5 203.5 c 128,-1,40
 296 232 296 232 260 232 c 0,26,27
846 308 m 2,41,42
 871 308 871 308 895 297 c 0,43,44
 912 289 912 289 934 273 c 128,-1,45
 956 257 956 257 966 220.5 c 128,-1,46
 976 184 976 184 976 160 c 0,47,48
 976 144 976 144 976 129 c 0,49,50
 973 113 973 113 971 95 c 128,-1,51
 969 77 969 77 959 46 c 0,52,53
 941 -25 941 -25 910 -55 c 1,54,-1
 913 -59 l 1,55,56
 924 -62 924 -62 955 -62 c 2,57,-1
 1018 -61 l 1,58,-1
 1095 -60 l 1,59,-1
 1095 510 l 1,60,-1
 1160 510 l 1,61,-1
 1160 -120 l 1,62,-1
 64 -120 l 1,63,-1
 64 -64 l 1,64,-1
 575 -65 l 1,65,-1
 735 -65 l 1,66,-1
 769 -61 l 2,67,68
 809 -55 809 -55 833 -45.5 c 128,-1,69
 857 -36 857 -36 878 7 c 0,70,71
 884 22 884 22 889 36 c 0,72,73
 890 39 890 39 898 67 c 128,-1,74
 906 95 906 95 911 141 c 2,75,-1
 916 204 l 2,76,77
 916 237 916 237 873 247 c 1,78,-1
 764 256 l 1,79,-1
 764 112 l 1,80,-1
 763 86 l 2,81,82
 763 77 763 77 755 57 c 0,83,84
 749 38 749 38 733.5 22.5 c 128,-1,85
 718 7 718 7 689 1.5 c 128,-1,86
 660 -4 660 -4 624 -4 c 2,87,-1
 602 -3 l 2,88,89
 552 3 552 3 516 36 c 1,90,91
 487 70 487 70 487 133 c 0,92,93
 487 244 487 244 528 278 c 1,94,-1
 546 290 l 1,95,-1
 535 311 l 2,96,97
 530 323 530 323 519.5 336.5 c 128,-1,98
 509 350 509 350 496 362 c 2,99,-1
 464 392 l 2,100,101
 448 408 448 408 422 418 c 0,102,103
 414 421 414 421 401 424 c 128,-1,104
 388 427 388 427 356 432 c 1,105,106
 319 432 319 432 306.5 430.5 c 128,-1,107
 294 429 294 429 266 422.5 c 128,-1,108
 238 416 238 416 210 395 c 2,109,-1
 185 374 l 1,110,-1
 166 344 l 2,111,112
 154 322 154 322 146 273 c 2,113,-1
 140 216 l 1,114,115
 157 245 157 245 190 267 c 128,-1,116
 223 289 223 289 253 289 c 2,117,-1
 270 288 l 2,118,119
 315 282 315 282 357 252 c 0,120,121
 392 231 392 231 396 216 c 2,122,-1
 411 170 l 2,123,124
 417 149 417 149 417 126 c 2,125,-1
 417 114 l 1,126,-1
 415 97 l 2,127,128
 413 87 413 87 404 66 c 128,-1,129
 395 45 395 45 369 28 c 0,130,131
 354 20 354 20 318 12 c 2,132,-1
 264 5 l 1,133,134
 202 5 202 5 150 48 c 0,135,136
 126 67 126 67 109 94 c 1,137,-1
 96 122 l 1,138,-1
 84 157 l 2,139,140
 73 198 73 198 73 229 c 0,141,142
 73 248 73 248 76 266.5 c 128,-1,143
 79 285 79 285 87 306 c 2,144,-1
 110 373 l 2,145,146
 122 401 122 401 152 428 c 0,147,148
 189 459 189 459 232 476 c 0,149,150
 259 487 259 487 285.5 493 c 128,-1,151
 312 499 312 499 335 499 c 2,152,-1
 388 495 l 2,153,154
 404 495 404 495 417 491 c 128,-1,155
 430 487 430 487 447 478 c 2,156,-1
 494 454 l 1,157,158
 510 436 510 436 519 427 c 0,159,160
 535 409 535 409 546 385 c 128,-1,161
 557 361 557 361 569 336 c 0,162,163
 575 322 575 322 572 314 c 1,164,-1
 572 524 l 1,165,-1
 868 524 l 1,166,-1
 868 476 l 1,167,-1
 760 476 l 1,168,169
 760 453 760 453 759.5 428 c 128,-1,170
 759 403 759 403 759 367 c 0,171,172
 759 346 759 346 759 330.5 c 128,-1,173
 759 315 759 315 760 314 c 2,174,-1
 846 308 l 2,41,42
EndSplineSet
Ligature2: "'akhn' Akhand lookup 1-1" u1131E u1134D u1131A
EndChar

StartChar: u11308
Encoding: 70408 70408 56
Width: 1368
Flags: MW
LayerCount: 2
Fore
SplineSet
1287 298 m 0,0,1
 1287 235 1287 235 1247.5 188 c 128,-1,2
 1208 141 1208 141 1148 141 c 0,3,4
 1086 141 1086 141 1038.5 180 c 128,-1,5
 991 219 991 219 991 280 c 0,6,7
 991 342 991 342 1030 389.5 c 128,-1,8
 1069 437 1069 437 1130 437 c 0,9,10
 1193 437 1193 437 1240 397.5 c 128,-1,11
 1287 358 1287 358 1287 298 c 0,0,1
972 468 m 1,12,-1
 912 468 l 1,13,-1
 912 231 l 2,14,15
 912 183 912 183 882 126 c 0,16,17
 849 63 849 63 808 63 c 0,18,19
 763 63 763 63 724 117 c 0,20,21
 687 174 687 174 687 225 c 2,22,-1
 687 468 l 1,23,-1
 440 468 l 1,24,-1
 440 -15 l 1,25,-1
 383 -15 l 1,26,-1
 383 519 l 1,27,-1
 461 519 l 1,28,-1
 972 519 l 1,29,-1
 972 468 l 1,12,-1
363 298 m 0,30,31
 363 235 363 235 323.5 188 c 128,-1,32
 284 141 284 141 224 141 c 0,33,34
 162 141 162 141 114.5 180 c 128,-1,35
 67 219 67 219 67 280 c 0,36,37
 67 342 67 342 106 389.5 c 128,-1,38
 145 437 145 437 206 437 c 0,39,40
 269 437 269 437 316 397.5 c 128,-1,41
 363 358 363 358 363 298 c 0,30,31
1230 290 m 0,42,43
 1230 330 1230 330 1203 357 c 0,44,45
 1176 381 1176 381 1132 381 c 0,46,47
 1094 381 1094 381 1070 356 c 0,48,49
 1050 331 1050 331 1050 289 c 0,50,51
 1050 249 1050 249 1075 224 c 0,52,53
 1100 201 1100 201 1142 201 c 0,54,55
 1186 201 1186 201 1208 225 c 128,-1,56
 1230 249 1230 249 1230 290 c 0,42,43
858 231 m 2,57,-1
 858 465 l 1,58,-1
 744 465 l 1,59,-1
 744 217 l 2,60,61
 747 190 747 190 765 153.5 c 128,-1,62
 783 117 783 117 807 117 c 0,63,64
 828 117 828 117 843 158.5 c 128,-1,65
 858 200 858 200 858 231 c 2,57,-1
309 293 m 0,66,67
 309 333 309 333 281.5 357 c 128,-1,68
 254 381 254 381 208 381 c 0,69,70
 167 381 167 381 145 356 c 128,-1,71
 123 331 123 331 123 289 c 0,72,73
 123 249 123 249 148 224 c 0,74,75
 173 201 173 201 215 201 c 0,76,77
 256 201 256 201 282.5 225 c 128,-1,78
 309 249 309 249 309 293 c 0,66,67
EndSplineSet
EndChar

StartChar: uniE108
Encoding: 57608 57608 57
Width: 920
Flags: MW
LayerCount: 2
Fore
SplineSet
906 205 m 2,0,-1
 905 179 l 2,1,2
 905 170 905 170 898 152 c 0,3,4
 893 134 893 134 873 109 c 0,5,6
 827 50 827 50 813 39 c 0,7,8
 789 22 789 22 689 -6 c 1,9,-1
 630 1 l 2,10,11
 618 2 618 2 604 8 c 128,-1,12
 590 14 590 14 581 18 c 2,13,-1
 552 35 l 2,14,15
 522 55 522 55 502 73 c 1,16,-1
 478 108 l 1,17,18
 467 81 467 81 443 55 c 0,19,20
 413 19 413 19 362 5 c 0,21,22
 325 -3 325 -3 257 -3 c 0,23,24
 206 -3 206 -3 171 9 c 0,25,26
 132 24 132 24 111 63 c 0,27,28
 96 92 96 92 96 129 c 0,29,30
 96 148 96 148 102 163 c 128,-1,31
 108 178 108 178 124 193 c 128,-1,32
 140 208 140 208 158 211 c 0,33,34
 158 212 158 212 145.5 212.5 c 128,-1,35
 133 213 133 213 112 213 c 0,36,37
 83 213 83 213 63.5 213 c 128,-1,38
 44 213 44 213 26 212 c 1,39,-1
 26 266 l 1,40,-1
 384 266 l 1,41,-1
 406 289 l 2,42,43
 415 298 415 298 419 312 c 2,44,-1
 421 333 l 1,45,-1
 422 349 l 1,46,-1
 427 374 l 2,47,48
 427 389 427 389 418.5 404 c 128,-1,49
 410 419 410 419 399 425 c 2,50,-1
 373 440 l 1,51,-1
 351 451 l 1,52,-1
 326 457 l 1,53,-1
 291 461 l 1,54,55
 297 458 297 458 304 456 c 0,56,57
 329 448 329 448 342.5 438 c 128,-1,58
 356 428 356 428 364 412 c 2,59,-1
 372 388 l 1,60,-1
 375 376 l 1,61,-1
 376 368 l 2,62,63
 376 358 376 358 371 350 c 2,64,-1
 356 327 l 2,65,66
 347 310 347 310 334 303 c 2,67,-1
 302 289 l 1,68,-1
 268 275 l 1,69,-1
 240 271 l 1,70,-1
 217 274 l 1,71,-1
 188 282 l 1,72,-1
 155 295 l 2,73,74
 146 301 146 301 131 319 c 0,75,76
 107 351 107 351 107 387 c 1,77,-1
 110 411 l 2,78,79
 116 438 116 438 127.5 452.5 c 128,-1,80
 139 467 139 467 175 491 c 0,81,82
 192 501 192 501 219 507 c 2,83,-1
 257 512 l 1,84,-1
 278 513 l 2,85,86
 297 513 297 513 319 512.5 c 128,-1,87
 341 512 341 512 352 509 c 128,-1,88
 363 506 363 506 423 470 c 0,89,90
 475 438 475 438 475 367 c 2,91,-1
 475 353 l 1,92,-1
 473 338 l 2,93,94
 473 320 473 320 467.5 302.5 c 128,-1,95
 462 285 462 285 450 269 c 1,96,-1
 628 269 l 1,97,-1
 628 214 l 1,98,-1
 365 214 l 1,99,100
 344 206 344 206 321.5 200.5 c 128,-1,101
 299 195 299 195 269 195 c 0,102,103
 251 195 251 195 230.5 190.5 c 128,-1,104
 210 186 210 186 189 179.5 c 128,-1,105
 168 173 168 173 158 148 c 2,106,-1
 151 123 l 1,107,-1
 150 108 l 2,108,109
 150 100 150 100 156 89 c 0,110,111
 177 62 177 62 199.5 53 c 128,-1,112
 222 44 222 44 253 44 c 2,113,-1
 278 44 l 1,114,-1
 305 45 l 2,115,116
 336 45 336 45 359.5 53.5 c 128,-1,117
 383 62 383 62 407 90 c 2,118,-1
 423 111 l 1,119,-1
 438 138 l 1,120,-1
 474 200 l 1,121,-1
 502 147 l 1,122,-1
 510 130 l 1,123,-1
 522 118 l 1,124,-1
 542 103 l 1,125,-1
 567 86 l 1,126,-1
 605 63 l 1,127,-1
 644 48 l 1,128,-1
 679 45 l 1,129,130
 733 45 733 45 775.5 75.5 c 128,-1,131
 818 106 818 106 842 164 c 0,132,133
 844 170 844 170 849.5 190 c 128,-1,134
 855 210 855 210 855 226 c 0,135,136
 855 253 855 253 845 282 c 0,137,138
 840 300 840 300 834 311 c 2,139,-1
 816 342 l 1,140,-1
 807 357 l 2,141,142
 783 403 783 403 772 416 c 2,143,-1
 741 456 l 1,144,145
 704 484 704 484 704 497 c 0,146,147
 704 502 704 502 712.5 509 c 128,-1,148
 721 516 721 516 733 517 c 0,149,150
 743 517 743 517 751 510 c 2,151,-1
 776 489 l 1,152,-1
 801 460 l 1,153,-1
 827 424 l 2,154,155
 851 388 851 388 870 344 c 2,156,-1
 883 308 l 1,157,-1
 896 269 l 2,158,159
 906 229 906 229 906 205 c 2,0,-1
326 369 m 1,160,161
 320 388 320 388 312 401 c 0,162,163
 301 418 301 418 288 426 c 2,164,-1
 244 452 l 1,165,-1
 212 445 l 2,166,167
 204 444 204 444 193 434 c 2,168,-1
 168 412 l 2,169,170
 160 404 160 404 155 385 c 0,171,172
 149 358 149 358 179 339.5 c 128,-1,173
 209 321 209 321 245 321 c 0,174,175
 299 321 299 321 326 369 c 1,160,161
EndSplineSet
Ligature2: "'akhn' Akhand lookup 1-1" u11326 u1134D u11327
EndChar

StartChar: u11316
Encoding: 70422 70422 58
Width: 1050
Flags: MW
LayerCount: 2
Fore
SplineSet
948 5 m 1,0,-1
 435 5 l 1,1,-1
 434 74 l 1,2,-1
 433 138 l 2,3,4
 433 222 433 222 439 254 c 1,5,-1
 454 269 l 1,6,-1
 505 223 l 1,7,8
 559 158 559 158 582 158 c 0,9,10
 615 161 615 161 628 201 c 0,11,12
 637 228 637 228 637 284 c 0,13,14
 637 347 637 347 541.5 420.5 c 128,-1,15
 446 494 446 494 350 494 c 0,16,17
 213 494 213 494 154 448 c 0,18,19
 82 392 82 392 82 245 c 0,20,21
 82 186 82 186 85 161.5 c 128,-1,22
 88 137 88 137 112 110 c 1,23,24
 112 163 112 163 150 198 c 128,-1,25
 188 233 188 233 239 233 c 2,26,-1
 250 233 l 2,27,28
 284 233 284 233 316.5 190 c 128,-1,29
 349 147 349 147 349 101 c 0,30,31
 349 44 349 44 311 19 c 0,32,33
 280 -1 280 -1 230 -1 c 2,34,-1
 219 -1 l 1,35,-1
 209 -1 l 1,36,-1
 198 1 l 1,37,-1
 169 5 l 2,38,39
 96 17 96 17 53 115 c 0,40,41
 47 130 47 130 41 147.5 c 128,-1,42
 35 165 35 165 30.5 186 c 128,-1,43
 26 207 26 207 24 224 c 128,-1,44
 22 241 22 241 22 263 c 0,45,46
 22 389 22 389 88 458 c 0,47,48
 166 539 166 539 349 539 c 0,49,50
 472 539 472 539 584 454 c 128,-1,51
 696 369 696 369 696 284 c 0,52,53
 696 250 696 250 690 219.5 c 128,-1,54
 684 189 684 189 670 160 c 0,55,56
 638 89 638 89 585 89 c 0,57,58
 561 89 561 89 529 121 c 0,59,60
 484 169 484 169 484 176 c 1,61,-1
 485 107 l 1,62,-1
 486 53 l 1,63,-1
 891 53 l 1,64,-1
 889 530 l 1,65,-1
 949 527 l 1,66,-1
 948 5 l 1,0,-1
303 108 m 0,67,68
 303 142 303 142 283 166.5 c 128,-1,69
 263 191 263 191 232 191 c 0,70,71
 199 191 199 191 174 171 c 128,-1,72
 149 151 149 151 149 120 c 0,73,74
 149 87 149 87 168.5 62.5 c 128,-1,75
 188 38 188 38 220 38 c 0,76,77
 253 38 253 38 278 57.5 c 128,-1,78
 303 77 303 77 303 108 c 0,67,68
EndSplineSet
EndChar

StartChar: uniE107
Encoding: 57607 57607 59
Width: 1190
Flags: MW
LayerCount: 2
Fore
SplineSet
689 186 m 0,0,1
 686 208 686 208 678 220 c 0,2,3
 669 237 669 237 650 237 c 0,4,5
 635 237 635 237 617 242 c 2,6,-1
 589 248 l 2,7,8
 578 248 578 248 570 233 c 1,9,10
 566 217 566 217 565.5 208.5 c 128,-1,11
 565 200 565 200 565 195 c 2,12,-1
 568 145 l 1,13,-1
 574 93 l 2,14,15
 577 68 577 68 591.5 53.5 c 128,-1,16
 606 39 606 39 627 39 c 0,17,18
 656 36 656 36 681 64 c 0,19,20
 696 79 696 79 696 121 c 2,21,-1
 694 150 l 2,22,23
 694 168 694 168 689 186 c 0,0,1
298 291 m 1,24,-1
 298 443 l 1,25,-1
 208 445 l 1,26,-1
 207 291 l 1,27,-1
 298 291 l 1,24,-1
300 68 m 2,28,-1
 300 231 l 1,29,-1
 178 231 l 2,30,31
 151 231 151 231 138 218 c 0,32,33
 119 199 119 199 119 144 c 2,34,-1
 122 96 l 1,35,-1
 125 79 l 1,36,-1
 131 62 l 2,37,38
 149 22 149 22 195 15 c 1,39,-1
 216 14 l 2,40,41
 254 14 254 14 277 31 c 128,-1,42
 300 48 300 48 300 68 c 2,28,-1
560 305 m 1,43,-1
 604 298 l 1,44,-1
 657 294 l 2,45,46
 680 294 680 294 697 283 c 0,47,48
 705 279 705 279 725 256 c 0,49,50
 740 235 740 235 749 204.5 c 128,-1,51
 758 174 758 174 758 127 c 0,52,53
 758 51 758 51 726 18 c 0,54,55
 713 6 713 6 678 0 c 0,56,57
 656 -3 656 -3 644 -4 c 128,-1,58
 632 -5 632 -5 605 -5 c 0,59,60
 542 -5 542 -5 521 61 c 0,61,62
 516 75 516 75 512 107 c 2,63,-1
 509 181 l 1,64,-1
 485 240 l 1,65,-1
 439 234 l 1,66,-1
 405 233 l 1,67,-1
 378 233 l 2,68,69
 366 233 366 233 361 235 c 1,70,-1
 361 84 l 2,71,72
 361 36 361 36 321 -1.5 c 128,-1,73
 281 -39 281 -39 210 -39 c 2,74,-1
 187 -38 l 2,75,76
 130 -32 130 -32 92 6 c 0,77,78
 59 44 59 44 59 113 c 0,79,80
 59 230 59 230 106 270 c 1,81,-1
 148 282 l 1,82,-1
 150 364 l 1,83,-1
 151 427 l 1,84,-1
 151 439 l 2,85,86
 151 484 151 484 148 496 c 1,87,-1
 476 495 l 1,88,-1
 476 445 l 1,89,-1
 355 445 l 1,90,-1
 358 421 l 1,91,-1
 359 367 l 1,92,-1
 359 353 l 1,93,-1
 359 341 l 1,94,-1
 359 308 l 1,95,-1
 358 292 l 1,96,-1
 377 292 l 1,97,-1
 395 292 l 2,98,99
 404 292 404 292 409 294 c 2,100,-1
 436 294 l 1,101,-1
 470 298 l 1,102,103
 507 298 507 298 507 352 c 0,104,105
 507 401 507 401 550 445 c 0,106,107
 585 482 585 482 615 496 c 0,108,109
 659 515 659 515 722 515 c 0,110,111
 807 515 807 515 860 450 c 0,112,113
 886 417 886 417 899.5 368 c 128,-1,114
 913 319 913 319 913 260 c 0,115,116
 913 125 913 125 892 63 c 0,117,118
 890 55 890 55 879 45 c 2,119,-1
 864 33 l 1,120,-1
 1010 33 l 1,121,-1
 1010 520 l 1,122,-1
 1080 520 l 1,123,-1
 1078 -21 l 1,124,-1
 734 -18 l 1,125,-1
 766 10 l 1,126,-1
 776 26 l 2,127,128
 777 29 777 29 779 32 c 128,-1,129
 781 35 781 35 786 40 c 2,130,-1
 813 71 l 2,131,132
 823 81 823 81 831 97 c 0,133,134
 840 110 840 110 844 132 c 2,135,-1
 848 175 l 1,136,-1
 847 211 l 1,137,-1
 847 223 l 1,138,-1
 845 243 l 1,139,140
 845 284 845 284 839 317 c 2,141,-1
 831 358 l 2,142,143
 831 367 831 367 822 388 c 0,144,145
 810 419 810 419 771 440 c 0,146,147
 728 459 728 459 689 459 c 0,148,149
 665 459 665 459 635 441 c 0,150,151
 620 431 620 431 597 408 c 1,152,-1
 583 373 l 1,153,-1
 560 305 l 1,43,-1
EndSplineSet
Ligature2: "'akhn' Akhand lookup 1-1" u11324 u1134D u11335
EndChar

StartChar: u11340
Encoding: 70464 70464 60
Width: 156
Flags: MW
LayerCount: 2
Fore
SplineSet
148 757 m 1,0,-1
 138 757 l 1,1,-1
 148 757 l 1,2,3
 148 711 148 711 119 688 c 0,4,5
 95 669 95 669 63 664 c 1,6,-1
 58 664 l 1,7,-1
 50 663 l 1,8,-1
 47 663 l 1,9,-1
 42 663 l 2,10,11
 21 663 21 663 3.5 671.5 c 128,-1,12
 -14 680 -14 680 -27 695 c 0,13,14
 -49 722 -49 722 -54 756 c 2,15,-1
 -55 763 l 1,16,-1
 -55 772 l 2,17,18
 -55 794 -55 794 -50 806 c 0,19,20
 -47 813 -47 813 -45 821 c 1,21,22
 -48 819 -48 819 -51 816 c 1,23,-1
 -29 816 l 1,24,-1
 -34 816 l 1,25,-1
 -74 810 l 2,26,27
 -101 805 -101 805 -129 783 c 2,28,-1
 -140 773 l 1,29,-1
 -150 763 l 2,30,31
 -162 751 -162 751 -171 732 c 1,32,-1
 -180 696 l 1,33,-1
 -182 683 l 1,34,-1
 -182 671 l 1,35,-1
 -181 652 l 1,36,-1
 -177 634 l 2,37,38
 -172 609 -172 609 -160 592 c 128,-1,39
 -148 575 -148 575 -136 565 c 0,40,41
 -129 559 -129 559 -124 556 c 128,-1,42
 -119 553 -119 553 -110 548 c 2,43,-1
 -81 535 l 1,44,-1
 -77 486 l 1,45,46
 -90 488 -90 488 -106 492 c 128,-1,47
 -122 496 -122 496 -130 499.5 c 128,-1,48
 -138 503 -138 503 -146.5 508 c 128,-1,49
 -155 513 -155 513 -167 522 c 0,50,51
 -187 536 -187 536 -209 565 c 0,52,53
 -228 593 -228 593 -236 639 c 2,54,-1
 -238 653 l 1,55,-1
 -238 670 l 2,56,57
 -238 706 -238 706 -225 739 c 0,58,59
 -219 758 -219 758 -211 771.5 c 128,-1,60
 -203 785 -203 785 -188 803 c 0,61,62
 -159 838 -159 838 -123.5 856.5 c 128,-1,63
 -88 875 -88 875 -51 884 c 1,64,-1
 -24 887 l 1,65,-1
 2 888 l 1,66,-1
 16 888 l 1,67,-1
 31 887 l 2,68,69
 59 887 59 887 81 875.5 c 128,-1,70
 103 864 103 864 120 843 c 0,71,72
 148 809 148 809 148 757 c 1,0,-1
76 778 m 1,73,-1
 66 776 l 1,74,75
 63 794 63 794 52 806 c 0,76,77
 46 814 46 814 28 816 c 2,78,-1
 26 816 l 2,79,80
 11 816 11 816 4 803 c 0,81,82
 1 796 1 796 -2 788 c 128,-1,83
 -5 780 -5 780 -5 768 c 2,84,-1
 -5 765 l 1,85,-1
 -4 760 l 2,86,87
 -3 747 -3 747 6 735 c 0,88,89
 15 726 15 726 24 722 c 2,90,-1
 29 720 l 1,91,-1
 37 719 l 1,92,-1
 38 719 l 1,93,94
 55 724 55 724 60.5 734.5 c 128,-1,95
 66 745 66 745 68 760 c 2,96,-1
 68 768 l 1,97,-1
 66 771 l 1,98,-1
 66 778 l 1,99,-1
 76 778 l 1,73,-1
EndSplineSet
Substitution2: "Alternate i/I markers-1" uniE210
EndChar

StartChar: backslash
Encoding: 92 92 61
Width: 313
Flags: MW
LayerCount: 2
Fore
SplineSet
286 171 m 1,0,-1
 191 171 l 1,1,-1
 130 -140 l 2,2,3
 109 -229 109 -229 6 -287 c 0,4,5
 -122 -357 -122 -357 -334 -357 c 0,6,7
 -354 -357 -354 -357 -394 -356 c 128,-1,8
 -434 -355 -434 -355 -455 -355 c 0,9,10
 -473 -355 -473 -355 -515.5 -354 c 128,-1,11
 -558 -353 -558 -353 -583 -353 c 0,12,13
 -632 -353 -632 -353 -650.5 -351.5 c 128,-1,14
 -669 -350 -669 -350 -702.5 -345.5 c 128,-1,15
 -736 -341 -736 -341 -765.5 -336 c 128,-1,16
 -795 -331 -795 -331 -830 -322 c 0,17,18
 -899 -306 -899 -306 -966 -284.5 c 128,-1,19
 -1033 -263 -1033 -263 -1100 -232 c 1,20,-1
 -1081 -171 l 1,21,22
 -1017 -198 -1017 -198 -950 -221 c 128,-1,23
 -883 -244 -883 -244 -812 -263 c 1,24,-1
 -689 -286 l 2,25,26
 -664 -290 -664 -290 -631.5 -293 c 128,-1,27
 -599 -296 -599 -296 -573 -296 c 2,28,-1
 -451 -298 l 1,29,-1
 -324 -301 l 2,30,31
 -164 -301 -164 -301 -50 -233 c 0,32,33
 44 -178 44 -178 57 -114 c 2,34,-1
 114 171 l 1,35,-1
 30 171 l 1,36,-1
 30 230 l 1,37,-1
 286 230 l 1,38,-1
 286 171 l 1,0,-1
EndSplineSet
EndChar

StartChar: u1133F
Encoding: 70463 70463 62
Width: 112
Flags: MW
LayerCount: 2
Fore
SplineSet
91 70 m 1,0,-1
 23 74 l 1,1,-1
 23 565 l 1,2,-1
 20 619 l 2,3,4
 14 655 14 655 1.5 664.5 c 128,-1,5
 -11 674 -11 674 -33 679 c 2,6,-1
 -84 682 l 1,7,-1
 -96 682 l 1,8,-1
 -117 682 l 1,9,-1
 -140 683 l 2,10,11
 -174 683 -174 683 -191 676 c 0,12,13
 -210 670 -210 670 -210 633 c 0,14,15
 -210 603 -210 603 -208 595 c 2,16,-1
 -204 565 l 1,17,-1
 -204 556 l 1,18,-1
 -196 556 l 1,19,-1
 -147 556 l 1,20,-1
 -147 510 l 1,21,-1
 -178 508 l 1,22,-1
 -199 508 l 2,23,24
 -221 508 -221 508 -227 513 c 2,25,-1
 -253 535 l 1,26,27
 -263 549 -263 549 -279 595 c 1,28,-1
 -282 626 l 2,29,30
 -282 650 -282 650 -280 655 c 2,31,-1
 -274 675 l 2,32,33
 -268 695 -268 695 -246 717 c 0,34,35
 -219 743 -219 743 -176 755 c 1,36,-1
 -128 759 l 1,37,-1
 -104 760 l 1,38,-1
 -55 759 l 2,39,40
 -30 759 -30 759 -18 755 c 0,41,42
 4 752 4 752 31 734 c 0,43,44
 45 725 45 725 58 707 c 2,45,-1
 80 671 l 1,46,-1
 88 642 l 1,47,-1
 91 610 l 1,48,-1
 91 70 l 1,0,-1
EndSplineSet
Substitution2: "Alternate i/I markers-1" uniE211
EndChar

StartChar: uniE104
Encoding: 57604 57604 63
Width: 889
Flags: MW
LayerCount: 2
Fore
SplineSet
787 321 m 2,0,1
 781 289 781 289 770.5 275.5 c 128,-1,2
 760 262 760 262 738 248 c 2,3,-1
 716 235 l 1,4,-1
 685 222 l 1,5,-1
 649 215 l 1,6,-1
 602 213 l 1,7,-1
 562 213 l 1,8,-1
 524 213 l 2,9,10
 501 213 501 213 481.5 209.5 c 128,-1,11
 462 206 462 206 455 201 c 0,12,13
 448 198 448 198 442 177 c 1,14,-1
 439 143 l 2,15,16
 439 124 439 124 448 104 c 128,-1,17
 457 84 457 84 476 65 c 1,18,-1
 519 45 l 2,19,20
 549 35 549 35 574 35 c 2,21,-1
 600 36 l 2,22,23
 610 36 610 36 627 43 c 2,24,-1
 673 59 l 1,25,-1
 694 69 l 2,26,27
 697 70 697 70 705 81 c 1,28,-1
 710 100 l 1,29,-1
 711 118 l 2,30,31
 711 129 711 129 707 140 c 2,32,-1
 700 159 l 1,33,-1
 696 178 l 2,34,35
 694 194 694 194 691 201 c 1,36,-1
 740 201 l 1,37,-1
 748 179 l 1,38,-1
 756 156 l 1,39,-1
 761 135 l 1,40,-1
 762 119 l 1,41,-1
 762 108 l 1,42,-1
 759 82 l 2,43,44
 756 63 756 63 748 52 c 2,45,-1
 736 31 l 1,46,-1
 720 21 l 1,47,-1
 678 1 l 2,48,49
 660 -5 660 -5 632 -8 c 2,50,-1
 578 -11 l 2,51,52
 532 -11 532 -11 502 -1 c 2,53,-1
 448 22 l 2,54,55
 419 34 419 34 401 73 c 0,56,57
 387 110 387 110 387 155 c 0,58,59
 387 218 387 218 427 246 c 1,60,61
 468 268 468 268 518 268 c 2,62,-1
 549 267 l 2,63,64
 574 267 574 267 577 265 c 2,65,-1
 591 264 l 1,66,-1
 603 264 l 2,67,68
 633 264 633 264 660.5 270 c 128,-1,69
 688 276 688 276 702 290 c 0,70,71
 733 315 733 315 733 343 c 0,72,73
 733 359 733 359 721 379 c 128,-1,74
 709 399 709 399 692 412 c 0,75,76
 684 418 684 418 674 423.5 c 128,-1,77
 664 429 664 429 646 438 c 2,78,-1
 624 446 l 1,79,-1
 605 452 l 1,80,-1
 564 458 l 1,81,-1
 525 461 l 2,82,83
 494 461 494 461 476 450 c 2,84,-1
 465 440 l 2,85,86
 456 431 456 431 453 419 c 2,87,-1
 441 372 l 1,88,-1
 431 327 l 1,89,-1
 386 327 l 1,90,-1
 372 378 l 2,91,92
 363 409 363 409 345 434 c 2,93,-1
 339 442 l 2,94,95
 332 450 332 450 315 461 c 1,96,-1
 299 467 l 1,97,-1
 281 469 l 1,98,-1
 261 467 l 2,99,100
 247 467 247 467 243 465 c 0,101,102
 225 465 225 465 208.5 461 c 128,-1,103
 192 457 192 457 172 449.5 c 128,-1,104
 152 442 152 442 136 419 c 1,105,-1
 163 422 l 1,106,-1
 182 424 l 2,107,108
 197 424 197 424 214 418 c 0,109,110
 226 415 226 415 243 397 c 0,111,112
 272 365 272 365 272 325 c 0,113,114
 272 291 272 291 252 271 c 0,115,116
 241 260 241 260 222 249 c 0,117,118
 204 241 204 241 186 241 c 2,119,-1
 166 243 l 1,120,-1
 134 248 l 2,121,122
 119 253 119 253 98 275 c 2,123,-1
 70 309 l 2,124,125
 64 321 64 321 64 366 c 0,126,127
 64 397 64 397 71 415 c 0,128,129
 77 435 77 435 91 453 c 0,130,131
 113 483 113 483 149 500 c 0,132,133
 168 507 168 507 230 516 c 1,134,-1
 246 517 l 1,135,-1
 270 518 l 2,136,137
 305 518 305 518 321 513 c 0,138,139
 344 510 344 510 363 495 c 0,140,141
 379 486 379 486 389 469 c 2,142,-1
 405 431 l 1,143,-1
 424 471 l 2,144,145
 441 501 441 501 462 504 c 2,146,-1
 502 509 l 1,147,-1
 539 511 l 1,148,-1
 565 511 l 1,149,-1
 628 504 l 2,150,151
 648 504 648 504 686 480 c 2,152,-1
 728 450 l 2,153,154
 790 405 790 405 790 344 c 1,155,-1
 787 321 l 2,0,1
218 328 m 0,156,157
 218 343 218 343 200.5 359 c 128,-1,158
 183 375 183 375 164 375 c 0,159,160
 149 375 149 375 134.5 366 c 128,-1,161
 120 357 120 357 119 342 c 0,162,163
 119 328 119 328 137 311 c 0,164,165
 156 297 156 297 173 297 c 0,166,167
 191 297 191 297 203 304 c 128,-1,168
 215 311 215 311 218 328 c 0,156,157
EndSplineSet
Ligature2: "'akhn' Akhand lookup 1-1" u1132E u1134D u1132E
EndChar

StartChar: u1131F
Encoding: 70431 70431 64
Width: 1145
Flags: MW
LayerCount: 2
Fore
SplineSet
1125 81 m 1,0,-1
 1116 0 l 1,1,-1
 612 0 l 1,2,-1
 612 -295 l 1,3,-1
 535 -295 l 1,4,-1
 531 0 l 1,5,-1
 36 0 l 1,6,-1
 36 416 l 1,7,-1
 117 416 l 1,8,-1
 117 81 l 1,9,-1
 1125 81 l 1,0,-1
EndSplineSet
EndChar

StartChar: u11339
Encoding: 70457 70457 65
Width: 1043
Flags: MW
LayerCount: 2
Fore
SplineSet
962 255 m 2,0,1
 962 133 962 133 953 77 c 128,-1,2
 944 21 944 21 925 -8 c 0,3,4
 889 -62 889 -62 817 -80 c 1,5,-1
 757 -87 l 1,6,-1
 663 -90 l 1,7,-1
 78 -90 l 1,8,-1
 81 -35 l 1,9,-1
 722 -35 l 1,10,-1
 762 -31 l 2,11,12
 776 -31 776 -31 788 -27 c 2,13,-1
 832 -15 l 2,14,15
 844 -12 844 -12 856 0 c 0,16,17
 868 9 868 9 877 27 c 2,18,-1
 892 74 l 1,19,-1
 898 106 l 1,20,-1
 906 233 l 1,21,-1
 908 288 l 1,22,-1
 906 314 l 1,23,-1
 908 340 l 1,24,-1
 906 371 l 1,25,-1
 903 396 l 1,26,-1
 898 414 l 2,27,28
 898 424 898 424 891 432 c 2,29,-1
 878 448 l 1,30,-1
 873 456 l 2,31,32
 867 468 867 468 856 469 c 2,33,-1
 848 469 l 1,34,-1
 838 470 l 1,35,-1
 824 467 l 2,36,37
 818 465 818 465 811 456 c 2,38,-1
 800 423 l 1,39,-1
 797 412 l 1,40,-1
 796 396 l 1,41,-1
 796 9 l 1,42,-1
 734 9 l 1,43,-1
 734 398 l 1,44,-1
 734 411 l 2,45,46
 734 418 734 418 732.5 428.5 c 128,-1,47
 731 439 731 439 723 453 c 0,48,49
 711 477 711 477 681 477 c 0,50,51
 665 477 665 477 652 449 c 1,52,-1
 646 425 l 1,53,-1
 644 398 l 1,54,-1
 644 28 l 1,55,-1
 644 -15 l 1,56,-1
 311 -15 l 1,57,-1
 311 26 l 1,58,59
 329 38 329 38 342 51 c 2,60,-1
 365 76 l 2,61,62
 374 85 374 85 381 104 c 2,63,-1
 391 131 l 2,64,65
 397 146 397 146 400 178 c 2,66,-1
 407 244 l 1,67,-1
 413 282 l 1,68,-1
 415 307 l 1,69,-1
 412 344 l 1,70,-1
 405 372 l 2,71,72
 402 387 402 387 394 401 c 1,73,74
 391 415 391 415 377 433 c 0,75,76
 365 451 365 451 356 454 c 2,77,-1
 334 460 l 1,78,-1
 280 467 l 2,79,80
 261 467 261 467 250 462 c 2,81,-1
 222 450 l 2,82,83
 210 445 210 445 198 434.5 c 128,-1,84
 186 424 186 424 177 407 c 1,85,-1
 171 384 l 2,86,87
 169 367 169 367 166 361 c 2,88,-1
 160 341 l 1,89,-1
 156 325 l 1,90,-1
 149 305 l 1,91,-1
 146 287 l 2,92,93
 146 277 146 277 142 268 c 2,94,-1
 141 262 l 1,95,-1
 146 268 l 2,96,97
 160 279 160 279 179 287 c 2,98,-1
 200 294 l 1,99,-1
 228 298 l 1,100,101
 278 298 278 298 307 247 c 0,102,103
 331 205 331 205 331 134 c 2,104,-1
 330 97 l 1,105,-1
 329 83 l 1,106,-1
 322 64 l 2,107,108
 310 26 310 26 275 3 c 0,109,110
 242 -16 242 -16 216 -16 c 0,111,112
 162 -16 162 -16 124 31 c 2,113,-1
 104 56 l 2,114,115
 92 73 92 73 85 89 c 1,116,-1
 81 111 l 1,117,-1
 80 139 l 1,118,-1
 79 173 l 1,119,-1
 79 230 l 2,120,121
 79 291 79 291 89 332 c 0,122,123
 92 348 92 348 110 400 c 0,124,125
 149 521 149 521 275 521 c 0,126,127
 361 521 361 521 403 492.5 c 128,-1,128
 445 464 445 464 461 403 c 1,129,130
 474 335 474 335 474 245 c 0,131,132
 474 189 474 189 458 141 c 2,133,-1
 454 127 l 2,134,135
 454 121 454 121 447 108 c 2,136,-1
 431 76 l 1,137,-1
 419 53 l 1,138,-1
 407 35 l 2,139,140
 404 29 404 29 398 29 c 1,141,-1
 405 42 l 1,142,-1
 581 43 l 1,143,-1
 582 410 l 2,144,145
 582 420 582 420 587 433 c 1,146,147
 587 445 587 445 593 459 c 0,148,149
 596 471 596 471 609 488 c 2,150,-1
 619 501 l 1,151,-1
 631 513 l 2,152,153
 651 530 651 530 677 530 c 2,154,-1
 716 527 l 1,155,-1
 734 519 l 1,156,-1
 753 507 l 1,157,-1
 768 481 l 1,158,-1
 770 475 l 1,159,-1
 771 472 l 1,160,-1
 766 472 l 1,161,-1
 757 478 l 1,162,-1
 755 465 l 1,163,-1
 757 472 l 1,164,-1
 760 482 l 1,165,-1
 765 492 l 2,166,167
 774 508 774 508 794 518 c 0,168,169
 805 521 805 521 815.5 523 c 128,-1,170
 826 525 826 525 838 525 c 0,171,172
 880 525 880 525 903 506 c 0,173,174
 912 500 912 500 933 470 c 0,175,176
 943 457 943 457 952 433 c 2,177,-1
 958 412 l 1,178,-1
 960 386 l 1,179,-1
 962 255 l 2,0,1
277 194 m 0,180,181
 268 230 268 230 237 242 c 1,182,-1
 218 246 l 1,183,184
 198 246 198 246 179.5 232 c 128,-1,185
 161 218 161 218 147 191 c 2,186,-1
 138 167 l 1,187,-1
 134 144 l 1,188,189
 134 119 134 119 145 94 c 2,190,-1
 166 56 l 2,191,192
 177 40 177 40 192 36 c 2,193,-1
 215 34 l 2,194,195
 241 34 241 34 257 51 c 0,196,197
 284 78 284 78 284 138 c 0,198,199
 284 169 284 169 277 194 c 0,180,181
EndSplineSet
EndChar

StartChar: u11337
Encoding: 70455 70455 66
Width: 910
Flags: MW
LayerCount: 2
Fore
SplineSet
837 35 m 1,0,-1
 667 35 l 1,1,-1
 483 -194 l 1,2,-1
 430 -151 l 1,3,-1
 576 30 l 1,4,-1
 280 31 l 1,5,-1
 319 66 l 1,6,7
 341 80 341 80 339 87 c 1,8,-1
 344 88 l 1,9,-1
 368 128 l 1,10,-1
 381 154 l 1,11,12
 387 175 387 175 390 207 c 2,13,-1
 392 266 l 1,14,-1
 392 296 l 2,15,16
 392 331 392 331 380 384 c 0,17,18
 374 418 374 418 361 447 c 0,19,20
 349 478 349 478 317 490.5 c 128,-1,21
 285 503 285 503 239 503 c 0,22,23
 210 503 210 503 185 489 c 0,24,25
 160 477 160 477 144 458 c 1,26,-1
 135 439 l 1,27,-1
 122 408 l 1,28,-1
 114 376 l 1,29,-1
 112 360 l 1,30,-1
 112 346 l 1,31,-1
 112 335 l 1,32,-1
 112 319 l 1,33,34
 154 344 154 344 204 344 c 0,35,36
 226 344 226 344 234 339 c 2,37,-1
 267 310 l 1,38,-1
 293 249 l 2,39,40
 303 219 303 219 303 182 c 0,41,42
 303 146 303 146 296.5 127.5 c 128,-1,43
 290 109 290 109 271 82 c 0,44,45
 267 78 267 78 253 67 c 0,46,47
 246 61 246 61 234 53 c 0,48,49
 208 38 208 38 179 38 c 0,50,51
 97 38 97 38 70 107 c 0,52,53
 53 156 53 156 53 278 c 0,54,55
 53 431 53 431 84 484 c 0,56,57
 105 523 105 523 150.5 544 c 128,-1,58
 196 565 196 565 269 565 c 0,59,60
 354 565 354 565 407 500 c 0,61,62
 430 471 430 471 440 411 c 2,63,-1
 447 349 l 1,64,-1
 450 280 l 1,65,-1
 450 268 l 2,66,67
 450 231 450 231 447 207 c 2,68,-1
 435 135 l 1,69,-1
 435 123 l 2,70,71
 435 115 435 115 433 111 c 0,72,73
 433 106 433 106 427 95 c 1,74,-1
 555 94 l 1,75,-1
 548 111 l 1,76,-1
 535 150 l 2,77,78
 528 170 528 170 523 191 c 128,-1,79
 518 212 518 212 512 238 c 0,80,81
 504 283 504 283 504 317 c 0,82,83
 504 416 504 416 531 479 c 0,84,85
 572 572 572 572 659 572 c 0,86,87
 734 572 734 572 773 514 c 0,88,89
 788 492 788 492 802 441 c 1,90,-1
 809 391 l 1,91,-1
 812 330 l 1,92,93
 812 246 812 246 762 159 c 1,94,-1
 741 126 l 1,95,-1
 719 95 l 1,96,-1
 837 95 l 1,97,-1
 837 35 l 1,0,-1
747 321 m 1,98,-1
 747 346 l 1,99,-1
 748 372 l 1,100,-1
 747 392 l 1,101,-1
 746 403 l 1,102,-1
 739 420 l 1,103,-1
 726 457 l 2,104,105
 720 481 720 481 697.5 493.5 c 128,-1,106
 675 506 675 506 656 506 c 0,107,108
 638 506 638 506 617 482 c 0,109,110
 600 461 600 461 588 429 c 1,111,-1
 582 385 l 1,112,-1
 579 317 l 2,113,114
 579 250 579 250 600 184 c 1,115,-1
 619 136 l 1,116,-1
 638 102 l 1,117,-1
 664 131 l 2,118,119
 679 149 679 149 688 167 c 2,120,-1
 718 228 l 1,121,-1
 732 261 l 1,122,-1
 747 321 l 1,98,-1
255 186 m 0,123,124
 255 233 255 233 241 261 c 0,125,126
 228 291 228 291 191 298 c 0,127,128
 155 303 155 303 129 268.5 c 128,-1,129
 103 234 103 234 103 190 c 0,130,131
 103 147 103 147 123 116.5 c 128,-1,132
 143 86 143 86 179 86 c 0,133,134
 211 86 211 86 234 116 c 0,135,136
 255 146 255 146 255 186 c 0,123,124
EndSplineSet
EndChar

StartChar: u11323
Encoding: 70435 70435 67
Width: 1162
Flags: MW
LayerCount: 2
Fore
SplineSet
1044 467 m 1,0,-1
 974 467 l 1,1,-1
 974 0 l 1,2,-1
 959 0 l 1,3,-1
 959 -15 l 1,4,-1
 912 -15 l 1,5,-1
 912 465 l 1,6,-1
 836 465 l 1,7,-1
 810 466 l 1,8,-1
 781 466 l 2,9,10
 761 466 761 466 756 464 c 1,11,-1
 755 467 l 1,12,-1
 752 479 l 1,13,-1
 778 457 l 2,14,15
 793 445 793 445 803 420 c 2,16,-1
 819 379 l 1,17,-1
 827 340 l 1,18,-1
 832 299 l 1,19,-1
 834 252 l 1,20,21
 834 124 834 124 803 41 c 0,22,23
 795 20 795 20 764 0 c 0,24,25
 734 -16 734 -16 707 -16 c 2,26,-1
 683 -15 l 1,27,-1
 655 -6 l 2,28,29
 638 2 638 2 615 24 c 1,30,-1
 603 45 l 1,31,-1
 590 74 l 1,32,-1
 579 141 l 1,33,-1
 576 225 l 1,34,-1
 577 275 l 1,35,-1
 580 332 l 1,36,-1
 583 364 l 1,37,-1
 590 402 l 1,38,-1
 594 416 l 2,39,40
 600 429 600 429 614 445 c 2,41,-1
 624 457 l 1,42,-1
 597 461 l 1,43,-1
 548 462 l 1,44,-1
 536 462 l 1,45,-1
 515 462 l 1,46,-1
 487 459 l 1,47,-1
 482 455 l 1,48,-1
 493 445 l 2,49,50
 519 424 519 424 529 406 c 0,51,52
 546 373 546 373 552 336 c 0,53,54
 555 306 555 306 555 240 c 2,55,-1
 555 211 l 1,56,-1
 554 172 l 2,57,58
 554 157 554 157 552 152 c 2,59,-1
 546 129 l 1,60,-1
 540 99 l 1,61,-1
 533 72 l 2,62,63
 528 50 528 50 523 41 c 0,64,65
 511 17 511 17 484 -1 c 0,66,67
 459 -15 459 -15 428 -15 c 0,68,69
 411 -15 411 -15 394 -6.5 c 128,-1,70
 377 2 377 2 360 19 c 2,71,-1
 346 36 l 1,72,-1
 334 61 l 1,73,-1
 324 97 l 1,74,-1
 315 135 l 1,75,-1
 308 193 l 1,76,-1
 306 239 l 1,77,-1
 309 288 l 1,78,-1
 317 349 l 1,79,-1
 324 380 l 1,80,-1
 336 412 l 2,81,82
 341 427 341 427 349.5 440 c 128,-1,83
 358 453 358 453 367 460 c 1,84,-1
 368 456 l 1,85,-1
 339 462 l 1,86,-1
 304 464 l 1,87,-1
 283 463 l 1,88,-1
 261 459 l 1,89,90
 234 447 234 447 206 426 c 0,91,92
 190 412 190 412 167 371 c 2,93,-1
 154 345 l 1,94,-1
 140 304 l 1,95,-1
 132 269 l 1,96,-1
 129 242 l 1,97,-1
 128 249 l 1,98,-1
 116 248 l 1,99,-1
 108 246 l 1,100,-1
 134 270 l 1,101,-1
 162 285 l 1,102,-1
 176 289 l 1,103,-1
 196 291 l 1,104,105
 243 291 243 291 274 247 c 1,106,-1
 289 215 l 1,107,-1
 296 182 l 1,108,-1
 298 109 l 2,109,110
 298 72 298 72 280 39 c 1,111,-1
 269 25 l 1,112,-1
 236 -2 l 1,113,-1
 182 -15 l 1,114,115
 158 -15 158 -15 141 -7.5 c 128,-1,116
 124 0 124 0 107 23 c 0,117,118
 94 43 94 43 81 83 c 0,119,120
 77 100 77 100 74 125.5 c 128,-1,121
 71 151 71 151 71 179 c 0,122,123
 71 236 71 236 80 292 c 2,124,-1
 86 319 l 1,125,-1
 94 342 l 1,126,-1
 104 368 l 1,127,-1
 117 393 l 2,128,129
 149 451 149 451 178 474 c 0,130,131
 215 505 215 505 275 514 c 1,132,-1
 306 515 l 1,133,-1
 345 514 l 1,134,-1
 361 514 l 2,135,136
 371 514 371 514 382 510 c 0,137,138
 414 507 414 507 430 491 c 1,139,-1
 434 496 l 1,140,-1
 446 504 l 2,141,142
 448 505 448 505 461.5 509 c 128,-1,143
 475 513 475 513 484 515 c 2,144,-1
 535 516 l 1,145,-1
 588 517 l 1,146,-1
 628 517 l 1,147,-1
 652 513 l 1,148,-1
 674 506 l 1,149,-1
 689 501 l 1,150,-1
 706 508 l 2,151,152
 727 520 727 520 740 520 c 2,153,-1
 1044 521 l 1,154,-1
 1044 467 l 1,0,-1
774 224 m 1,155,-1
 772 290 l 2,156,157
 772 326 772 326 763 356 c 0,158,159
 757 384 757 384 745 408 c 0,160,161
 742 418 742 418 724.5 429.5 c 128,-1,162
 707 441 707 441 693 445 c 0,163,164
 684 445 684 445 669.5 421.5 c 128,-1,165
 655 398 655 398 648 369 c 0,166,167
 636 304 636 304 636 238 c 0,168,169
 636 127 636 127 647 95 c 128,-1,170
 658 63 658 63 663.5 55 c 128,-1,171
 669 47 669 47 699 34 c 0,172,173
 708 29 708 29 729 40.5 c 128,-1,174
 750 52 750 52 759 86 c 2,175,-1
 770 150 l 1,176,-1
 774 224 l 1,155,-1
500 163 m 1,177,-1
 499 187 l 1,178,-1
 499 215 l 1,179,-1
 500 243 l 1,180,-1
 500 294 l 2,181,182
 500 318 500 318 494 339 c 2,183,-1
 483 367 l 2,184,185
 477 384 477 384 456 408.5 c 128,-1,186
 435 433 435 433 422 437 c 0,187,188
 413 437 413 437 399 411 c 0,189,190
 387 385 387 385 378 356 c 0,191,192
 363 291 363 291 363 241 c 0,193,194
 363 172 363 172 375 113 c 0,195,196
 380 85 380 85 391.5 64 c 128,-1,197
 403 43 403 43 423 37 c 1,198,199
 444 37 444 37 459 49 c 0,200,201
 468 56 468 56 485 95 c 1,202,-1
 492 123 l 1,203,-1
 500 163 l 1,177,-1
244 135 m 1,204,-1
 245 163 l 1,205,-1
 244 181 l 1,206,-1
 238 197 l 1,207,-1
 223 222 l 2,208,209
 214 234 214 234 200 235 c 0,210,211
 187 235 187 235 176.5 231.5 c 128,-1,212
 166 228 166 228 153 218 c 2,213,-1
 133 199 l 2,214,215
 122 188 122 188 122 167 c 2,216,-1
 124 145 l 1,217,-1
 129 111 l 1,218,-1
 134 88 l 2,219,220
 137 76 137 76 152 59 c 2,221,-1
 168 46 l 1,222,-1
 187 41 l 2,223,224
 202 41 202 41 209 46 c 128,-1,225
 216 51 216 51 222 59 c 128,-1,226
 228 67 228 67 231 71 c 2,227,-1
 241 92 l 1,228,-1
 244 117 l 1,229,-1
 244 135 l 1,204,-1
EndSplineSet
EndChar

StartChar: u11309
Encoding: 70409 70409 68
Width: 1029
Flags: MW
LayerCount: 2
Fore
SplineSet
269 283 m 256,0,1
 269 312 269 312 261 329 c 0,2,3
 255 346 255 346 231 352 c 0,4,5
 206 355 206 355 185 341.5 c 128,-1,6
 164 328 164 328 154 300 c 1,7,-1
 151 278 l 2,8,9
 151 250 151 250 167.5 227.5 c 128,-1,10
 184 205 184 205 209 205 c 0,11,12
 235 205 235 205 252 229.5 c 128,-1,13
 269 254 269 254 269 283 c 256,0,1
363 176 m 1,14,-1
 384 195 l 2,15,16
 392 202 392 202 398 215 c 2,17,-1
 411 250 l 1,18,-1
 416 274 l 1,19,-1
 416 346 l 1,20,-1
 416 362 l 1,21,-1
 417 380 l 2,22,23
 417 402 417 402 413 410 c 0,24,25
 411 418 411 418 395 433 c 0,26,27
 371 453 371 453 347 460 c 2,28,-1
 325 465 l 1,29,-1
 301 467 l 1,30,-1
 281 466 l 1,31,-1
 263 466 l 2,32,33
 243 466 243 466 221.5 458 c 128,-1,34
 200 450 200 450 183 427 c 0,35,36
 162 403 162 403 159 388 c 1,37,-1
 184 410 l 1,38,-1
 202 415 l 1,39,-1
 226 421 l 1,40,-1
 239 420 l 1,41,42
 327 402 327 402 327 298 c 0,43,44
 327 260 327 260 320.5 240 c 128,-1,45
 314 220 314 220 294 196 c 0,46,47
 282 181 282 181 260 167 c 0,48,49
 238 157 238 157 216 157 c 2,50,-1
 180 158 l 2,51,52
 169 158 169 158 152.5 164.5 c 128,-1,53
 136 171 136 171 117 197 c 0,54,55
 116 198 116 198 107.5 216 c 128,-1,56
 99 234 99 234 91 256 c 2,57,-1
 86 282 l 1,58,-1
 84 307 l 2,59,60
 84 343 84 343 96.5 381 c 128,-1,61
 109 419 109 419 128 448 c 0,62,63
 178 529 178 529 286 529 c 0,64,65
 393 529 393 529 443 477 c 128,-1,66
 493 425 493 425 493 319 c 0,67,68
 493 273 493 273 476 230 c 0,69,70
 464 200 464 200 440 164 c 0,71,72
 424 139 424 139 381 120 c 0,73,74
 374 117 374 117 359 113.5 c 128,-1,75
 344 110 344 110 323 106 c 2,76,-1
 225 91 l 2,77,78
 210 91 210 91 197 72 c 1,79,-1
 189 54 l 1,80,-1
 930 54 l 1,81,-1
 930 -6 l 1,82,-1
 113 -6 l 1,83,84
 118 -1 118 -1 119 7 c 2,85,-1
 120 32 l 1,86,-1
 119 65 l 2,87,88
 119 84 119 84 121.5 91.5 c 128,-1,89
 124 99 124 99 129 103 c 2,90,-1
 159 121 l 1,91,-1
 219 130 l 2,92,93
 237 130 237 130 255 135 c 2,94,-1
 281 140 l 1,95,-1
 303 148 l 1,96,-1
 334 164 l 1,97,-1
 363 176 l 1,14,-1
EndSplineSet
EndChar

StartChar: u11325
Encoding: 70437 70437 69
Width: 691
Flags: MW
LayerCount: 2
Fore
SplineSet
565 405 m 1,0,-1
 529 365 l 2,1,2
 507 345 507 345 470 345 c 0,3,4
 443 345 443 345 417 370 c 0,5,6
 394 396 394 396 394 433 c 2,7,-1
 395 445 l 2,8,9
 401 483 401 483 437 502 c 0,10,11
 460 514 460 514 505 521 c 1,12,13
 577 521 577 521 627 443 c 0,14,15
 671 370 671 370 671 269 c 0,16,17
 671 163 671 163 624 95 c 0,18,19
 570 15 570 15 472 15 c 1,20,-1
 452 16 l 2,21,22
 438 16 438 16 425 20 c 0,23,24
 345 35 345 35 328 41.5 c 128,-1,25
 311 48 311 48 280 80 c 1,26,27
 256 55 256 55 222 36 c 0,28,29
 191 22 191 22 163 22 c 0,30,31
 115 22 115 22 80 61.5 c 128,-1,32
 45 101 45 101 45 164 c 2,33,-1
 44 492 l 1,34,-1
 120 495 l 1,35,-1
 120 170 l 2,36,37
 120 137 120 137 139 121 c 1,38,-1
 160 109 l 1,39,-1
 188 105 l 2,40,41
 212 105 212 105 238 120 c 0,42,43
 260 136 260 136 260 162 c 2,44,-1
 260 460 l 1,45,-1
 324 460 l 1,46,-1
 323 185 l 2,47,48
 323 143 323 143 368 111 c 0,49,50
 410 86 410 86 455 86 c 0,51,52
 474 86 474 86 485 90 c 0,53,54
 545 111 545 111 572 157 c 0,55,56
 595 197 595 197 595 252 c 2,57,-1
 595 271 l 2,58,59
 595 282 595 282 593 294 c 2,60,-1
 584 336 l 2,61,62
 579 366 579 366 565 405 c 1,0,-1
510 438 m 2,63,-1
 513 459 l 2,64,65
 513 475 513 475 499 475 c 0,66,67
 488 475 488 475 474 457 c 1,68,69
 466 440 466 440 464 423 c 0,70,71
 464 406 464 406 480 403 c 0,72,73
 492 403 492 403 501 413.5 c 128,-1,74
 510 424 510 424 510 438 c 2,63,-1
EndSplineSet
EndChar

StartChar: u11327
Encoding: 70439 70439 70
Width: 775
Flags: MW
LayerCount: 2
Fore
SplineSet
646 535 m 1,0,1
 685 463 685 463 703 396 c 0,2,3
 708 377 708 377 711 362 c 128,-1,4
 714 347 714 347 717.5 324.5 c 128,-1,5
 721 302 721 302 721.5 291.5 c 128,-1,6
 722 281 722 281 722 269 c 0,7,8
 722 148 722 148 655.5 76.5 c 128,-1,9
 589 5 589 5 476 5 c 0,10,11
 409 5 409 5 371 18 c 0,12,13
 322 33 322 33 290 80 c 1,14,15
 275 42 275 42 247 18 c 0,16,17
 220 -3 220 -3 184 -3 c 0,18,19
 132 -3 132 -3 91 38 c 128,-1,20
 50 79 50 79 50 140 c 2,21,-1
 51 480 l 1,22,-1
 110 480 l 1,23,-1
 110 132 l 2,24,25
 110 97 110 97 134 75 c 128,-1,26
 158 53 158 53 186 53 c 0,27,28
 213 53 213 53 233.5 74.5 c 128,-1,29
 254 96 254 96 254 140 c 2,30,-1
 255 480 l 1,31,-1
 320 480 l 1,32,-1
 318 166 l 2,33,34
 318 124 318 124 380 89 c 0,35,36
 437 58 437 58 482 58 c 0,37,38
 553 58 553 58 603.5 118.5 c 128,-1,39
 654 179 654 179 654 269 c 0,40,41
 654 324 654 324 635 380 c 0,42,43
 631 393 631 393 625 408.5 c 128,-1,44
 619 424 619 424 612 438 c 0,45,46
 600 463 600 463 576 500 c 1,47,-1
 646 535 l 1,0,1
EndSplineSet
EndChar

StartChar: u1132A
Encoding: 70442 70442 71
Width: 1071
Flags: MW
LayerCount: 2
Fore
SplineSet
951 -6 m 1,0,-1
 935 -12 l 1,1,-1
 318 -13 l 1,2,-1
 353 68 l 1,3,-1
 376 121 l 1,4,-1
 382 144 l 1,5,-1
 392 193 l 2,6,7
 404 256 404 256 404 307 c 0,8,9
 404 326 404 326 399 340 c 2,10,-1
 393 363 l 1,11,-1
 385 384 l 2,12,13
 380 399 380 399 365 416 c 2,14,-1
 336 445 l 2,15,16
 331 451 331 451 309 459 c 1,17,-1
 267 463 l 1,18,-1
 241 459 l 2,19,20
 225 456 225 456 220 451 c 2,21,-1
 203 439 l 1,22,-1
 189 428 l 1,23,-1
 171 405 l 1,24,-1
 161 386 l 1,25,-1
 152 363 l 1,26,-1
 146 341 l 1,27,-1
 138 302 l 1,28,-1
 135 265 l 1,29,-1
 136 268 l 1,30,-1
 141 268 l 1,31,-1
 153 275 l 1,32,-1
 173 285 l 1,33,34
 173 270 173 270 165 269 c 2,35,-1
 159 271 l 1,36,-1
 159 275 l 1,37,-1
 175 288 l 1,38,-1
 192 292 l 1,39,-1
 213 296 l 1,40,-1
 222 296 l 1,41,-1
 227 294 l 1,42,-1
 264 282 l 2,43,44
 272 279 272 279 283.5 265.5 c 128,-1,45
 295 252 295 252 304 211 c 2,46,-1
 307 188 l 1,47,-1
 308 154 l 1,48,-1
 306 121 l 2,49,50
 306 102 306 102 298 87 c 2,51,-1
 289 65 l 2,52,53
 283 51 283 51 270 36 c 2,54,-1
 255 20 l 1,55,-1
 240 7 l 1,56,-1
 216 -1 l 1,57,-1
 191 -5 l 2,58,59
 180 -5 180 -5 175 -3 c 0,60,61
 169 -3 169 -3 157 3 c 2,62,-1
 127 24 l 2,63,64
 119 33 119 33 98 80 c 1,65,-1
 91 115 l 1,66,-1
 84 155 l 1,67,-1
 82 216 l 1,68,-1
 80 270 l 1,69,-1
 80 296 l 2,70,71
 80 312 80 312 82 321 c 2,72,-1
 89 365 l 2,73,74
 97 396 97 396 115 427 c 0,75,76
 138 469 138 469 171 491 c 0,77,78
 192 503 192 503 216 509 c 128,-1,79
 240 515 240 515 276 515 c 0,80,81
 361 515 361 515 417 450 c 0,82,83
 441 419 441 419 453 379 c 2,84,-1
 466 328 l 1,85,-1
 471 282 l 2,86,87
 471 257 471 257 459 212 c 2,88,-1
 444 153 l 1,89,-1
 426 80 l 1,90,-1
 409 54 l 1,91,-1
 408 41 l 1,92,-1
 893 41 l 1,93,-1
 893 515 l 1,94,-1
 951 515 l 1,95,-1
 951 -6 l 1,0,-1
258 171 m 1,96,-1
 255 208 l 2,97,98
 252 223 252 223 240 235 c 2,99,-1
 227 243 l 1,100,-1
 210 245 l 2,101,102
 184 245 184 245 171 223 c 2,103,-1
 150 181 l 1,104,-1
 143 146 l 1,105,-1
 141 126 l 1,106,-1
 141 120 l 2,107,108
 141 103 141 103 147 87 c 128,-1,109
 153 71 153 71 170 54 c 0,110,111
 176 48 176 48 190 47 c 2,112,-1
 210 49 l 2,113,114
 224 52 224 52 234.5 67 c 128,-1,115
 245 82 245 82 249 104 c 2,116,-1
 255 141 l 1,117,-1
 258 171 l 1,96,-1
EndSplineSet
EndChar

StartChar: u1132C
Encoding: 70444 70444 72
Width: 1211
Flags: MW
LayerCount: 2
Fore
SplineSet
285 151 m 0,0,1
 285 123 285 123 278.5 104.5 c 128,-1,2
 272 86 272 86 258 70 c 128,-1,3
 244 54 244 54 216 54 c 0,4,5
 191 54 191 54 176 75 c 0,6,7
 164 96 164 96 164 130 c 0,8,9
 164 160 164 160 179.5 179.5 c 128,-1,10
 195 199 195 199 228 199 c 2,11,-1
 244 198 l 2,12,13
 285 192 285 192 285 151 c 0,0,1
464 338 m 1,14,15
 449 409 449 409 391.5 455.5 c 128,-1,16
 334 502 334 502 264 502 c 0,17,18
 180 502 180 502 96 410.5 c 128,-1,19
 12 319 12 319 12 210 c 0,20,21
 12 146 12 146 59 78 c 0,22,23
 115 -2 115 -2 192 -2 c 0,24,25
 240 -2 240 -2 282 34 c 0,26,27
 334 80 334 80 334 153 c 0,28,29
 334 198 334 198 307 227 c 0,30,31
 279 252 279 252 240 252 c 0,32,33
 185 252 185 252 150 214 c 128,-1,34
 115 176 115 176 115 125 c 0,35,36
 115 85 115 85 135 55 c 1,37,38
 102 67 102 67 83 107 c 0,39,40
 66 147 66 147 66 194 c 0,41,42
 66 283 66 283 117 360 c 0,43,44
 176 446 176 446 272 446 c 0,45,46
 349 446 349 446 397 364 c 0,47,48
 432 300 432 300 432 234 c 2,49,-1
 432 34 l 1,50,-1
 496 34 l 1,51,-1
 496 248 l 2,52,53
 496 319 496 319 538 384.5 c 128,-1,54
 580 450 580 450 616 450 c 0,55,56
 690 450 690 450 726 376 c 0,57,58
 750 323 750 323 750 237 c 0,59,60
 750 169 750 169 721 113.5 c 128,-1,61
 692 58 692 58 648 43 c 1,62,-1
 648 8 l 1,63,-1
 1056 6 l 1,64,-1
 1057 504 l 1,65,-1
 1001 504 l 1,66,-1
 1004 42 l 1,67,-1
 728 42 l 1,68,69
 776 75 776 75 798 131 c 0,70,71
 808 158 808 158 814 189 c 128,-1,72
 820 220 820 220 820 250 c 0,73,74
 820 360 820 360 773 426 c 0,75,76
 718 502 718 502 612 502 c 0,77,78
 568 502 568 502 526 458.5 c 128,-1,79
 484 415 484 415 464 338 c 1,14,15
EndSplineSet
EndChar

StartChar: u1132E
Encoding: 70446 70446 73
Width: 504
Flags: MW
LayerCount: 2
Fore
SplineSet
470 321 m 2,0,1
 464 289 464 289 453.5 275.5 c 128,-1,2
 443 262 443 262 421 248 c 2,3,-1
 399 235 l 1,4,-1
 368 222 l 1,5,-1
 332 215 l 1,6,-1
 285 213 l 1,7,-1
 245 213 l 1,8,-1
 207 213 l 2,9,10
 184 213 184 213 164.5 209.5 c 128,-1,11
 145 206 145 206 138 201 c 0,12,13
 131 198 131 198 125 177 c 1,14,-1
 122 143 l 2,15,16
 122 124 122 124 131 104 c 128,-1,17
 140 84 140 84 159 65 c 1,18,-1
 202 45 l 2,19,20
 232 35 232 35 257 35 c 2,21,-1
 283 36 l 2,22,23
 293 36 293 36 310 43 c 2,24,-1
 356 59 l 1,25,-1
 377 69 l 2,26,27
 380 70 380 70 388 81 c 1,28,-1
 393 100 l 1,29,-1
 394 118 l 2,30,31
 394 129 394 129 390 140 c 2,32,-1
 383 159 l 1,33,-1
 379 178 l 2,34,35
 377 194 377 194 374 201 c 1,36,-1
 423 201 l 1,37,-1
 431 179 l 1,38,-1
 439 156 l 1,39,-1
 444 135 l 1,40,-1
 445 119 l 1,41,-1
 445 108 l 1,42,-1
 442 82 l 2,43,44
 439 63 439 63 431 52 c 2,45,-1
 419 31 l 1,46,-1
 403 21 l 1,47,-1
 361 1 l 2,48,49
 343 -5 343 -5 315 -8 c 2,50,-1
 261 -11 l 2,51,52
 215 -11 215 -11 185 -1 c 2,53,-1
 131 22 l 2,54,55
 102 34 102 34 84 73 c 0,56,57
 70 110 70 110 70 155 c 0,58,59
 70 218 70 218 110 246 c 1,60,61
 151 268 151 268 201 268 c 2,62,-1
 232 267 l 2,63,64
 257 267 257 267 260 265 c 2,65,-1
 274 264 l 1,66,-1
 286 264 l 2,67,68
 316 264 316 264 343.5 270 c 128,-1,69
 371 276 371 276 385 290 c 0,70,71
 416 315 416 315 416 343 c 0,72,73
 416 359 416 359 405.5 377 c 128,-1,74
 395 395 395 395 374 414 c 2,75,-1
 330 444 l 1,76,-1
 336 435 l 1,77,-1
 347 407 l 1,78,-1
 350 392 l 1,79,-1
 352 377 l 1,80,81
 352 335 352 335 310 309 c 1,82,-1
 267 293 l 2,83,84
 246 287 246 287 223 287 c 2,85,-1
 207 288 l 2,86,87
 153 294 153 294 112 325 c 0,88,89
 91 342 91 342 79 364 c 0,90,91
 69 389 69 389 69 420 c 0,92,93
 69 468 69 468 119 493 c 0,94,95
 163 511 163 511 222 511 c 2,96,-1
 247 511 l 1,97,-1
 299 511 l 2,98,99
 317 511 317 511 349 492 c 2,100,-1
 375 474 l 1,101,-1
 411 447 l 2,102,103
 441 424 441 424 457 396.5 c 128,-1,104
 473 369 473 369 473 342 c 2,105,-1
 470 321 l 2,0,1
300 399 m 0,106,107
 300 408 300 408 287.5 428 c 128,-1,108
 275 448 275 448 263 455 c 128,-1,109
 251 462 251 462 232 462 c 2,110,-1
 208 461 l 1,111,-1
 189 461 l 1,112,-1
 169 459 l 2,113,114
 152 459 152 459 141 451 c 0,115,116
 131 448 131 448 126.5 439 c 128,-1,117
 122 430 122 430 118 416 c 0,118,119
 118 407 118 407 124 391.5 c 128,-1,120
 130 376 130 376 143 367 c 2,121,-1
 177 348 l 2,122,123
 201 338 201 338 217 335 c 1,124,-1
 251 341 l 1,125,-1
 284 351 l 2,126,127
 293 354 293 354 296.5 366.5 c 128,-1,128
 300 379 300 379 300 399 c 0,106,107
EndSplineSet
EndChar

StartChar: u11330
Encoding: 70448 70448 74
Width: 924
Flags: MW
LayerCount: 2
Fore
SplineSet
826 469 m 1,0,-1
 708 465 l 1,1,-1
 708 234 l 2,2,3
 708 199 708 199 705 174.5 c 128,-1,4
 702 150 702 150 694 130 c 0,5,6
 671 68 671 68 608 68 c 0,7,8
 538 68 538 68 506 121 c 0,9,10
 480 164 480 164 480 225 c 2,11,-1
 480 463 l 1,12,-1
 162 463 l 1,13,-1
 164 4 l 1,14,-1
 96 4 l 1,15,-1
 96 519 l 1,16,-1
 114 519 l 1,17,-1
 836 520 l 1,18,-1
 826 469 l 1,0,-1
648 232 m 1,19,-1
 648 463 l 1,20,-1
 546 463 l 1,21,-1
 546 221 l 2,22,23
 546 171 546 171 558.5 151.5 c 128,-1,24
 571 132 571 132 604 132 c 0,25,26
 631 132 631 132 640 150 c 128,-1,27
 649 168 649 168 649 200 c 2,28,-1
 648 216 l 1,29,-1
 648 232 l 1,19,-1
EndSplineSet
EndChar

StartChar: uniE10C
Encoding: 57612 57612 75
Width: 1228
Flags: MW
LayerCount: 2
Fore
SplineSet
1068 285 m 1,0,-1
 1068 307 l 1,1,-1
 1069 331 l 1,2,-1
 1068 349 l 1,3,-1
 1067 359 l 2,4,5
 1064 368 1064 368 1061 374 c 2,6,-1
 1049 407 l 2,7,8
 1045 428 1045 428 1025 439.5 c 128,-1,9
 1005 451 1005 451 986 451 c 0,10,11
 971 451 971 451 951 430 c 0,12,13
 935 410 935 410 925 382 c 1,14,-1
 920 342 l 1,15,-1
 917 281 l 2,16,17
 917 219 917 219 936 162 c 2,18,-1
 953 118 l 1,19,-1
 970 88 l 1,20,-1
 994 114 l 2,21,22
 1009 132 1009 132 1015 146 c 2,23,-1
 1042 201 l 1,24,-1
 1055 231 l 1,25,-1
 1068 285 l 1,0,-1
636 168 m 1,26,-1
 636 196 l 1,27,-1
 632 229 l 2,28,29
 632 247 632 247 626 253 c 0,30,31
 624 258 624 258 604 267 c 1,32,-1
 576 273 l 1,33,-1
 516 275 l 1,34,-1
 517 223 l 1,35,-1
 523 153 l 2,36,37
 523 143 523 143 528 126 c 2,38,-1
 537 107 l 1,39,-1
 543 98 l 2,40,41
 546 93 546 93 554 86 c 0,42,43
 557 84 557 84 562 82.5 c 128,-1,44
 567 81 567 81 574 79 c 0,45,46
 595 79 595 79 608 83 c 0,47,48
 624 86 624 86 627 94 c 2,49,-1
 634 128 l 1,50,-1
 636 168 l 1,26,-1
266 325 m 1,51,-1
 266 459 l 1,52,-1
 194 459 l 1,53,-1
 194 324 l 1,54,-1
 266 325 l 1,51,-1
264 110 m 2,55,-1
 262 189 l 1,56,-1
 262 266 l 1,57,-1
 163 266 l 1,58,-1
 137 265 l 1,59,-1
 130 261 l 1,60,-1
 125 260 l 1,61,62
 109 250 109 250 96 231 c 0,63,64
 85 211 85 211 85 180 c 0,65,66
 85 154 85 154 93 142 c 1,67,-1
 96 131 l 2,68,69
 96 123 96 123 105 117 c 1,70,-1
 112 105 l 2,71,72
 114 100 114 100 122 95 c 0,73,74
 127 96 127 96 141 149 c 0,75,76
 143 160 143 160 145.5 169 c 128,-1,77
 148 178 148 178 153 188 c 2,78,-1
 158 200 l 1,79,-1
 171 201 l 1,80,-1
 184 203 l 2,81,82
 199 203 199 203 200 196 c 2,83,-1
 207 164 l 1,84,-1
 215 129 l 1,85,-1
 223 97 l 2,86,87
 225 89 225 89 234 80 c 0,88,89
 239 77 239 77 243 81 c 2,90,-1
 250 90 l 1,91,92
 264 98 264 98 264 110 c 2,55,-1
494 432 m 1,93,94
 514 467 514 467 554.5 485.5 c 128,-1,95
 595 504 595 504 661 504 c 0,96,97
 737 504 737 504 785 446 c 0,98,99
 809 415 809 415 820.5 372 c 128,-1,100
 832 329 832 329 832 275 c 0,101,102
 832 183 832 183 822 127 c 0,103,104
 820 115 820 115 814 104 c 2,105,-1
 803 81 l 1,106,-1
 895 81 l 1,107,-1
 889 96 l 1,108,-1
 877 131 l 2,109,110
 871 150 871 150 867 165 c 128,-1,111
 863 180 863 180 858.5 202 c 128,-1,112
 854 224 854 224 852 246 c 128,-1,113
 850 268 850 268 850 281 c 0,114,115
 850 370 850 370 874 427 c 0,116,117
 910 511 910 511 989 511 c 0,118,119
 1056 511 1056 511 1092 459 c 0,120,121
 1106 438 1106 438 1118 393 c 1,122,-1
 1124 348 l 1,123,-1
 1127 293 l 1,124,125
 1127 219 1127 219 1082 139 c 1,126,-1
 1063 109 l 1,127,-1
 1043 81 l 1,128,-1
 1149 81 l 1,129,-1
 1149 28 l 1,130,-1
 996 28 l 1,131,-1
 831 -179 l 1,132,-1
 783 -140 l 1,133,-1
 905 25 l 1,134,-1
 670 24 l 1,135,-1
 703 54 l 1,136,-1
 714 70 l 2,137,138
 716 75 716 75 728 75 c 1,139,-1
 750 111 l 1,140,-1
 761 135 l 2,141,142
 764 143 764 143 766.5 156.5 c 128,-1,143
 769 170 769 170 769 182 c 2,144,-1
 771 235 l 1,145,-1
 771 262 l 2,146,147
 771 282 771 282 769 298 c 128,-1,148
 767 314 767 314 760 342 c 0,149,150
 756 368 756 368 743 398 c 0,151,152
 732 427 732 427 703 438 c 128,-1,153
 674 449 674 449 634 449 c 2,154,-1
 610 448 l 1,155,-1
 582 445 l 2,156,157
 569 442 569 442 557 429 c 2,158,-1
 545 409 l 1,159,-1
 535 387 l 1,160,-1
 525 357 l 1,161,-1
 517 322 l 1,162,-1
 542 322 l 1,163,-1
 567 323 l 1,164,-1
 596 322 l 2,165,166
 609 322 609 322 623 315 c 0,167,168
 640 309 640 309 650 299 c 2,169,-1
 657 293 l 1,170,-1
 669 279 l 1,171,-1
 678 254 l 1,172,-1
 682 219 l 1,173,-1
 682 160 l 1,174,-1
 682 143 l 2,175,176
 682 108 682 108 679 89.5 c 128,-1,177
 676 71 676 71 664 58 c 128,-1,178
 652 45 652 45 631 36.5 c 128,-1,179
 610 28 610 28 578 28 c 0,180,181
 508 28 508 28 481 92 c 1,182,-1
 474 124 l 1,183,-1
 466 164 l 1,184,-1
 461 214 l 1,185,-1
 459 268 l 1,186,-1
 326 268 l 1,187,-1
 327 145 l 1,188,-1
 328 124 l 2,189,190
 328 110 328 110 324 102 c 2,191,-1
 318 83 l 2,192,193
 316 79 316 79 314 76 c 0,194,195
 309 69 309 69 300 58 c 0,196,197
 282 38 282 38 269.5 33 c 128,-1,198
 257 28 257 28 233 28 c 0,199,200
 224 28 224 28 204.5 40.5 c 128,-1,201
 185 53 185 53 181 65 c 2,202,-1
 177 110 l 2,203,204
 177 143 177 143 173 144 c 0,205,206
 165 144 165 144 165 100 c 0,207,208
 165 57 165 57 157 48 c 0,209,210
 145 28 145 28 122 28 c 0,211,212
 103 28 103 28 86 41 c 0,213,214
 59 61 59 61 40 103 c 0,215,216
 32 124 32 124 27.5 145 c 128,-1,217
 23 166 23 166 23 185 c 0,218,219
 23 229 23 229 46 266 c 0,220,221
 63 290 63 290 93 311 c 2,222,-1
 103 317 l 1,223,-1
 131 326 l 1,224,-1
 131 504 l 1,225,-1
 439 505 l 1,226,-1
 439 455 l 1,227,-1
 328 455 l 1,228,-1
 329 322 l 1,229,-1
 463 322 l 1,230,231
 463 343 463 343 465 353.5 c 128,-1,232
 467 364 467 364 474 387 c 2,233,-1
 494 432 l 1,93,94
EndSplineSet
Ligature2: "'akhn' Akhand lookup 1-1" u11315 u1134D u11337
EndChar

StartChar: u11333
Encoding: 70451 70451 76
Width: 1260
Flags: MW
LayerCount: 2
Fore
SplineSet
1189 -6 m 1,0,-1
 476 -4 l 2,1,2
 439 -4 439 -4 410.5 15 c 128,-1,3
 382 34 382 34 382 68 c 0,4,5
 382 115 382 115 461 163 c 1,6,-1
 609 244 l 1,7,8
 689 300 689 300 689 374 c 0,9,10
 689 415 689 415 661.5 444.5 c 128,-1,11
 634 474 634 474 592 474 c 0,12,13
 570 474 570 474 540 462 c 1,14,15
 513 444 513 444 477 396 c 2,16,-1
 396 288 l 1,17,-1
 320 424 l 2,18,19
 288 478 288 478 241 478 c 0,20,21
 174 478 174 478 129 387 c 128,-1,22
 84 296 84 296 84 176 c 2,23,-1
 84 170 l 1,24,25
 113 202 113 202 155 202 c 0,26,27
 194 202 194 202 224.5 171.5 c 128,-1,28
 255 141 255 141 255 85 c 0,29,30
 255 52 255 52 230.5 27 c 128,-1,31
 206 2 206 2 163 2 c 0,32,33
 101 2 101 2 63 44.5 c 128,-1,34
 25 87 25 87 25 158 c 0,35,36
 25 311 25 311 73 416 c 0,37,38
 130 538 130 538 237 538 c 0,39,40
 300 538 300 538 347 475 c 1,41,-1
 396 390 l 1,42,-1
 462 484 l 1,43,44
 495 520 495 520 541 530 c 1,45,-1
 569 533 l 1,46,47
 639 533 639 533 696.5 483 c 128,-1,48
 754 433 754 433 754 364 c 0,49,50
 754 274 754 274 684 211 c 0,51,52
 642 175 642 175 546 133 c 0,53,54
 460 97 460 97 447 78 c 0,55,56
 444 72 444 72 457 62 c 0,57,58
 473 54 473 54 491 54 c 2,59,-1
 1189 54 l 1,60,-1
 1189 -6 l 1,0,-1
153 46 m 1,61,62
 179 49 179 49 192.5 66 c 128,-1,63
 206 83 206 83 206 106 c 0,64,65
 206 154 206 154 161 154 c 0,66,67
 140 157 140 157 112.5 145 c 128,-1,68
 85 133 85 133 85 110 c 0,69,70
 85 79 85 79 106 61 c 0,71,72
 123 49 123 49 153 46 c 1,61,62
EndSplineSet
EndChar

StartChar: u1131B
Encoding: 70427 70427 77
Width: 1134
Flags: MW
LayerCount: 2
Fore
SplineSet
1034 27 m 1,0,-1
 1034 378 l 2,1,2
 1034 418 1034 418 1017 441 c 0,3,4
 1002 465 1002 465 970 465 c 0,5,6
 943 465 943 465 921 443.5 c 128,-1,7
 899 422 899 422 899 390 c 2,8,-1
 899 27 l 1,9,-1
 1034 27 l 1,0,-1
476 329 m 0,10,11
 467 356 467 356 455 365 c 128,-1,12
 443 374 443 374 404 381 c 2,13,-1
 392 382 l 2,14,15
 380 382 380 382 373 380 c 0,16,17
 363 380 363 380 345.5 370 c 128,-1,18
 328 360 328 360 310 341 c 2,19,-1
 298 326 l 1,20,-1
 290 311 l 2,21,22
 287 300 287 300 287 278 c 2,23,-1
 286 265 l 2,24,25
 286 239 286 239 297.5 225 c 128,-1,26
 309 211 309 211 339 198 c 0,27,28
 360 191 360 191 382 191 c 0,29,30
 427 191 427 191 452 213 c 0,31,32
 464 224 464 224 473 246 c 0,33,34
 477 257 477 257 480 269 c 128,-1,35
 483 281 483 281 483 293 c 0,36,37
 483 312 483 312 476 329 c 0,10,11
844 27 m 1,38,-1
 845 396 l 2,39,40
 845 444 845 444 881.5 480 c 128,-1,41
 918 516 918 516 971 516 c 0,42,43
 1017 516 1017 516 1053 479.5 c 128,-1,44
 1089 443 1089 443 1089 393 c 2,45,-1
 1088 377 l 1,46,-1
 1088 -21 l 1,47,-1
 956 -21 l 1,48,-1
 785 -21 l 1,49,-1
 56 -21 l 1,50,-1
 64 27 l 1,51,-1
 359 27 l 1,52,-1
 379 33 l 1,53,-1
 402 42 l 1,54,-1
 424 54 l 1,55,-1
 456 74 l 2,56,57
 472 85 472 85 482 93 c 0,58,59
 496 104 496 104 501 109 c 0,60,61
 517 125 517 125 534 152 c 2,62,-1
 562 199 l 1,63,-1
 570 222 l 1,64,-1
 576 246 l 2,65,66
 582 273 582 273 582 295 c 2,67,-1
 582 316 l 1,68,-1
 578 331 l 1,69,70
 575 361 575 361 554 396 c 2,71,-1
 542 414 l 2,72,73
 535 427 535 427 518 439 c 2,74,-1
 493 454 l 1,75,-1
 461 465 l 1,76,-1
 439 469 l 1,77,-1
 424 470 l 1,78,-1
 394 467 l 2,79,80
 379 467 379 467 348 451 c 2,81,-1
 330 443 l 1,82,-1
 311 431 l 1,83,-1
 295 416 l 1,84,-1
 281 398 l 1,85,-1
 270 375 l 1,86,-1
 293 394 l 1,87,-1
 329 415 l 2,88,89
 364 431 364 431 392 431 c 0,90,91
 407 431 407 431 413 429 c 2,92,-1
 436 425 l 2,93,94
 452 422 452 422 458 418 c 0,95,96
 467 416 467 416 478.5 410 c 128,-1,97
 490 404 490 404 502.5 388 c 128,-1,98
 515 372 515 372 521 357 c 2,99,-1
 531 319 l 1,100,-1
 537 280 l 2,101,102
 537 264 537 264 524 234 c 0,103,104
 516 215 516 215 511 210 c 2,105,-1
 501 197 l 1,106,-1
 490 185 l 2,107,108
 477 169 477 169 467.5 163.5 c 128,-1,109
 458 158 458 158 436 152 c 2,110,-1
 401 144 l 1,111,-1
 372 141 l 2,112,113
 355 141 355 141 323 150 c 2,114,-1
 279 166 l 2,115,116
 267 173 267 173 247 200 c 2,117,-1
 226 233 l 2,118,119
 212 259 212 259 212 293 c 2,120,-1
 213 338 l 2,121,122
 213 350 213 350 213 362 c 0,123,124
 216 374 216 374 218 386.5 c 128,-1,125
 220 399 220 399 244 432 c 0,126,127
 263 458 263 458 288 476 c 0,128,129
 311 490 311 490 352 504 c 0,130,131
 393 516 393 516 422 516 c 0,132,133
 450 516 450 516 495 504 c 0,134,135
 523 498 523 498 543 482 c 0,136,137
 570 462 570 462 589 435 c 0,138,139
 604 414 604 414 613 393 c 0,140,141
 616 386 616 386 619 376.5 c 128,-1,142
 622 367 622 367 627 346 c 2,143,-1
 631 308 l 1,144,-1
 630 286 l 2,145,146
 630 271 630 271 626 256 c 0,147,148
 617 195 617 195 578 132 c 2,149,-1
 557 100 l 2,150,151
 550 89 550 89 533 72.5 c 128,-1,152
 516 56 516 56 491 43 c 0,153,154
 472 33 472 33 462 28 c 1,155,-1
 844 27 l 1,38,-1
EndSplineSet
EndChar

StartChar: u1131D
Encoding: 70429 70429 78
Width: 931
Flags: MW
LayerCount: 2
Fore
SplineSet
344 63 m 1,0,-1
 344 210 l 1,1,-1
 287 210 l 1,2,-1
 287 63 l 1,3,-1
 344 63 l 1,0,-1
688 530 m 2,4,5
 691 534 691 534 700 537 c 0,6,7
 721 537 721 537 774 483 c 0,8,9
 797 459 797 459 816 432 c 2,10,-1
 848 381 l 1,11,12
 872 333 872 333 872 280 c 0,13,14
 872 245 872 245 865 220 c 0,15,16
 859 193 859 193 844 154 c 2,17,-1
 822 99 l 2,18,19
 810 69 810 69 783 45 c 0,20,21
 764 29 764 29 729 13 c 1,22,-1
 701 6 l 1,23,-1
 670 3 l 1,24,25
 624 3 624 3 588 23 c 128,-1,26
 552 43 552 43 534 64.5 c 128,-1,27
 516 86 516 86 504 123 c 2,28,-1
 492 176 l 1,29,-1
 489 213 l 1,30,-1
 404 213 l 1,31,-1
 404 9 l 1,32,-1
 230 9 l 1,33,-1
 230 264 l 1,34,-1
 344 264 l 1,35,-1
 344 429 l 1,36,-1
 149 429 l 1,37,-1
 148 -22 l 1,38,-1
 88 -22 l 1,39,-1
 86 486 l 1,40,-1
 503 486 l 1,41,-1
 503 426 l 1,42,-1
 404 426 l 1,43,-1
 404 264 l 1,44,-1
 488 264 l 1,45,-1
 488 295 l 2,46,47
 488 314 488 314 490 324 c 0,48,49
 490 346 490 346 504 354 c 2,50,-1
 520 362 l 1,51,-1
 535 356 l 1,52,-1
 556 350 l 1,53,-1
 554 267 l 1,54,-1
 554 241 l 1,55,-1
 554 209 l 1,56,-1
 560 169 l 2,57,58
 566 141 566 141 572.5 126.5 c 128,-1,59
 579 112 579 112 600 92 c 0,60,61
 635 62 635 62 674 62 c 2,62,-1
 690 62 l 1,63,-1
 702 66 l 2,64,65
 732 75 732 75 744 102 c 2,66,-1
 764 151 l 1,67,-1
 779 191 l 1,68,-1
 792 229 l 2,69,70
 800 263 800 263 800 286 c 0,71,72
 800 310 800 310 791.5 343.5 c 128,-1,73
 783 377 783 377 760 406 c 1,74,-1
 724 439 l 1,75,-1
 668 490 l 1,76,-1
 681 513 l 1,77,-1
 679 510 l 1,78,-1
 688 530 l 2,4,5
EndSplineSet
EndChar

StartChar: u11305
Encoding: 70405 70405 79
Width: 777
Flags: MW
LayerCount: 2
Fore
SplineSet
657 72 m 1,0,1
 650 33 650 33 626.5 12 c 128,-1,2
 603 -9 603 -9 558 -9 c 0,3,4
 519 -9 519 -9 487 18 c 0,5,6
 462 43 462 43 456 87 c 1,7,-1
 456 255 l 1,8,-1
 402 255 l 1,9,-1
 401 116 l 2,10,11
 401 87 401 87 388 68 c 2,12,-1
 366 39 l 1,13,-1
 344 20 l 1,14,-1
 324 7 l 1,15,-1
 300 -3 l 1,16,-1
 265 -13 l 1,17,-1
 232 -18 l 1,18,19
 182 -18 182 -18 129 18 c 0,20,21
 64 68 64 68 64 160 c 0,22,23
 64 210 64 210 89 250 c 0,24,25
 108 277 108 277 141 300 c 2,26,-1
 152 307 l 1,27,-1
 184 317 l 1,28,-1
 184 515 l 1,29,-1
 499 515 l 1,30,-1
 498 459 l 1,31,-1
 402 459 l 1,32,-1
 401 321 l 1,33,-1
 589 320 l 1,34,-1
 589 510 l 1,35,-1
 657 510 l 1,36,-1
 657 72 l 1,0,1
591 117 m 2,37,-1
 591 252 l 1,38,-1
 510 252 l 1,39,-1
 510 102 l 2,40,41
 513 72 513 72 522.5 57 c 128,-1,42
 532 42 532 42 555 42 c 0,43,44
 574 42 574 42 584 59 c 0,45,46
 587 70 587 70 589 83.5 c 128,-1,47
 591 97 591 97 591 117 c 2,37,-1
330 459 m 1,48,-1
 255 459 l 1,49,-1
 254 315 l 1,50,-1
 329 315 l 1,51,-1
 330 459 l 1,48,-1
329 129 m 2,52,-1
 329 250 l 1,53,-1
 219 250 l 1,54,-1
 190 249 l 1,55,-1
 182 245 l 1,56,-1
 177 243 l 2,57,58
 160 233 160 233 145 211 c 0,59,60
 132 188 132 188 132 154 c 0,61,62
 132 126 132 126 140.5 114 c 128,-1,63
 149 102 149 102 177 77 c 0,64,65
 189 68 189 68 203 65 c 2,66,-1
 228 60 l 1,67,-1
 248 59 l 2,68,69
 261 59 261 59 270 63 c 2,70,-1
 298 76 l 1,71,-1
 315 98 l 2,72,73
 326 114 326 114 329 129 c 2,52,-1
EndSplineSet
EndChar

StartChar: u1130B
Encoding: 70411 70411 80
Width: 623
Flags: MW
LayerCount: 2
Fore
SplineSet
290 55 m 1,0,1
 320 16 320 16 356.5 -5 c 128,-1,2
 393 -26 393 -26 424 -26 c 0,3,4
 469 -26 469 -26 504.5 3.5 c 128,-1,5
 540 33 540 33 555 80 c 0,6,7
 559 94 559 94 562 108.5 c 128,-1,8
 565 123 565 123 565 132 c 0,9,10
 565 163 565 163 538 184 c 0,11,12
 520 198 520 198 460 220 c 1,13,14
 517 247 517 247 546.5 282.5 c 128,-1,15
 576 318 576 318 576 356 c 0,16,17
 576 372 576 372 572 384 c 0,18,19
 563 421 563 421 553 442 c 0,20,21
 545 466 545 466 534 481 c 0,22,23
 507 522 507 522 457 529 c 2,24,-1
 442 530 l 2,25,26
 402 530 402 530 370.5 491 c 128,-1,27
 339 452 339 452 339 405 c 0,28,29
 339 373 339 373 355.5 351.5 c 128,-1,30
 372 330 372 330 408 324 c 1,31,32
 446 324 446 324 482 344 c 128,-1,33
 518 364 518 364 518 397 c 1,34,35
 524 385 524 385 524 373 c 0,36,37
 524 345 524 345 491 306 c 0,38,39
 469 281 469 281 444 268 c 2,40,-1
 419 256 l 1,41,-1
 393 248 l 1,42,-1
 338 244 l 1,43,-1
 288 244 l 1,44,-1
 245 243 l 1,45,-1
 226 243 l 2,46,47
 213 243 213 243 205 241 c 0,48,49
 176 241 176 241 157 247 c 128,-1,50
 138 253 138 253 124 271 c 2,51,-1
 102 308 l 2,52,53
 94 321 94 321 88 352 c 1,54,55
 88 335 88 335 109 324 c 0,56,57
 132 314 132 314 160 314 c 2,58,-1
 174 314 l 1,59,-1
 188 316 l 2,60,61
 218 319 218 319 236.5 344 c 128,-1,62
 255 369 255 369 255 405 c 0,63,64
 255 447 255 447 228 485 c 0,65,66
 198 524 198 524 148 524 c 0,67,68
 90 524 90 524 63 470 c 0,69,70
 54 449 54 449 40 360 c 1,71,72
 40 293 40 293 58.5 267 c 128,-1,73
 77 241 77 241 120 216 c 1,74,75
 72 207 72 207 54 193.5 c 128,-1,76
 36 180 36 180 24 148 c 1,77,-1
 20 120 l 1,78,79
 20 68 20 68 63.5 21.5 c 128,-1,80
 107 -25 107 -25 164 -25 c 0,81,82
 197 -25 197 -25 227.5 -7 c 128,-1,83
 258 11 258 11 290 55 c 1,0,1
398 366 m 0,84,85
 390 374 390 374 386 383 c 2,86,-1
 382 406 l 1,87,88
 382 433 382 433 398.5 455.5 c 128,-1,89
 415 478 415 478 438 478 c 0,90,91
 446 478 446 478 460 472 c 0,92,93
 488 456 488 456 488 442 c 0,94,95
 488 433 488 433 479 410 c 128,-1,96
 470 387 470 387 453.5 372.5 c 128,-1,97
 437 358 437 358 421 358 c 0,98,99
 407 358 407 358 398 366 c 0,84,85
76 120 m 1,100,101
 91 162 91 162 162 178 c 1,102,-1
 217 185 l 1,103,-1
 292 188 l 1,104,-1
 323 188 l 1,105,-1
 356 189 l 2,106,107
 421 189 421 189 449 178 c 0,108,109
 494 163 494 163 504 120 c 1,110,-1
 506 102 l 2,111,112
 506 73 506 73 485.5 49.5 c 128,-1,113
 465 26 465 26 432 26 c 0,114,115
 401 26 401 26 365.5 48.5 c 128,-1,116
 330 71 330 71 290 125 c 1,117,118
 254 77 254 77 220 52 c 0,119,120
 185 30 185 30 162 30 c 0,121,122
 137 30 137 30 112 55 c 0,123,124
 90 81 90 81 76 120 c 1,100,101
180 468 m 0,125,126
 215 450 215 450 215 422 c 0,127,128
 215 408 215 408 213 404 c 2,129,-1
 207 389 l 2,130,131
 201 375 201 375 192 364 c 0,132,133
 188 359 188 359 176 356 c 1,134,-1
 159 358 l 1,135,-1
 136 365 l 2,136,137
 126 368 126 368 107 387 c 0,138,139
 92 405 92 405 92 424 c 0,140,141
 92 433 92 433 96 440 c 0,142,143
 105 458 105 458 119.5 467.5 c 128,-1,144
 134 477 134 477 148 477 c 0,145,146
 159 477 159 477 163 475 c 0,147,148
 169 475 169 475 180 468 c 0,125,126
EndSplineSet
EndChar

StartChar: u11321
Encoding: 70433 70433 81
Width: 945
Flags: MW
LayerCount: 2
Fore
SplineSet
204 444 m 2,0,1
 190 444 190 444 171.5 425 c 128,-1,2
 153 406 153 406 150 391 c 2,3,-1
 148 371 l 2,4,5
 148 347 148 347 166 329 c 128,-1,6
 184 311 184 311 214 299 c 0,7,8
 232 293 232 293 251 293 c 0,9,10
 285 293 285 293 311.5 310.5 c 128,-1,11
 338 328 338 328 344 360 c 1,12,-1
 335 377 l 1,13,-1
 318 399 l 2,14,15
 300 422 300 422 285 432 c 0,16,17
 277 438 277 438 251 441 c 2,18,-1
 204 444 l 2,0,1
391 389 m 2,19,-1
 395 373 l 1,20,-1
 396 356 l 2,21,22
 396 333 396 333 381 304 c 0,23,24
 372 288 372 288 345 276 c 2,25,-1
 315 264 l 1,26,-1
 276 249 l 2,27,28
 256 244 256 244 240 244 c 0,29,30
 221 244 221 244 206 249 c 2,31,-1
 187 255 l 1,32,-1
 172 263 l 2,33,34
 148 275 148 275 132.5 287.5 c 128,-1,35
 117 300 117 300 105 325.5 c 128,-1,36
 93 351 93 351 93 375 c 2,37,-1
 99 414 l 2,38,39
 105 438 105 438 116 453 c 128,-1,40
 127 468 127 468 165 493 c 0,41,42
 172 497 172 497 185 501.5 c 128,-1,43
 198 506 198 506 220.5 511 c 128,-1,44
 243 516 243 516 269 516 c 0,45,46
 330 516 330 516 343 511 c 0,47,48
 359 508 359 508 414 473.5 c 128,-1,49
 469 439 469 439 469 366 c 2,50,-1
 469 352 l 1,51,-1
 467 337 l 2,52,53
 463 295 463 295 455 275 c 0,54,55
 449 256 449 256 423 232 c 0,56,57
 402 212 402 212 356 197 c 0,58,59
 336 192 336 192 308.5 189 c 128,-1,60
 281 186 281 186 249 186 c 0,61,62
 216 186 216 186 205 184.5 c 128,-1,63
 194 183 194 183 183 178 c 0,64,65
 161 172 161 172 151 146 c 2,66,-1
 146 127 l 1,67,-1
 143 108 l 2,68,69
 143 99 143 99 149 90 c 0,70,71
 168 66 168 66 190.5 56 c 128,-1,72
 213 46 213 46 242 46 c 2,73,-1
 267 47 l 1,74,-1
 296 48 l 2,75,76
 353 48 353 48 396 91 c 1,77,-1
 412 112 l 1,78,-1
 427 139 l 1,79,-1
 465 205 l 1,80,-1
 495 148 l 1,81,-1
 499 137 l 1,82,-1
 514 120 l 1,83,-1
 534 106 l 1,84,-1
 559 88 l 1,85,-1
 609 58 l 1,86,-1
 637 51 l 1,87,-1
 671 48 l 1,88,89
 724 48 724 48 766.5 78.5 c 128,-1,90
 809 109 809 109 831 164 c 0,91,92
 843 197 843 197 843 227 c 0,93,94
 843 256 843 256 833.5 283.5 c 128,-1,95
 824 311 824 311 805 341 c 2,96,-1
 790 368 l 1,97,-1
 761 415 l 1,98,-1
 730 454 l 1,99,100
 693 482 693 482 693 496 c 0,101,102
 693 505 693 505 702.5 511 c 128,-1,103
 712 517 712 517 724 520 c 0,104,105
 732 520 732 520 737.5 517 c 128,-1,106
 743 514 743 514 767 490 c 128,-1,107
 791 466 791 466 820 424 c 0,108,109
 844 390 844 390 863 343 c 2,110,-1
 876 307 l 1,111,-1
 889 269 l 2,112,113
 899 229 899 229 899 205 c 2,114,-1
 898 178 l 2,115,116
 898 170 898 170 891 155 c 0,117,118
 885 135 885 135 866 108 c 0,119,120
 821 48 821 48 805 37 c 0,121,122
 780 20 780 20 680 -8 c 1,123,-1
 621 0 l 2,124,125
 607 0 607 0 572 16 c 2,126,-1
 542 33 l 1,127,-1
 512 53 l 1,128,-1
 491 71 l 1,129,-1
 469 102 l 1,130,131
 459 81 459 81 436 53 c 0,132,133
 401 14 401 14 354 2 c 0,134,135
 317 -6 317 -6 248 -6 c 0,136,137
 193 -6 193 -6 161 7 c 0,138,139
 119 22 119 22 101.5 58.5 c 128,-1,140
 84 95 84 95 84 128 c 0,141,142
 84 145 84 145 90 162 c 0,143,144
 114 224 114 224 175 233 c 1,145,-1
 233 234 l 1,146,-1
 295 241 l 2,147,148
 316 241 316 241 332.5 244.5 c 128,-1,149
 349 248 349 248 357 254 c 0,150,151
 370 267 370 267 379 272 c 2,152,-1
 395 290 l 2,153,154
 404 299 404 299 408 313 c 2,155,-1
 411 338 l 1,156,-1
 410 350 l 1,157,-1
 415 376 l 2,158,159
 415 391 415 391 406 406 c 2,160,-1
 388 426 l 1,161,-1
 348 456 l 1,162,-1
 317 471 l 1,163,-1
 290 476 l 1,164,-1
 273 477 l 1,165,-1
 345 432 l 2,166,167
 384 408 384 408 391 389 c 2,19,-1
EndSplineSet
EndChar

StartChar: u1130F
Encoding: 70415 70415 82
Width: 1295
Flags: MW
LayerCount: 2
Fore
SplineSet
1143 477 m 1,0,-1
 1050 477 l 1,1,-1
 1050 0 l 1,2,-1
 999 0 l 1,3,-1
 999 477 l 1,4,-1
 939 477 l 1,5,-1
 906 468 l 2,6,7
 894 465 894 465 889 460 c 2,8,-1
 871 442 l 1,9,-1
 851 417 l 2,10,11
 844 408 844 408 838 406 c 1,12,-1
 836 423 l 1,13,14
 839 441 839 441 850 441 c 1,15,-1
 867 418 l 1,16,-1
 886 388 l 2,17,18
 904 360 904 360 919.5 314 c 0,19,20
 925.486166008 297.422924901 925.486166008 297.422924901 930 241 c 2,21,-1
 932 216 l 1,22,-1
 932 194 l 2,23,24
 932 150 932 150 914 95 c 128,-1,25
 896 40 896 40 878.5 21.5 c 128,-1,26
 861 3 861 3 836 3 c 0,27,28
 801 3 801 3 774 18 c 0,29,30
 748.222395023 32.8716951788 748.222395023 32.8716951788 739 61 c 2,31,-1
 719 122 l 1,32,-1
 712 164 l 1,33,-1
 707 201 l 1,34,-1
 706 236 l 1,35,-1
 706 253 l 1,36,-1
 708 272 l 2,37,38
 708 294 708 294 710 304 c 128,-1,39
 712 314 712 314 713.5 319 c 0,40,41
 716 324 716 324 718 332 c 0,42,43
 724.128205128 356.512820513 724.128205128 356.512820513 743 386 c 2,44,-1
 759 411 l 1,45,-1
 777 432 l 1,46,47
 767 447 767 447 748.5 459 c 128,-1,48
 730 471 730 471 713 471 c 0,49,50
 696.608695652 471 696.608695652 471 688 460 c 2,51,-1
 670 437 l 2,52,53
 657.589041096 420.452054795 657.589041096 420.452054795 656 399 c 2,54,-1
 654 372 l 1,55,-1
 654 0 l 1,56,-1
 316 0 l 1,57,-1
 348 34 l 1,58,-1
 366 52 l 1,59,-1
 384 70 l 1,60,-1
 401 93 l 1,61,-1
 414 116 l 2,62,63
 424.528967254 134.186397985 424.528967254 134.186397985 426 150 c 2,64,-1
 430 193 l 1,65,-1
 429 229 l 1,66,-1
 429 241 l 1,67,-1
 427 261 l 1,68,69
 427 304.25 427 304.25 421 335 c 2,70,-1
 413 376 l 2,71,72
 410 392 410 392 404 406 c 0,73,74
 391 439 391 439 353 458 c 0,75,76
 314 477 314 477 271 477 c 0,77,78
 244 477 244 477 217 459 c 0,79,80
 202 449 202 449 179 426 c 1,81,-1
 170 407 l 1,82,-1
 157 376 l 1,83,-1
 149 344 l 1,84,-1
 147 328 l 1,85,-1
 147 314 l 1,86,-1
 147 303 l 1,87,-1
 147 287 l 1,88,89
 189 312 189 312 239 312 c 0,90,91
 257 312 257 312 279 301 c 0,92,93
 290 296 290 296 307 274 c 0,94,95
 321 256 321 256 331 222.5 c 0,96,97
 340 192 340 192 340 145 c 0,98,99
 340 69 340 69 308 36 c 0,100,101
 293 21 293 21 269 10.5 c 128,-1,102
 245 0 245 0 212 0 c 4,103,104
 133.333333333 -2.42028619368e-14 133.333333333 -2.42028619368e-14 105 75 c 0,105,106
 88 120 88 120 88 246 c 0,107,108
 88 394 88 394 119 452 c 0,109,110
 140 491 140 491 185.5 512 c 128,-1,111
 231 533 231 533 304 533 c 0,112,113
 391 533 391 533 442 468 c 0,114,115
 468 435 468 435 481.5 386 c 128,-1,116
 495 337 495 337 495 278 c 0,117,118
 495 175 495 175 474 81 c 0,119,120
 471.945945946 71.7567567568 471.945945946 71.7567567568 461 63 c 2,121,-1
 446 51 l 1,122,-1
 570 51 l 1,123,-1
 594 51 l 1,124,-1
 594 301 l 1,125,-1
 592 323 l 1,126,-1
 591 349 l 1,127,-1
 591 402 l 2,128,129
 591 437 591 437 614 470 c 0,130,131
 621.318181818 480.454545455 621.318181818 480.454545455 637 493 c 2,132,-1
 662 513 l 2,133,134
 684 531 684 531 706 531 c 0,135,136
 720.714285714 531 720.714285714 531 735 526 c 2,137,-1
 755 519 l 1,138,-1
 775 510 l 2,139,140
 788.140540541 503.935135135 788.140540541 503.935135135 798 492 c 2,141,-1
 817 469 l 1,142,-1
 834 492 l 2,143,144
 842.775 503.7 842.775 503.7 858 510 c 2,145,-1
 887 522 l 1,146,-1
 914 529 l 1,147,-1
 945 532 l 1,148,-1
 968 531 l 1,149,-1
 993 531 l 1,150,-1
 1064 530 l 1,151,-1
 1143 530 l 1,152,-1
 1143 477 l 1,0,-1
876 222 m 2,153,-1
 877 253 l 1,154,-1
 877 265 l 2,155,156
 877 272 877 272 875 280 c 0,157,158
 875 288 875 288 866 305 c 2,159,-1
 847 357 l 2,160,161
 835 384 835 384 814 379 c 0,162,163
 801 376 801 376 789 352 c 2,164,-1
 779 327 l 2,165,166
 762 290 762 290 762 256 c 2,167,-1
 763 186 l 1,168,-1
 772 145 l 1,169,-1
 783 103 l 2,170,171
 795 56 795 56 814 56 c 1,172,-1
 827 59 l 2,173,174
 832 62 832 62 840 71 c 1,175,-1
 853 105 l 1,176,-1
 862 132 l 1,177,-1
 871 170 l 2,178,179
 874 187 874 187 875 195 c 128,-1,180
 876 203 876 203 876 222 c 2,153,-1
271 204 m 0,181,182
 268 226 268 226 260 238 c 0,183,184
 251 255 251 255 232 255 c 0,185,186
 201 255 201 255 183.5 248.5 c 128,-1,187
 166 242 166 242 159 220 c 2,188,-1
 154 197 l 1,189,-1
 152 170 l 2,190,191
 152 142 152 142 154 134 c 2,192,-1
 157 103 l 2,193,194
 159 88 159 88 173.5 72.5 c 128,-1,195
 188 57 188 57 209 57 c 0,196,197
 238 54 238 54 263 82 c 0,198,199
 278 97 278 97 278 139 c 2,200,-1
 276 168 l 2,201,202
 276 186 276 186 271 204 c 0,181,182
EndSplineSet
EndChar

StartChar: u11317
Encoding: 70423 70423 83
Width: 665
Flags: MW
LayerCount: 2
Fore
SplineSet
597 303 m 1,0,-1
 597 271 l 1,1,-1
 597 238 l 1,2,-1
 597 225 l 2,3,4
 597 219 597 219 595 207 c 2,5,-1
 589 180 l 1,6,-1
 578 148 l 2,7,8
 572 126 572 126 548 92 c 1,9,-1
 520 60 l 1,10,-1
 487 32 l 2,11,12
 479 27 479 27 469 21 c 128,-1,13
 459 15 459 15 452 12 c 128,-1,14
 445 9 445 9 425 3.5 c 128,-1,15
 405 -2 405 -2 400 -3 c 2,16,-1
 60 -3 l 1,17,-1
 60 51 l 1,18,-1
 394 51 l 1,19,20
 407 56 407 56 413 58.5 c 128,-1,21
 419 61 419 61 432 69 c 2,22,-1
 468 96 l 2,23,24
 486 108 486 108 504 131.5 c 128,-1,25
 522 155 522 155 528 179 c 2,26,-1
 538 223 l 1,27,-1
 540 307 l 1,28,-1
 540 433 l 1,29,30
 526 465 526 465 489 465 c 0,31,32
 474 465 474 465 457 453 c 0,33,34
 447 443 447 443 441 422 c 1,35,-1
 441 309 l 1,36,-1
 441 282 l 1,37,-1
 442 256 l 1,38,-1
 441 233 l 2,39,40
 441 221 441 221 437 212 c 0,41,42
 425 159 425 159 410 138 c 0,43,44
 389 109 389 109 340 105 c 2,45,-1
 321 104 l 2,46,47
 286 104 286 104 267 119 c 128,-1,48
 248 134 248 134 236 167 c 2,49,-1
 230 187 l 1,50,-1
 222 227 l 1,51,-1
 219 297 l 1,52,-1
 219 519 l 1,53,-1
 276 519 l 1,54,-1
 276 307 l 2,55,56
 276 270 276 270 277 246.5 c 128,-1,57
 278 223 278 223 281 212 c 0,58,59
 292 162 292 162 333 162 c 0,60,61
 369 162 369 162 382 211 c 0,62,63
 387 236 387 236 387 303 c 2,64,-1
 387 440 l 1,65,66
 398 478 398 478 422 498.5 c 128,-1,67
 446 519 446 519 487 519 c 0,68,69
 560 519 560 519 596 447 c 1,70,-1
 597 303 l 1,0,-1
EndSplineSet
EndChar

StartChar: u11338
Encoding: 70456 70456 84
Width: 1169
Flags: MW
LayerCount: 2
Fore
SplineSet
1032 72 m 1,0,1
 1001 23 1001 23 989 12 c 0,2,3
 960 -15 960 -15 912 -15 c 0,4,5
 891 -15 891 -15 874.5 -11 c 128,-1,6
 858 -7 858 -7 837 5 c 0,7,8
 802 24 802 24 778 63 c 1,9,-1
 777 417 l 2,10,11
 774 435 774 435 766 444 c 0,12,13
 762 454 762 454 746.5 463.5 c 128,-1,14
 731 473 731 473 716 473 c 0,15,16
 695 473 695 473 672.5 457 c 128,-1,17
 650 441 650 441 636 416 c 1,18,-1
 636 96 l 1,19,-1
 636 -18 l 1,20,-1
 310 -18 l 1,21,-1
 310 24 l 1,22,23
 316 31 316 31 334 41 c 2,24,-1
 355 51 l 1,25,-1
 364 57 l 1,26,-1
 390 72 l 1,27,-1
 408 98 l 2,28,29
 417 113 417 113 420 132 c 2,30,-1
 424 175 l 1,31,-1
 423 211 l 1,32,-1
 423 223 l 1,33,-1
 421 243 l 1,34,35
 421 284 421 284 415 317 c 2,36,-1
 407 358 l 2,37,38
 407 367 407 367 398 388 c 0,39,40
 386 419 386 419 347 440 c 0,41,42
 304 459 304 459 265 459 c 0,43,44
 241 459 241 459 211 441 c 0,45,46
 196 431 196 431 173 408 c 1,47,-1
 164 389 l 1,48,-1
 151 358 l 1,49,-1
 143 326 l 1,50,-1
 141 310 l 1,51,-1
 141 296 l 1,52,-1
 141 285 l 1,53,-1
 141 269 l 1,54,55
 183 294 183 294 233 294 c 0,56,57
 256 294 256 294 273 283 c 0,58,59
 281 279 281 279 301 256 c 0,60,61
 316 235 316 235 325 204.5 c 128,-1,62
 334 174 334 174 334 127 c 0,63,64
 334 51 334 51 302 18 c 0,65,66
 287 3 287 3 263 -6 c 128,-1,67
 239 -15 239 -15 206 -15 c 0,68,69
 128 -15 128 -15 99 57 c 0,70,71
 82 106 82 106 82 228 c 0,72,73
 82 381 82 381 113 434 c 0,74,75
 134 473 134 473 179.5 494 c 128,-1,76
 225 515 225 515 298 515 c 0,77,78
 383 515 383 515 436 450 c 0,79,80
 462 417 462 417 475.5 368 c 128,-1,81
 489 319 489 319 489 260 c 0,82,83
 489 125 489 125 468 63 c 0,84,85
 466 55 466 55 455 45 c 2,86,-1
 440 33 l 1,87,-1
 579 33 l 1,88,-1
 579 426 l 1,89,90
 597 469 597 469 631.5 498 c 128,-1,91
 666 527 666 527 708 527 c 2,92,-1
 729 525 l 2,93,94
 769 519 769 519 800 488 c 0,95,96
 825 462 825 462 834 415 c 1,97,-1
 834 77 l 1,98,99
 858 41 858 41 903 41 c 2,100,-1
 924 42 l 2,101,102
 937 44 937 44 949 52 c 128,-1,103
 961 60 961 60 984 89 c 1,104,-1
 978 348 l 1,105,-1
 981 403 l 1,106,-1
 984 460 l 2,107,108
 984 487 984 487 978 540 c 1,109,-1
 1032 540 l 1,110,-1
 1032 354 l 1,111,-1
 1034 243 l 1,112,-1
 1036 142 l 1,113,-1
 1036 131 l 2,114,115
 1036 88 1036 88 1032 72 c 1,0,1
265 186 m 0,116,117
 262 208 262 208 254 220 c 0,118,119
 245 237 245 237 226 237 c 0,120,121
 195 237 195 237 177.5 230.5 c 128,-1,122
 160 224 160 224 153 202 c 2,123,-1
 148 179 l 1,124,-1
 146 152 l 2,125,126
 146 124 146 124 148 116 c 2,127,-1
 151 85 l 2,128,129
 153 70 153 70 167.5 54.5 c 128,-1,130
 182 39 182 39 203 39 c 0,131,132
 232 36 232 36 257 64 c 0,133,134
 272 79 272 79 272 121 c 2,135,-1
 270 150 l 2,136,137
 270 168 270 168 265 186 c 0,116,117
EndSplineSet
EndChar

StartChar: u11307
Encoding: 70407 70407 85
Width: 896
Flags: MW
LayerCount: 2
Fore
SplineSet
837 -36 m 1,0,-1
 154 -39 l 1,1,2
 125 -33 125 -33 110 -12 c 0,3,4
 97 9 97 9 97 54 c 0,5,6
 97 76 97 76 113 92 c 0,7,8
 121 99 121 99 155 111 c 1,9,-1
 192 118 l 1,10,-1
 232 120 l 1,11,-1
 247 120 l 1,12,-1
 330 119 l 1,13,-1
 348 119 l 1,14,-1
 363 119 l 1,15,-1
 376 119 l 1,16,-1
 387 119 l 1,17,-1
 419 119 l 1,18,-1
 447 120 l 1,19,-1
 484 121 l 2,20,21
 501 121 501 121 516 125 c 2,22,-1
 569 136 l 2,23,24
 586 139 586 139 602.5 153 c 128,-1,25
 619 167 619 167 625.5 182 c 128,-1,26
 632 197 632 197 635 231 c 2,27,-1
 637 309 l 2,28,29
 637 351 637 351 627.5 386.5 c 128,-1,30
 618 422 618 422 606 442 c 0,31,32
 603 451 603 451 590 457 c 128,-1,33
 577 463 577 463 559 463 c 0,34,35
 545 463 545 463 532 458 c 0,36,37
 517 455 517 455 497 435 c 0,38,39
 487 425 487 425 474 404 c 1,40,-1
 463 373 l 1,41,-1
 460 351 l 1,42,-1
 460 156 l 1,43,-1
 394 156 l 1,44,-1
 394 357 l 2,45,46
 394 382 394 382 390.5 394 c 128,-1,47
 387 406 387 406 378 420 c 0,48,49
 370 430 370 430 333 449 c 0,50,51
 295 465 295 465 279 465 c 0,52,53
 252 465 252 465 223.5 455.5 c 128,-1,54
 195 446 195 446 178 430 c 2,55,-1
 157 404 l 1,56,-1
 145 406 l 1,57,-1
 147 411 l 1,58,-1
 153 419 l 2,59,60
 162 427 162 427 167 428 c 0,61,62
 197 434 197 434 218 434 c 2,63,-1
 236 433 l 2,64,65
 289 427 289 427 313 374 c 1,66,-1
 323 336 l 2,67,68
 327 314 327 314 327.5 306 c 128,-1,69
 328 298 328 298 328 288 c 0,70,71
 328 264 328 264 327 253.5 c 128,-1,72
 326 243 326 243 320.5 224.5 c 128,-1,73
 315 206 315 206 298 186 c 0,74,75
 269 150 269 150 220 150 c 1,76,-1
 196 153 l 2,77,78
 170 156 170 156 158 161.5 c 128,-1,79
 146 167 146 167 130 186 c 0,80,81
 101 224 101 224 91.5 254 c 128,-1,82
 82 284 82 284 82 321 c 0,83,84
 82 424 82 424 143 476 c 0,85,86
 167 494 167 494 205.5 506.5 c 128,-1,87
 244 519 244 519 292 519 c 0,88,89
 323 519 323 519 340 511 c 2,90,-1
 361 502 l 2,91,92
 374 496 374 496 385 488 c 2,93,-1
 427 442 l 1,94,-1
 439 461 l 2,95,96
 451 476 451 476 467 489 c 0,97,98
 506 516 506 516 566 516 c 0,99,100
 636 516 636 516 675 438 c 0,101,102
 685 413 685 413 694 373 c 2,103,-1
 699 336 l 1,104,-1
 701 294 l 1,105,106
 701 198 701 198 680 156 c 0,107,108
 646 88 646 88 529 73 c 1,109,-1
 440 66 l 1,110,-1
 381 65 l 1,111,-1
 307 66 l 1,112,-1
 243 67 l 1,113,-1
 212 66 l 2,114,115
 190 66 190 66 171 58 c 0,116,117
 153 52 153 52 153 38 c 0,118,119
 153 23 153 23 162 17 c 2,120,-1
 190 9 l 1,121,-1
 286 9 l 1,122,-1
 837 9 l 1,123,-1
 837 -36 l 1,0,-1
268 286 m 0,124,125
 268 323 268 323 256 350 c 0,126,127
 240 381 240 381 210 381 c 0,128,129
 184 381 184 381 161 360 c 0,130,131
 142 338 142 338 142 312 c 0,132,133
 142 275 142 275 160 239 c 0,134,135
 178 207 178 207 207 207 c 1,136,-1
 219 209 l 2,137,138
 243 215 243 215 255.5 238 c 128,-1,139
 268 261 268 261 268 286 c 0,124,125
EndSplineSet
EndChar

